STARTFONT 2.1
COMMENT
COMMENT Converted from TrueType font "verdana.ttf" by "ttf2bdf 2.6".
COMMENT
FONT -FreeType-Verdana-Medium-R-Normal--25-180-100-100-P-137-ISO10646-1
SIZE 18 100 100
FONTBOUNDINGBOX 37 31 -1 -5
STARTPROPERTIES 20
FOUNDRY "FreeType"
FAMILY_NAME "Verdana"
WEIGHT_NAME "Medium"
SLANT "R"
SETWIDTH_NAME "Normal"
ADD_STYLE_NAME ""
PIXEL_SIZE 25
POINT_SIZE 180
RESOLUTION_X 100
RESOLUTION_Y 100
SPACING "P"
AVERAGE_WIDTH 137
CHARSET_REGISTRY "ISO10646"
CHARSET_ENCODING "1"
FONT_ASCENT 25
FONT_DESCENT 5
COPYRIGHT "Typeface and data © 1996 Microsoft Corporation. All Rights Reserved"
_TTF_FONTFILE "verdana.ttf"
_TTF_PSNAME "Verdana"
_XFREE86_GLYPH_RANGES "32_126 160_383 402 416_417 431_432 506_511 710_711 713 728_733 768_769 771 777 803 894 900_906 908 910_929 931_974 1025_1036 1038_1103 1105_1116 1118_1119 1168_1169 7808_7813 7840_7929 8211_8213 8215_8222 8224_8226 8230 8240 8242_8243 8249_8250 8252 8254 8260 8319 8355_8356 8359 8363_8364 8453 8467 8470 8482 8486 8494 8539_8542 8706 8710 8719 8721_8722 8725 8729_8730 8734 8747 8776 8800 8804_8805 9633 9642_9643 9674 9679 9702 61441_61442 61444_61453 64257_64258"
ENDPROPERTIES
CHARS 680
STARTCHAR 0020
ENCODING 32
SWIDTH 320 0
DWIDTH 8 0
BBX 1 1 0 0
BITMAP
00
ENDCHAR
STARTCHAR 0021
ENCODING 33
SWIDTH 400 0
DWIDTH 10 0
BBX 2 19 4 0
BITMAP
C0
C0
C0
C0
C0
C0
C0
C0
C0
C0
C0
C0
C0
C0
00
00
C0
C0
C0
ENDCHAR
STARTCHAR 0022
ENCODING 34
SWIDTH 440 0
DWIDTH 11 0
BBX 7 7 2 13
BITMAP
C6
C6
C6
C6
C6
C6
C6
ENDCHAR
STARTCHAR 0023
ENCODING 35
SWIDTH 800 0
DWIDTH 20 0
BBX 16 19 2 0
BITMAP
018C
018C
0318
0318
0318
7FFF
7FFF
0630
0630
0E70
0C60
0C60
FFFE
FFFE
18C0
18C0
18C0
3180
3180
ENDCHAR
STARTCHAR 0024
ENCODING 36
SWIDTH 640 0
DWIDTH 16 0
BBX 11 23 2 -4
BITMAP
0400
0400
0400
1F80
7FC0
6440
C400
C400
C400
F400
7F00
1FC0
05E0
0460
0460
8460
E4C0
FFC0
3F00
0400
0400
0400
0400
ENDCHAR
STARTCHAR 0025
ENCODING 37
SWIDTH 1080 0
DWIDTH 27 0
BBX 23 19 2 0
BITMAP
3E0180
7F0300
E30300
C18600
C18600
C18C00
C18C00
C19800
E398F8
7F11FC
3E338C
003306
006306
006306
00C306
00C306
01838E
0181FC
0300F8
ENDCHAR
STARTCHAR 0026
ENCODING 38
SWIDTH 720 0
DWIDTH 18 0
BBX 17 19 1 0
BITMAP
1F0000
3F8000
71C000
60C000
60C000
60C000
318000
3F0C00
1E0C00
370C00
638C00
C1CC00
C0F800
C07800
C03800
E03C00
70EE00
3FC700
1F0380
ENDCHAR
STARTCHAR 0027
ENCODING 39
SWIDTH 280 0
DWIDTH 7 0
BBX 2 7 2 13
BITMAP
C0
C0
C0
C0
C0
C0
C0
ENDCHAR
STARTCHAR 0028
ENCODING 40
SWIDTH 440 0
DWIDTH 11 0
BBX 7 25 2 -5
BITMAP
0E
1C
18
30
30
60
60
60
C0
C0
C0
C0
C0
C0
C0
C0
C0
60
60
60
30
30
18
1C
0E
ENDCHAR
STARTCHAR 0029
ENCODING 41
SWIDTH 440 0
DWIDTH 11 0
BBX 7 25 2 -5
BITMAP
E0
70
30
18
18
0C
0C
0C
06
06
06
06
06
06
06
06
06
0C
0C
0C
18
18
30
70
E0
ENDCHAR
STARTCHAR 002A
ENCODING 42
SWIDTH 640 0
DWIDTH 16 0
BBX 12 11 2 9
BITMAP
0600
0600
C630
76E0
1F80
0600
1F80
76E0
C630
0600
0600
ENDCHAR
STARTCHAR 002B
ENCODING 43
SWIDTH 800 0
DWIDTH 20 0
BBX 16 16 2 0
BITMAP
0180
0180
0180
0180
0180
0180
0180
FFFF
FFFF
0180
0180
0180
0180
0180
0180
0180
ENDCHAR
STARTCHAR 002C
ENCODING 44
SWIDTH 360 0
DWIDTH 9 0
BBX 5 8 2 -5
BITMAP
38
30
70
70
60
60
C0
C0
ENDCHAR
STARTCHAR 002D
ENCODING 45
SWIDTH 440 0
DWIDTH 11 0
BBX 8 2 2 7
BITMAP
FF
FF
ENDCHAR
STARTCHAR 002E
ENCODING 46
SWIDTH 360 0
DWIDTH 9 0
BBX 3 3 3 0
BITMAP
E0
E0
E0
ENDCHAR
STARTCHAR 002F
ENCODING 47
SWIDTH 440 0
DWIDTH 11 0
BBX 11 24 0 -4
BITMAP
0060
00C0
00C0
00C0
0180
0180
0380
0300
0300
0700
0600
0600
0C00
0C00
1C00
1800
1800
3800
3000
3000
6000
6000
6000
C000
ENDCHAR
STARTCHAR 0030
ENCODING 48
SWIDTH 640 0
DWIDTH 16 0
BBX 12 19 2 0
BITMAP
0F00
3FC0
70E0
6060
6060
C030
C030
C030
C030
C030
C030
C030
C030
C030
6060
6060
70E0
3FC0
0F00
ENDCHAR
STARTCHAR 0031
ENCODING 49
SWIDTH 640 0
DWIDTH 16 0
BBX 10 19 3 0
BITMAP
0C00
0C00
1C00
FC00
FC00
0C00
0C00
0C00
0C00
0C00
0C00
0C00
0C00
0C00
0C00
0C00
0C00
FFC0
FFC0
ENDCHAR
STARTCHAR 0032
ENCODING 50
SWIDTH 640 0
DWIDTH 16 0
BBX 12 19 2 0
BITMAP
3F00
FFC0
E1C0
8060
0060
0060
0060
00E0
00C0
01C0
0380
0700
0E00
1C00
3800
7000
E000
FFF0
FFF0
ENDCHAR
STARTCHAR 0033
ENCODING 51
SWIDTH 640 0
DWIDTH 16 0
BBX 12 19 2 0
BITMAP
1F80
7FE0
7070
4030
0030
0030
0060
00E0
0F80
0FC0
00E0
0030
0030
0030
0030
8070
E0E0
FFC0
3F00
ENDCHAR
STARTCHAR 0034
ENCODING 52
SWIDTH 640 0
DWIDTH 16 0
BBX 14 19 1 0
BITMAP
0060
00E0
01E0
03E0
0760
0660
0C60
1860
3860
7060
E060
C060
FFFC
FFFC
0060
0060
0060
0060
0060
ENDCHAR
STARTCHAR 0035
ENCODING 53
SWIDTH 640 0
DWIDTH 16 0
BBX 12 19 2 0
BITMAP
7FF0
7FF0
6000
6000
6000
6000
6000
7F00
7FC0
00E0
0070
0030
0030
0030
0030
8060
E0E0
FFC0
3F00
ENDCHAR
STARTCHAR 0036
ENCODING 54
SWIDTH 640 0
DWIDTH 16 0
BBX 12 19 2 0
BITMAP
07C0
1FC0
3840
3000
6000
6000
C000
CF80
FFC0
E0E0
C070
C030
C030
C030
E030
6060
70E0
3FC0
0F80
ENDCHAR
STARTCHAR 0037
ENCODING 55
SWIDTH 640 0
DWIDTH 16 0
BBX 12 19 2 0
BITMAP
FFF0
FFF0
0030
0030
0060
0060
00C0
00C0
0180
0180
0300
0300
0600
0600
0C00
0C00
1800
1800
3000
ENDCHAR
STARTCHAR 0038
ENCODING 56
SWIDTH 640 0
DWIDTH 16 0
BBX 12 19 2 0
BITMAP
0F00
3FC0
30E0
6060
6060
6060
7060
38C0
1F80
3FC0
60E0
6070
C030
C030
C030
E070
70E0
3FC0
1F80
ENDCHAR
STARTCHAR 0039
ENCODING 57
SWIDTH 640 0
DWIDTH 16 0
BBX 12 19 2 0
BITMAP
1F00
3FC0
70E0
6060
C070
C030
C030
C030
E030
7070
3FF0
1F30
0030
0060
0060
00C0
21C0
3F80
3E00
ENDCHAR
STARTCHAR 003A
ENCODING 58
SWIDTH 440 0
DWIDTH 11 0
BBX 3 14 4 0
BITMAP
E0
E0
E0
00
00
00
00
00
00
00
00
E0
E0
E0
ENDCHAR
STARTCHAR 003B
ENCODING 59
SWIDTH 440 0
DWIDTH 11 0
BBX 5 19 3 -5
BITMAP
70
70
70
00
00
00
00
00
00
00
00
38
30
70
70
60
60
C0
C0
ENDCHAR
STARTCHAR 003C
ENCODING 60
SWIDTH 800 0
DWIDTH 20 0
BBX 14 14 3 1
BITMAP
0004
001C
00F8
03E0
0F80
3C00
F000
F000
3C00
0F80
03E0
00F8
001C
0004
ENDCHAR
STARTCHAR 003D
ENCODING 61
SWIDTH 800 0
DWIDTH 20 0
BBX 14 7 3 5
BITMAP
FFFC
FFFC
0000
0000
0000
FFFC
FFFC
ENDCHAR
STARTCHAR 003E
ENCODING 62
SWIDTH 800 0
DWIDTH 20 0
BBX 14 14 3 1
BITMAP
8000
E000
7C00
1F00
07C0
00F0
003C
003C
00F0
07C0
1F00
7C00
E000
8000
ENDCHAR
STARTCHAR 003F
ENCODING 63
SWIDTH 560 0
DWIDTH 14 0
BBX 10 19 2 0
BITMAP
7E00
FF80
8180
00C0
00C0
00C0
00C0
0180
0380
0F00
1C00
1800
1800
1800
0000
0000
1800
1800
1800
ENDCHAR
STARTCHAR 0040
ENCODING 64
SWIDTH 1000 0
DWIDTH 25 0
BBX 21 21 2 -2
BITMAP
01FC00
07FF80
0F03C0
1C00E0
300070
70F630
63FE30
E30618
C60618
C60618
C60618
C60618
C60618
C30E30
63FFF0
61F7E0
300000
380000
1F0000
07FE00
01FE00
ENDCHAR
STARTCHAR 0041
ENCODING 65
SWIDTH 680 0
DWIDTH 17 0
BBX 17 19 0 0
BITMAP
01C000
036000
036000
036000
063000
063000
0E3800
0C1800
0C1800
180C00
180C00
180C00
3FFE00
3FFE00
300600
600300
600300
600300
C00180
ENDCHAR
STARTCHAR 0042
ENCODING 66
SWIDTH 680 0
DWIDTH 17 0
BBX 14 19 2 0
BITMAP
FF80
FFE0
C070
C030
C030
C030
C030
C0E0
FFC0
FFF0
C038
C00C
C00C
C00C
C00C
C01C
C038
FFF0
FFC0
ENDCHAR
STARTCHAR 0043
ENCODING 67
SWIDTH 680 0
DWIDTH 17 0
BBX 15 19 1 0
BITMAP
03F0
0FFE
3C0E
3002
6000
6000
C000
C000
C000
C000
C000
C000
C000
6000
6000
3002
3C0E
1FFE
03F0
ENDCHAR
STARTCHAR 0044
ENCODING 68
SWIDTH 760 0
DWIDTH 19 0
BBX 16 19 2 0
BITMAP
FF80
FFF0
C078
C01C
C00E
C006
C003
C003
C003
C003
C003
C003
C003
C006
C00E
C01C
C078
FFF0
FF80
ENDCHAR
STARTCHAR 0045
ENCODING 69
SWIDTH 640 0
DWIDTH 16 0
BBX 13 19 2 0
BITMAP
FFF8
FFF8
C000
C000
C000
C000
C000
C000
FFF8
FFF8
C000
C000
C000
C000
C000
C000
C000
FFF8
FFF8
ENDCHAR
STARTCHAR 0046
ENCODING 70
SWIDTH 560 0
DWIDTH 14 0
BBX 12 19 2 0
BITMAP
FFF0
FFF0
C000
C000
C000
C000
C000
C000
FFE0
FFE0
C000
C000
C000
C000
C000
C000
C000
C000
C000
ENDCHAR
STARTCHAR 0047
ENCODING 71
SWIDTH 760 0
DWIDTH 19 0
BBX 16 19 1 0
BITMAP
03F8
0FFF
1C0F
3001
6000
6000
C000
C000
C000
C07F
C07F
C003
C003
6003
7003
3803
3C07
0FFE
03F8
ENDCHAR
STARTCHAR 0048
ENCODING 72
SWIDTH 760 0
DWIDTH 19 0
BBX 15 19 2 0
BITMAP
C006
C006
C006
C006
C006
C006
C006
C006
FFFE
FFFE
C006
C006
C006
C006
C006
C006
C006
C006
C006
ENDCHAR
STARTCHAR 0049
ENCODING 73
SWIDTH 400 0
DWIDTH 10 0
BBX 6 19 2 0
BITMAP
FC
FC
30
30
30
30
30
30
30
30
30
30
30
30
30
30
30
FC
FC
ENDCHAR
STARTCHAR 004A
ENCODING 74
SWIDTH 440 0
DWIDTH 11 0
BBX 8 19 1 0
BITMAP
3F
3F
03
03
03
03
03
03
03
03
03
03
03
03
03
03
86
FE
F8
ENDCHAR
STARTCHAR 004B
ENCODING 75
SWIDTH 680 0
DWIDTH 17 0
BBX 15 19 2 0
BITMAP
C01E
C03C
C078
C0E0
C0C0
C180
C300
C600
CC00
DE00
F600
E300
C180
C1C0
C0E0
C070
C038
C01C
C00E
ENDCHAR
STARTCHAR 004C
ENCODING 76
SWIDTH 560 0
DWIDTH 14 0
BBX 12 19 2 0
BITMAP
C000
C000
C000
C000
C000
C000
C000
C000
C000
C000
C000
C000
C000
C000
C000
C000
C000
FFF0
FFF0
ENDCHAR
STARTCHAR 004D
ENCODING 77
SWIDTH 840 0
DWIDTH 21 0
BBX 17 19 2 0
BITMAP
E00380
F00780
F00780
F80F80
D80D80
DC1D80
CC1980
CE3980
C63180
C77180
C36180
C3E180
C1C180
C1C180
C00180
C00180
C00180
C00180
C00180
ENDCHAR
STARTCHAR 004E
ENCODING 78
SWIDTH 760 0
DWIDTH 19 0
BBX 15 19 2 0
BITMAP
F006
F006
F806
D806
CC06
CE06
C606
C706
C386
C186
C1C6
C0C6
C066
C076
C036
C01E
C01E
C00E
C00E
ENDCHAR
STARTCHAR 004F
ENCODING 79
SWIDTH 800 0
DWIDTH 20 0
BBX 18 19 1 0
BITMAP
03F000
0FFC00
3C0F00
300300
600180
600180
C000C0
C000C0
C000C0
C000C0
C000C0
C000C0
C000C0
600180
600180
300300
3C0F00
0FFC00
03F000
ENDCHAR
STARTCHAR 0050
ENCODING 80
SWIDTH 600 0
DWIDTH 15 0
BBX 12 19 2 0
BITMAP
FF00
FFC0
C0E0
C070
C030
C030
C030
C030
C060
C0E0
FFC0
FF00
C000
C000
C000
C000
C000
C000
C000
ENDCHAR
STARTCHAR 0051
ENCODING 81
SWIDTH 800 0
DWIDTH 20 0
BBX 18 24 1 -5
BITMAP
03F000
0FFC00
3C0F00
300300
600180
600180
C000C0
C000C0
C000C0
C000C0
C000C0
C000C0
C000C0
600180
600180
300300
3C0E00
0FFC00
03F000
003000
003000
001800
001FC0
0007C0
ENDCHAR
STARTCHAR 0052
ENCODING 82
SWIDTH 680 0
DWIDTH 17 0
BBX 15 19 2 0
BITMAP
FF80
FFE0
C0E0
C030
C030
C030
C030
C060
C0E0
FFC0
FF00
C180
C1C0
C0E0
C060
C030
C018
C01C
C00E
ENDCHAR
STARTCHAR 0053
ENCODING 83
SWIDTH 680 0
DWIDTH 17 0
BBX 14 19 2 0
BITMAP
0FE0
3FF8
7038
E008
C000
C000
C000
7000
7F80
1FF0
03F8
001C
000C
000C
000C
801C
F038
FFF0
1FC0
ENDCHAR
STARTCHAR 0054
ENCODING 84
SWIDTH 600 0
DWIDTH 15 0
BBX 16 19 0 0
BITMAP
FFFF
FFFF
0180
0180
0180
0180
0180
0180
0180
0180
0180
0180
0180
0180
0180
0180
0180
0180
0180
ENDCHAR
STARTCHAR 0055
ENCODING 85
SWIDTH 720 0
DWIDTH 18 0
BBX 14 19 2 0
BITMAP
C00C
C00C
C00C
C00C
C00C
C00C
C00C
C00C
C00C
C00C
C00C
C00C
C00C
C00C
C00C
6018
7038
3FF0
0FC0
ENDCHAR
STARTCHAR 0056
ENCODING 86
SWIDTH 680 0
DWIDTH 17 0
BBX 17 19 0 0
BITMAP
C00180
600300
600300
600300
300600
300600
300600
180C00
180C00
181C00
0C1800
0C1800
0E3800
063000
063000
036000
036000
036000
01C000
ENDCHAR
STARTCHAR 0057
ENCODING 87
SWIDTH 1000 0
DWIDTH 25 0
BBX 23 19 1 0
BITMAP
C03806
C03806
60380C
606C0C
606C0C
706C1C
306C18
30C618
30C618
38C638
18C630
198330
1D8330
0D8370
0D8360
0D81E0
0F01E0
0701E0
0701C0
ENDCHAR
STARTCHAR 0058
ENCODING 88
SWIDTH 680 0
DWIDTH 17 0
BBX 15 19 1 0
BITMAP
E00E
600C
3018
3838
1830
0C60
0EE0
06C0
07C0
0380
07C0
06C0
0EE0
0C70
1830
3838
3018
600C
E00E
ENDCHAR
STARTCHAR 0059
ENCODING 89
SWIDTH 600 0
DWIDTH 15 0
BBX 16 19 0 0
BITMAP
E007
6006
300C
381C
1818
0C30
0E70
0660
07C0
03C0
0180
0180
0180
0180
0180
0180
0180
0180
0180
ENDCHAR
STARTCHAR 005A
ENCODING 90
SWIDTH 680 0
DWIDTH 17 0
BBX 14 19 2 0
BITMAP
FFFC
FFFC
001C
0038
0030
0060
00E0
01C0
0180
0300
0600
0E00
1C00
1800
3000
7000
E000
FFFC
FFFC
ENDCHAR
STARTCHAR 005B
ENCODING 91
SWIDTH 440 0
DWIDTH 11 0
BBX 6 25 3 -5
BITMAP
FC
FC
C0
C0
C0
C0
C0
C0
C0
C0
C0
C0
C0
C0
C0
C0
C0
C0
C0
C0
C0
C0
C0
FC
FC
ENDCHAR
STARTCHAR 005C
ENCODING 92
SWIDTH 440 0
DWIDTH 11 0
BBX 11 24 1 -4
BITMAP
C000
6000
6000
6000
3000
3000
3800
1800
1800
0C00
0C00
0C00
0600
0600
0600
0300
0300
0380
0180
0180
00C0
00C0
00C0
0060
ENDCHAR
STARTCHAR 005D
ENCODING 93
SWIDTH 440 0
DWIDTH 11 0
BBX 6 25 2 -5
BITMAP
FC
FC
0C
0C
0C
0C
0C
0C
0C
0C
0C
0C
0C
0C
0C
0C
0C
0C
0C
0C
0C
0C
0C
FC
FC
ENDCHAR
STARTCHAR 005E
ENCODING 94
SWIDTH 800 0
DWIDTH 20 0
BBX 16 10 2 9
BITMAP
0180
03C0
07E0
0660
0C30
1C38
1818
300C
7006
E007
ENDCHAR
STARTCHAR 005F
ENCODING 95
SWIDTH 640 0
DWIDTH 16 0
BBX 16 1 0 -3
BITMAP
FFFF
ENDCHAR
STARTCHAR 0060
ENCODING 96
SWIDTH 640 0
DWIDTH 16 0
BBX 5 5 4 16
BITMAP
E0
70
30
30
18
ENDCHAR
STARTCHAR 0061
ENCODING 97
SWIDTH 600 0
DWIDTH 15 0
BBX 12 14 1 0
BITMAP
3F80
7FE0
6070
0030
0030
07F0
3FF0
7830
E030
C030
C030
E0F0
7FF0
3F30
ENDCHAR
STARTCHAR 0062
ENCODING 98
SWIDTH 640 0
DWIDTH 16 0
BBX 13 20 2 0
BITMAP
C000
C000
C000
C000
C000
C000
CFC0
FFE0
F070
C030
C018
C018
C018
C018
C018
C018
C030
E070
FFE0
DF80
ENDCHAR
STARTCHAR 0063
ENCODING 99
SWIDTH 520 0
DWIDTH 13 0
BBX 11 14 1 0
BITMAP
0F80
3FE0
7060
6020
C000
C000
C000
C000
C000
C000
6020
7060
3FE0
0F80
ENDCHAR
STARTCHAR 0064
ENCODING 100
SWIDTH 640 0
DWIDTH 16 0
BBX 13 20 1 0
BITMAP
0018
0018
0018
0018
0018
0018
0FD8
3FF8
7838
6018
E018
C018
C018
C018
C018
C018
6018
7078
3FF8
1F98
ENDCHAR
STARTCHAR 0065
ENCODING 101
SWIDTH 600 0
DWIDTH 15 0
BBX 13 14 1 0
BITMAP
0FC0
3FE0
7070
6030
C018
C018
FFF8
FFF8
C000
C000
6008
7038
3FF8
0FE0
ENDCHAR
STARTCHAR 0066
ENCODING 102
SWIDTH 360 0
DWIDTH 9 0
BBX 9 20 0 0
BITMAP
0F80
1F80
3800
3000
3000
3000
FF00
FF00
3000
3000
3000
3000
3000
3000
3000
3000
3000
3000
3000
3000
ENDCHAR
STARTCHAR 0067
ENCODING 103
SWIDTH 640 0
DWIDTH 16 0
BBX 13 19 1 -5
BITMAP
0FD8
3FF8
7838
6018
E018
C018
C018
C018
C018
C018
6018
7078
3FF8
1F98
0018
0018
3070
3FE0
3FC0
ENDCHAR
STARTCHAR 0068
ENCODING 104
SWIDTH 640 0
DWIDTH 16 0
BBX 12 20 2 0
BITMAP
C000
C000
C000
C000
C000
C000
CF80
DFE0
F060
C030
C030
C030
C030
C030
C030
C030
C030
C030
C030
C030
ENDCHAR
STARTCHAR 0069
ENCODING 105
SWIDTH 240 0
DWIDTH 6 0
BBX 2 19 2 0
BITMAP
C0
C0
00
00
00
C0
C0
C0
C0
C0
C0
C0
C0
C0
C0
C0
C0
C0
C0
ENDCHAR
STARTCHAR 006A
ENCODING 106
SWIDTH 360 0
DWIDTH 9 0
BBX 7 24 0 -5
BITMAP
06
06
00
00
00
3E
3E
06
06
06
06
06
06
06
06
06
06
06
06
06
06
0E
FC
F8
ENDCHAR
STARTCHAR 006B
ENCODING 107
SWIDTH 600 0
DWIDTH 15 0
BBX 13 20 2 0
BITMAP
C000
C000
C000
C000
C000
C000
C030
C060
C0C0
C180
C300
C600
DC00
FE00
E700
C380
C1C0
C0E0
C070
C038
ENDCHAR
STARTCHAR 006C
ENCODING 108
SWIDTH 240 0
DWIDTH 6 0
BBX 2 20 2 0
BITMAP
C0
C0
C0
C0
C0
C0
C0
C0
C0
C0
C0
C0
C0
C0
C0
C0
C0
C0
C0
C0
ENDCHAR
STARTCHAR 006D
ENCODING 109
SWIDTH 960 0
DWIDTH 24 0
BBX 20 14 2 0
BITMAP
CF87C0
FFDFE0
F0F870
C06030
C06030
C06030
C06030
C06030
C06030
C06030
C06030
C06030
C06030
C06030
ENDCHAR
STARTCHAR 006E
ENCODING 110
SWIDTH 640 0
DWIDTH 16 0
BBX 12 14 2 0
BITMAP
CF80
DFE0
F060
C030
C030
C030
C030
C030
C030
C030
C030
C030
C030
C030
ENDCHAR
STARTCHAR 006F
ENCODING 111
SWIDTH 600 0
DWIDTH 15 0
BBX 13 14 1 0
BITMAP
0F80
3FE0
7070
6030
C018
C018
C018
C018
C018
C018
6030
7070
3FE0
0F80
ENDCHAR
STARTCHAR 0070
ENCODING 112
SWIDTH 640 0
DWIDTH 16 0
BBX 13 19 2 -5
BITMAP
CFC0
FFE0
F070
C030
C018
C018
C018
C018
C018
C038
C030
E0F0
FFE0
DF80
C000
C000
C000
C000
C000
ENDCHAR
STARTCHAR 0071
ENCODING 113
SWIDTH 640 0
DWIDTH 16 0
BBX 13 19 1 -5
BITMAP
0FD8
3FF8
7838
6018
E018
C018
C018
C018
C018
C018
6018
7078
3FF8
1F98
0018
0018
0018
0018
0018
ENDCHAR
STARTCHAR 0072
ENCODING 114
SWIDTH 440 0
DWIDTH 11 0
BBX 9 14 2 0
BITMAP
C780
DF80
F000
C000
C000
C000
C000
C000
C000
C000
C000
C000
C000
C000
ENDCHAR
STARTCHAR 0073
ENCODING 115
SWIDTH 520 0
DWIDTH 13 0
BBX 11 14 1 0
BITMAP
1F80
7FC0
E0C0
C000
C000
F000
7F00
1FC0
00E0
0060
8060
E0E0
FFC0
3F00
ENDCHAR
STARTCHAR 0074
ENCODING 116
SWIDTH 400 0
DWIDTH 10 0
BBX 9 18 0 0
BITMAP
3000
3000
3000
3000
FF80
FF80
3000
3000
3000
3000
3000
3000
3000
3000
3000
3800
1F80
0F80
ENDCHAR
STARTCHAR 0075
ENCODING 117
SWIDTH 640 0
DWIDTH 16 0
BBX 12 14 2 0
BITMAP
C030
C030
C030
C030
C030
C030
C030
C030
C030
C030
C030
E0F0
7FB0
1F30
ENDCHAR
STARTCHAR 0076
ENCODING 118
SWIDTH 600 0
DWIDTH 15 0
BBX 13 14 1 0
BITMAP
C018
6030
6030
7070
3060
3060
38E0
18C0
18C0
0D80
0D80
0F80
0700
0700
ENDCHAR
STARTCHAR 0077
ENCODING 119
SWIDTH 800 0
DWIDTH 20 0
BBX 18 14 1 0
BITMAP
C0C0C0
C0C0C0
61E180
61E180
61E180
633180
333300
333300
361B00
361B00
1E1E00
1C0E00
1C0E00
1C0E00
ENDCHAR
STARTCHAR 0078
ENCODING 120
SWIDTH 600 0
DWIDTH 15 0
BBX 13 14 1 0
BITMAP
E038
7070
3060
18C0
1DC0
0F80
0700
0700
0F80
1DC0
18C0
3060
7070
E038
ENDCHAR
STARTCHAR 0079
ENCODING 121
SWIDTH 600 0
DWIDTH 15 0
BBX 13 19 1 -5
BITMAP
C018
6030
6030
7070
3060
38E0
18C0
18C0
1DC0
0D80
0F80
0700
0700
0600
0600
0E00
0C00
0C00
1800
ENDCHAR
STARTCHAR 007A
ENCODING 122
SWIDTH 520 0
DWIDTH 13 0
BBX 11 14 1 0
BITMAP
FFE0
FFE0
00E0
01C0
0380
0700
0E00
0E00
1C00
3800
7000
E000
FFE0
FFE0
ENDCHAR
STARTCHAR 007B
ENCODING 123
SWIDTH 640 0
DWIDTH 16 0
BBX 12 25 2 -5
BITMAP
00F0
03F0
0700
0600
0600
0600
0600
0600
0600
0C00
1C00
F000
F000
1800
0C00
0600
0600
0600
0600
0600
0600
0600
0300
03F0
00F0
ENDCHAR
STARTCHAR 007C
ENCODING 124
SWIDTH 440 0
DWIDTH 11 0
BBX 2 25 5 -5
BITMAP
C0
C0
C0
C0
C0
C0
C0
C0
C0
C0
C0
C0
C0
C0
C0
C0
C0
C0
C0
C0
C0
C0
C0
C0
C0
ENDCHAR
STARTCHAR 007D
ENCODING 125
SWIDTH 640 0
DWIDTH 16 0
BBX 12 25 2 -5
BITMAP
F000
FC00
0E00
0600
0600
0600
0600
0600
0600
0300
0380
00F0
00F0
0380
0300
0600
0600
0600
0600
0600
0600
0600
0C00
FC00
F000
ENDCHAR
STARTCHAR 007E
ENCODING 126
SWIDTH 800 0
DWIDTH 20 0
BBX 16 6 2 5
BITMAP
3E03
7F03
6383
C1C6
C0FE
C07C
ENDCHAR
STARTCHAR 00A0
ENCODING 160
SWIDTH 320 0
DWIDTH 8 0
BBX 1 1 0 0
BITMAP
00
ENDCHAR
STARTCHAR 00A1
ENCODING 161
SWIDTH 400 0
DWIDTH 10 0
BBX 2 19 4 0
BITMAP
C0
C0
C0
00
00
C0
C0
C0
C0
C0
C0
C0
C0
C0
C0
C0
C0
C0
C0
ENDCHAR
STARTCHAR 00A2
ENCODING 162
SWIDTH 640 0
DWIDTH 16 0
BBX 11 22 2 -4
BITMAP
0200
0200
0200
0200
0FC0
3FE0
7220
6200
C200
C200
C200
C200
C200
C200
6200
7220
3FE0
0FC0
0200
0200
0200
0200
ENDCHAR
STARTCHAR 00A3
ENCODING 163
SWIDTH 640 0
DWIDTH 16 0
BBX 13 19 2 0
BITMAP
03F8
07F8
0E08
1C00
1800
1800
1800
1800
1800
1800
7FC0
7FC0
1800
1800
1800
3000
E000
FFF8
FFF8
ENDCHAR
STARTCHAR 00A4
ENCODING 164
SWIDTH 640 0
DWIDTH 16 0
BBX 12 12 2 2
BITMAP
C030
E070
7FE0
3FC0
39C0
30C0
30C0
39C0
3FC0
7FE0
E070
C030
ENDCHAR
STARTCHAR 00A5
ENCODING 165
SWIDTH 640 0
DWIDTH 16 0
BBX 14 19 1 0
BITMAP
E01C
6018
7038
3830
1860
1CE0
0CC0
0FC0
0780
0780
0300
0300
7FF8
7FF8
0300
0300
0300
0300
0300
ENDCHAR
STARTCHAR 00A6
ENCODING 166
SWIDTH 440 0
DWIDTH 11 0
BBX 2 25 5 -5
BITMAP
C0
C0
C0
C0
C0
C0
C0
C0
C0
C0
00
00
00
00
00
C0
C0
C0
C0
C0
C0
C0
C0
C0
C0
ENDCHAR
STARTCHAR 00A7
ENCODING 167
SWIDTH 640 0
DWIDTH 16 0
BBX 12 24 2 -5
BITMAP
1FC0
7FE0
6060
C000
C000
C000
F000
7F00
3FC0
61E0
C070
C030
C030
E030
7860
3FC0
0FE0
00F0
0030
0030
0030
6060
7FC0
3F80
ENDCHAR
STARTCHAR 00A8
ENCODING 168
SWIDTH 640 0
DWIDTH 16 0
BBX 7 2 4 16
BITMAP
C6
C6
ENDCHAR
STARTCHAR 00A9
ENCODING 169
SWIDTH 1000 0
DWIDTH 25 0
BBX 21 21 2 -2
BITMAP
01FC00
060300
080080
100040
200020
40FC10
41FE10
838208
870008
860008
860008
860008
860008
838208
41FE10
40FC10
200020
100040
080080
060300
01FC00
ENDCHAR
STARTCHAR 00AA
ENCODING 170
SWIDTH 560 0
DWIDTH 14 0
BBX 10 12 2 7
BITMAP
3F00
7F80
41C0
00C0
1FC0
7FC0
F0C0
C0C0
C0C0
E1C0
7FC0
3CC0
ENDCHAR
STARTCHAR 00AB
ENCODING 171
SWIDTH 640 0
DWIDTH 16 0
BBX 12 12 2 2
BITMAP
0210
0630
0E70
3CE0
71C0
E380
E300
71C0
1CE0
0E70
0630
0210
ENDCHAR
STARTCHAR 00AC
ENCODING 172
SWIDTH 800 0
DWIDTH 20 0
BBX 15 9 3 0
BITMAP
FFFE
FFFE
0006
0006
0006
0006
0006
0006
0006
ENDCHAR
STARTCHAR 00AD
ENCODING 173
SWIDTH 440 0
DWIDTH 11 0
BBX 8 2 2 7
BITMAP
FF
FF
ENDCHAR
STARTCHAR 00AE
ENCODING 174
SWIDTH 1000 0
DWIDTH 25 0
BBX 21 21 2 -2
BITMAP
01FC00
060300
080080
100040
200020
43F810
43FE10
830E08
830608
830E08
83FC08
83F008
831808
830C08
430E10
430790
200020
100040
080080
060300
01FC00
ENDCHAR
STARTCHAR 00AF
ENCODING 175
SWIDTH 640 0
DWIDTH 16 0
BBX 16 1 0 21
BITMAP
FFFF
ENDCHAR
STARTCHAR 00B0
ENCODING 176
SWIDTH 560 0
DWIDTH 14 0
BBX 10 10 2 9
BITMAP
1E00
7F80
6180
C0C0
C0C0
C0C0
C0C0
6180
7F80
1E00
ENDCHAR
STARTCHAR 00B1
ENCODING 177
SWIDTH 800 0
DWIDTH 20 0
BBX 16 16 2 2
BITMAP
0180
0180
0180
0180
0180
0180
0180
FFFF
FFFF
0180
0180
0180
0180
0180
FFFF
FFFF
ENDCHAR
STARTCHAR 00B2
ENCODING 178
SWIDTH 560 0
DWIDTH 14 0
BBX 10 11 3 8
BITMAP
7E00
FF00
8380
0180
0180
0300
0E00
1800
7000
FFC0
FFC0
ENDCHAR
STARTCHAR 00B3
ENCODING 179
SWIDTH 560 0
DWIDTH 14 0
BBX 9 11 3 8
BITMAP
7E00
FF80
8180
0180
3E00
3F00
0380
0180
8380
FF00
7E00
ENDCHAR
STARTCHAR 00B4
ENCODING 180
SWIDTH 640 0
DWIDTH 16 0
BBX 5 5 7 16
BITMAP
38
70
60
60
C0
ENDCHAR
STARTCHAR 00B5
ENCODING 181
SWIDTH 640 0
DWIDTH 16 0
BBX 12 19 2 -5
BITMAP
C030
C030
C030
C030
C030
C030
C030
C030
C030
C030
C030
F0F0
FFF0
CF30
C000
C000
C000
C000
C000
ENDCHAR
STARTCHAR 00B6
ENCODING 182
SWIDTH 640 0
DWIDTH 16 0
BBX 12 23 2 -4
BITMAP
1FF0
3FF0
7F30
FF30
FF30
FF30
FF30
FF30
7F30
3F30
1F30
0330
0330
0330
0330
0330
0330
0330
0330
0330
0330
0330
0330
ENDCHAR
STARTCHAR 00B7
ENCODING 183
SWIDTH 360 0
DWIDTH 9 0
BBX 3 3 3 6
BITMAP
E0
E0
E0
ENDCHAR
STARTCHAR 00B8
ENCODING 184
SWIDTH 640 0
DWIDTH 16 0
BBX 6 5 4 -5
BITMAP
0C
0C
0C
F8
F0
ENDCHAR
STARTCHAR 00B9
ENCODING 185
SWIDTH 560 0
DWIDTH 14 0
BBX 8 11 4 8
BITMAP
18
38
F8
18
18
18
18
18
18
FF
FF
ENDCHAR
STARTCHAR 00BA
ENCODING 186
SWIDTH 560 0
DWIDTH 14 0
BBX 11 12 1 7
BITMAP
1F00
3F80
71C0
E0E0
C060
C060
C060
C060
E0E0
71C0
3F80
1F00
ENDCHAR
STARTCHAR 00BB
ENCODING 187
SWIDTH 640 0
DWIDTH 16 0
BBX 12 12 2 2
BITMAP
8400
C600
E700
73C0
38E0
1C70
1C70
38E0
73C0
E700
C600
8400
ENDCHAR
STARTCHAR 00BC
ENCODING 188
SWIDTH 1000 0
DWIDTH 25 0
BBX 21 19 2 0
BITMAP
180300
180600
F80600
180C00
180C00
181800
181800
183000
1870E0
1861E0
18E3E0
00C760
01CC60
019860
031FF8
031FF8
060060
060060
0C0060
ENDCHAR
STARTCHAR 00BD
ENCODING 189
SWIDTH 1000 0
DWIDTH 25 0
BBX 23 19 2 0
BITMAP
180300
180600
F80600
180C00
180C00
181800
181800
183000
1871F0
1863F8
18E21C
00C00C
01C00C
018018
030030
0300E0
060180
0603FE
0C03FE
ENDCHAR
STARTCHAR 00BE
ENCODING 190
SWIDTH 1000 0
DWIDTH 25 0
BBX 22 19 2 0
BITMAP
7C0180
FF0300
830300
030600
3C0600
3E0C00
030C00
031800
873870
FE30F0
7C71F0
0063B0
00E630
00CC30
018FFC
018FFC
030030
030030
060030
ENDCHAR
STARTCHAR 00BF
ENCODING 191
SWIDTH 560 0
DWIDTH 14 0
BBX 10 19 1 0
BITMAP
0600
0600
0600
0000
0000
0600
0600
0600
0E00
3C00
7000
6000
C000
C000
C000
C000
6040
7FC0
1F80
ENDCHAR
STARTCHAR 00C0
ENCODING 192
SWIDTH 680 0
DWIDTH 17 0
BBX 17 26 0 0
BITMAP
038000
01C000
00C000
00C000
006000
000000
000000
01C000
036000
036000
036000
063000
063000
0E3800
0C1800
0C1800
180C00
180C00
180C00
3FFE00
3FFE00
300600
600300
600300
600300
C00180
ENDCHAR
STARTCHAR 00C1
ENCODING 193
SWIDTH 680 0
DWIDTH 17 0
BBX 17 26 0 0
BITMAP
007000
00E000
00C000
00C000
018000
000000
000000
01C000
036000
036000
036000
063000
063000
0E3800
0C1800
0C1800
180C00
180C00
180C00
3FFE00
3FFE00
300600
600300
600300
600300
C00180
ENDCHAR
STARTCHAR 00C2
ENCODING 194
SWIDTH 680 0
DWIDTH 17 0
BBX 17 26 0 0
BITMAP
01E000
01E000
033000
033000
061800
000000
000000
01C000
036000
036000
036000
063000
063000
0E3800
0C1800
0C1800
180C00
180C00
180C00
3FFE00
3FFE00
300600
600300
600300
600300
C00180
ENDCHAR
STARTCHAR 00C3
ENCODING 195
SWIDTH 680 0
DWIDTH 17 0
BBX 17 25 0 0
BITMAP
070C00
07CC00
0CF800
0C7800
000000
000000
01C000
036000
036000
036000
063000
063000
0E3800
0C1800
0C1800
180C00
180C00
180C00
3FFE00
3FFE00
300600
600300
600300
600300
C00180
ENDCHAR
STARTCHAR 00C4
ENCODING 196
SWIDTH 680 0
DWIDTH 17 0
BBX 17 23 0 0
BITMAP
063000
063000
000000
000000
01C000
036000
036000
036000
063000
063000
0E3800
0C1800
0C1800
180C00
180C00
180C00
3FFE00
3FFE00
300600
600300
600300
600300
C00180
ENDCHAR
STARTCHAR 00C5
ENCODING 197
SWIDTH 680 0
DWIDTH 17 0
BBX 17 25 0 0
BITMAP
03E000
07F000
0E3800
0C1800
0C1800
0E3800
07F000
036000
036000
036000
063000
063000
063000
0C1800
0C1800
0C1800
180C00
180C00
3FFE00
3FFE00
300600
600300
600300
600300
C00180
ENDCHAR
STARTCHAR 00C6
ENCODING 198
SWIDTH 960 0
DWIDTH 24 0
BBX 23 19 0 0
BITMAP
01FFFE
01FFFE
030C00
030C00
030C00
060C00
060C00
0C0FFE
0C0FFE
0C0C00
1FFC00
1FFC00
380C00
300C00
300C00
600C00
600C00
600FFE
C00FFE
ENDCHAR
STARTCHAR 00C7
ENCODING 199
SWIDTH 680 0
DWIDTH 17 0
BBX 15 24 1 -5
BITMAP
03F0
0FFE
3C0E
3002
6000
6000
C000
C000
C000
C000
C000
C000
C000
6000
6000
3002
3C0E
1FFE
03F8
0030
0030
0070
07E0
07C0
ENDCHAR
STARTCHAR 00C8
ENCODING 200
SWIDTH 640 0
DWIDTH 16 0
BBX 13 26 2 0
BITMAP
0E00
0700
0300
0300
0180
0000
0000
FFF8
FFF8
C000
C000
C000
C000
C000
C000
FFF8
FFF8
C000
C000
C000
C000
C000
C000
C000
FFF8
FFF8
ENDCHAR
STARTCHAR 00C9
ENCODING 201
SWIDTH 640 0
DWIDTH 16 0
BBX 13 26 2 0
BITMAP
01C0
0380
0300
0300
0600
0000
0000
FFF8
FFF8
C000
C000
C000
C000
C000
C000
FFF8
FFF8
C000
C000
C000
C000
C000
C000
C000
FFF8
FFF8
ENDCHAR
STARTCHAR 00CA
ENCODING 202
SWIDTH 640 0
DWIDTH 16 0
BBX 13 26 2 0
BITMAP
0780
0780
0CC0
0CC0
1860
0000
0000
FFF8
FFF8
C000
C000
C000
C000
C000
C000
FFF8
FFF8
C000
C000
C000
C000
C000
C000
C000
FFF8
FFF8
ENDCHAR
STARTCHAR 00CB
ENCODING 203
SWIDTH 640 0
DWIDTH 16 0
BBX 13 23 2 0
BITMAP
18C0
18C0
0000
0000
FFF8
FFF8
C000
C000
C000
C000
C000
C000
FFF8
FFF8
C000
C000
C000
C000
C000
C000
C000
FFF8
FFF8
ENDCHAR
STARTCHAR 00CC
ENCODING 204
SWIDTH 400 0
DWIDTH 10 0
BBX 6 26 2 0
BITMAP
E0
70
30
30
18
00
00
FC
FC
30
30
30
30
30
30
30
30
30
30
30
30
30
30
30
FC
FC
ENDCHAR
STARTCHAR 00CD
ENCODING 205
SWIDTH 400 0
DWIDTH 10 0
BBX 6 26 2 0
BITMAP
1C
38
30
30
60
00
00
FC
FC
30
30
30
30
30
30
30
30
30
30
30
30
30
30
30
FC
FC
ENDCHAR
STARTCHAR 00CE
ENCODING 206
SWIDTH 400 0
DWIDTH 10 0
BBX 8 26 1 0
BITMAP
3C
3C
66
66
C3
00
00
7E
7E
18
18
18
18
18
18
18
18
18
18
18
18
18
18
18
7E
7E
ENDCHAR
STARTCHAR 00CF
ENCODING 207
SWIDTH 400 0
DWIDTH 10 0
BBX 7 23 2 0
BITMAP
C6
C6
00
00
FC
FC
30
30
30
30
30
30
30
30
30
30
30
30
30
30
30
FC
FC
ENDCHAR
STARTCHAR 00D0
ENCODING 208
SWIDTH 760 0
DWIDTH 19 0
BBX 18 19 0 0
BITMAP
3FE000
3FFC00
301E00
300700
300380
300180
3000C0
3000C0
FF80C0
FF80C0
3000C0
3000C0
3000C0
300180
300380
300700
301E00
3FFC00
3FE000
ENDCHAR
STARTCHAR 00D1
ENCODING 209
SWIDTH 760 0
DWIDTH 19 0
BBX 15 25 2 0
BITMAP
0E18
0F98
19F0
18F0
0000
0000
F006
F006
F806
D806
CC06
CE06
C606
C706
C386
C186
C1C6
C0C6
C066
C076
C036
C01E
C01E
C00E
C00E
ENDCHAR
STARTCHAR 00D2
ENCODING 210
SWIDTH 800 0
DWIDTH 20 0
BBX 18 26 1 0
BITMAP
038000
01C000
00C000
00C000
006000
000000
000000
03F000
0FFC00
3C0F00
300300
600180
600180
C000C0
C000C0
C000C0
C000C0
C000C0
C000C0
C000C0
600180
600180
300300
3C0F00
0FFC00
03F000
ENDCHAR
STARTCHAR 00D3
ENCODING 211
SWIDTH 800 0
DWIDTH 20 0
BBX 18 26 1 0
BITMAP
007000
00E000
00C000
00C000
018000
000000
000000
03F000
0FFC00
3C0F00
300300
600180
600180
C000C0
C000C0
C000C0
C000C0
C000C0
C000C0
C000C0
600180
600180
300300
3C0F00
0FFC00
03F000
ENDCHAR
STARTCHAR 00D4
ENCODING 212
SWIDTH 800 0
DWIDTH 20 0
BBX 18 26 1 0
BITMAP
01E000
01E000
033000
033000
061800
000000
000000
03F000
0FFC00
3C0F00
300300
600180
600180
C000C0
C000C0
C000C0
C000C0
C000C0
C000C0
C000C0
600180
600180
300300
3C0F00
0FFC00
03F000
ENDCHAR
STARTCHAR 00D5
ENCODING 213
SWIDTH 800 0
DWIDTH 20 0
BBX 18 25 1 0
BITMAP
070C00
07CC00
0CF800
0C7800
000000
000000
03F000
0FFC00
3C0F00
300300
600180
600180
C000C0
C000C0
C000C0
C000C0
C000C0
C000C0
C000C0
600180
600180
300300
3C0F00
0FFC00
03F000
ENDCHAR
STARTCHAR 00D6
ENCODING 214
SWIDTH 800 0
DWIDTH 20 0
BBX 18 23 1 0
BITMAP
031800
031800
000000
000000
03F000
0FFC00
3C0F00
300300
600180
600180
C000C0
C000C0
C000C0
C000C0
C000C0
C000C0
C000C0
600180
600180
300300
3C0F00
0FFC00
03F000
ENDCHAR
STARTCHAR 00D7
ENCODING 215
SWIDTH 800 0
DWIDTH 20 0
BBX 13 13 4 1
BITMAP
C018
E038
7070
38E0
1DC0
0F80
0700
0F80
1DC0
38E0
7070
E038
C010
ENDCHAR
STARTCHAR 00D8
ENCODING 216
SWIDTH 800 0
DWIDTH 20 0
BBX 18 21 1 -1
BITMAP
000180
03F100
0FFF00
3C0F00
300700
600D80
601980
C030C0
C030C0
C060C0
C0C0C0
C180C0
C300C0
C300C0
660180
6C0180
380300
3C0F00
3FFC00
23F000
600000
ENDCHAR
STARTCHAR 00D9
ENCODING 217
SWIDTH 720 0
DWIDTH 18 0
BBX 14 26 2 0
BITMAP
0E00
0700
0300
0300
0180
0000
0000
C00C
C00C
C00C
C00C
C00C
C00C
C00C
C00C
C00C
C00C
C00C
C00C
C00C
C00C
C00C
6018
7038
3FF0
0FC0
ENDCHAR
STARTCHAR 00DA
ENCODING 218
SWIDTH 720 0
DWIDTH 18 0
BBX 14 26 2 0
BITMAP
00E0
01C0
0180
0180
0300
0000
0000
C00C
C00C
C00C
C00C
C00C
C00C
C00C
C00C
C00C
C00C
C00C
C00C
C00C
C00C
C00C
6018
7038
3FF0
0FC0
ENDCHAR
STARTCHAR 00DB
ENCODING 219
SWIDTH 720 0
DWIDTH 18 0
BBX 14 26 2 0
BITMAP
0780
0780
0CC0
0CC0
1860
0000
0000
C00C
C00C
C00C
C00C
C00C
C00C
C00C
C00C
C00C
C00C
C00C
C00C
C00C
C00C
C00C
6018
7038
3FF0
0FC0
ENDCHAR
STARTCHAR 00DC
ENCODING 220
SWIDTH 720 0
DWIDTH 18 0
BBX 14 23 2 0
BITMAP
0C60
0C60
0000
0000
C00C
C00C
C00C
C00C
C00C
C00C
C00C
C00C
C00C
C00C
C00C
C00C
C00C
C00C
C00C
6018
7038
3FF0
0FC0
ENDCHAR
STARTCHAR 00DD
ENCODING 221
SWIDTH 600 0
DWIDTH 15 0
BBX 16 26 0 0
BITMAP
0070
00E0
00C0
00C0
0180
0000
0000
E007
6006
300C
381C
1818
0C30
0E70
0660
07C0
03C0
0180
0180
0180
0180
0180
0180
0180
0180
0180
ENDCHAR
STARTCHAR 00DE
ENCODING 222
SWIDTH 600 0
DWIDTH 15 0
BBX 12 19 2 0
BITMAP
C000
C000
C000
FF00
FFC0
C0E0
C070
C030
C030
C030
C030
C060
C0E0
FFC0
FF00
C000
C000
C000
C000
ENDCHAR
STARTCHAR 00DF
ENCODING 223
SWIDTH 640 0
DWIDTH 16 0
BBX 13 20 2 0
BITMAP
0F80
3FE0
7070
E030
C030
C030
C0E0
C780
C7C0
C0E0
C030
C018
C018
C018
C018
C018
C030
C870
CFE0
CF80
ENDCHAR
STARTCHAR 00E0
ENCODING 224
SWIDTH 600 0
DWIDTH 15 0
BBX 12 21 1 0
BITMAP
1C00
0E00
0600
0600
0300
0000
0000
3F80
7FE0
6070
0030
0030
07F0
3FF0
7830
E030
C030
C030
E0F0
7FF0
3F30
ENDCHAR
STARTCHAR 00E1
ENCODING 225
SWIDTH 600 0
DWIDTH 15 0
BBX 12 21 1 0
BITMAP
00E0
01C0
0180
0180
0300
0000
0000
3F80
7FE0
6070
0030
0030
07F0
3FF0
7830
E030
C030
C030
E0F0
7FF0
3F30
ENDCHAR
STARTCHAR 00E2
ENCODING 226
SWIDTH 600 0
DWIDTH 15 0
BBX 12 21 1 0
BITMAP
0780
0780
0CC0
0CC0
1860
0000
0000
3F80
7FE0
6070
0030
0030
07F0
3FF0
7830
E030
C030
C030
E0F0
7FF0
3F30
ENDCHAR
STARTCHAR 00E3
ENCODING 227
SWIDTH 600 0
DWIDTH 15 0
BBX 12 20 1 0
BITMAP
1C30
1F30
33E0
31E0
0000
0000
3F80
7FE0
6070
0030
0030
07F0
3FF0
7830
E030
C030
C030
E0F0
7FF0
3F30
ENDCHAR
STARTCHAR 00E4
ENCODING 228
SWIDTH 600 0
DWIDTH 15 0
BBX 12 18 1 0
BITMAP
18C0
18C0
0000
0000
3F80
7FE0
6070
0030
0030
07F0
3FF0
7830
E030
C030
C030
E0F0
7FF0
3F30
ENDCHAR
STARTCHAR 00E5
ENCODING 229
SWIDTH 600 0
DWIDTH 15 0
BBX 12 24 1 0
BITMAP
0780
0FC0
1CE0
1860
1860
1CE0
0FC0
0780
0000
0000
3F80
7FE0
6070
0030
0030
07F0
3FF0
7830
E030
C030
C030
E0F0
7FF0
3F30
ENDCHAR
STARTCHAR 00E6
ENCODING 230
SWIDTH 960 0
DWIDTH 24 0
BBX 22 14 1 0
BITMAP
3F87E0
7FCFF0
60F838
00701C
00600C
0FFFFC
7FFFFC
706000
C06000
C06000
C07004
E1FC1C
7F9FFC
3E07F0
ENDCHAR
STARTCHAR 00E7
ENCODING 231
SWIDTH 520 0
DWIDTH 13 0
BBX 11 19 1 -5
BITMAP
0F80
3FE0
7060
6020
C000
C000
C000
C000
C000
C000
6020
7060
3FE0
0F80
0180
0180
0380
1F00
1E00
ENDCHAR
STARTCHAR 00E8
ENCODING 232
SWIDTH 600 0
DWIDTH 15 0
BBX 13 21 1 0
BITMAP
1C00
0E00
0600
0600
0300
0000
0000
0FC0
3FE0
7070
6030
C018
C018
FFF8
FFF8
C000
C000
6008
7038
3FF8
0FE0
ENDCHAR
STARTCHAR 00E9
ENCODING 233
SWIDTH 600 0
DWIDTH 15 0
BBX 13 21 1 0
BITMAP
00E0
01C0
0180
0180
0300
0000
0000
0FC0
3FE0
7070
6030
C018
C018
FFF8
FFF8
C000
C000
6008
7038
3FF8
0FE0
ENDCHAR
STARTCHAR 00EA
ENCODING 234
SWIDTH 600 0
DWIDTH 15 0
BBX 13 21 1 0
BITMAP
0780
0780
0CC0
0CC0
1860
0000
0000
0FC0
3FE0
7070
6030
C018
C018
FFF8
FFF8
C000
C000
6008
7038
3FF8
0FE0
ENDCHAR
STARTCHAR 00EB
ENCODING 235
SWIDTH 600 0
DWIDTH 15 0
BBX 13 18 1 0
BITMAP
18C0
18C0
0000
0000
0FC0
3FE0
7070
6030
C018
C018
FFF8
FFF8
C000
C000
6008
7038
3FF8
0FE0
ENDCHAR
STARTCHAR 00EC
ENCODING 236
SWIDTH 240 0
DWIDTH 6 0
BBX 5 21 0 0
BITMAP
E0
70
30
30
18
00
00
30
30
30
30
30
30
30
30
30
30
30
30
30
30
ENDCHAR
STARTCHAR 00ED
ENCODING 237
SWIDTH 240 0
DWIDTH 6 0
BBX 5 21 1 0
BITMAP
38
70
60
60
C0
00
00
60
60
60
60
60
60
60
60
60
60
60
60
60
60
ENDCHAR
STARTCHAR 00EE
ENCODING 238
SWIDTH 240 0
DWIDTH 6 0
BBX 6 21 0 0
BITMAP
30
78
78
48
CC
00
00
30
30
30
30
30
30
30
30
30
30
30
30
30
30
ENDCHAR
STARTCHAR 00EF
ENCODING 239
SWIDTH 240 0
DWIDTH 6 0
BBX 6 18 0 0
BITMAP
CC
CC
00
00
30
30
30
30
30
30
30
30
30
30
30
30
30
30
ENDCHAR
STARTCHAR 00F0
ENCODING 240
SWIDTH 600 0
DWIDTH 15 0
BBX 13 19 1 0
BITMAP
1C60
07C0
0380
0EC0
1860
0070
0030
0FB0
3FF8
7038
E018
C018
C018
C018
C038
E030
7070
3FE0
0F80
ENDCHAR
STARTCHAR 00F1
ENCODING 241
SWIDTH 640 0
DWIDTH 16 0
BBX 12 20 2 0
BITMAP
3860
3E60
67C0
63C0
0000
0000
CF80
DFE0
F060
C030
C030
C030
C030
C030
C030
C030
C030
C030
C030
C030
ENDCHAR
STARTCHAR 00F2
ENCODING 242
SWIDTH 600 0
DWIDTH 15 0
BBX 13 21 1 0
BITMAP
0E00
0700
0300
0300
0180
0000
0000
0F80
3FE0
7070
6030
C018
C018
C018
C018
C018
C018
6030
7070
3FE0
0F80
ENDCHAR
STARTCHAR 00F3
ENCODING 243
SWIDTH 600 0
DWIDTH 15 0
BBX 13 21 1 0
BITMAP
01C0
0380
0300
0300
0600
0000
0000
0F80
3FE0
7070
6030
C018
C018
C018
C018
C018
C018
6030
7070
3FE0
0F80
ENDCHAR
STARTCHAR 00F4
ENCODING 244
SWIDTH 600 0
DWIDTH 15 0
BBX 13 21 1 0
BITMAP
0780
0780
0CC0
0CC0
1860
0000
0000
0F80
3FE0
7070
6030
C018
C018
C018
C018
C018
C018
6030
7070
3FE0
0F80
ENDCHAR
STARTCHAR 00F5
ENCODING 245
SWIDTH 600 0
DWIDTH 15 0
BBX 13 20 1 0
BITMAP
1C30
1F30
33E0
31E0
0000
0000
0F80
3FE0
7070
6030
C018
C018
C018
C018
C018
C018
6030
7070
3FE0
0F80
ENDCHAR
STARTCHAR 00F6
ENCODING 246
SWIDTH 600 0
DWIDTH 15 0
BBX 13 18 1 0
BITMAP
18C0
18C0
0000
0000
0F80
3FE0
7070
6030
C018
C018
C018
C018
C018
C018
6030
7070
3FE0
0F80
ENDCHAR
STARTCHAR 00F7
ENCODING 247
SWIDTH 800 0
DWIDTH 20 0
BBX 17 16 2 0
BITMAP
01C000
01C000
01C000
000000
000000
000000
000000
FFFF80
FFFF80
000000
000000
000000
000000
01C000
01C000
01C000
ENDCHAR
STARTCHAR 00F8
ENCODING 248
SWIDTH 600 0
DWIDTH 15 0
BBX 13 16 1 -1
BITMAP
0010
0FB0
3FE0
7070
60F0
C098
C118
C318
C618
C418
C818
7030
7070
3FE0
6F80
4000
ENDCHAR
STARTCHAR 00F9
ENCODING 249
SWIDTH 640 0
DWIDTH 16 0
BBX 12 21 2 0
BITMAP
1C00
0E00
0600
0600
0300
0000
0000
C030
C030
C030
C030
C030
C030
C030
C030
C030
C030
C030
E0F0
7FB0
1F30
ENDCHAR
STARTCHAR 00FA
ENCODING 250
SWIDTH 640 0
DWIDTH 16 0
BBX 12 21 2 0
BITMAP
01C0
0380
0300
0300
0600
0000
0000
C030
C030
C030
C030
C030
C030
C030
C030
C030
C030
C030
E0F0
7FB0
1F30
ENDCHAR
STARTCHAR 00FB
ENCODING 251
SWIDTH 640 0
DWIDTH 16 0
BBX 12 21 2 0
BITMAP
0F00
0F00
1980
1980
30C0
0000
0000
C030
C030
C030
C030
C030
C030
C030
C030
C030
C030
C030
E0F0
7FB0
1F30
ENDCHAR
STARTCHAR 00FC
ENCODING 252
SWIDTH 640 0
DWIDTH 16 0
BBX 12 18 2 0
BITMAP
18C0
18C0
0000
0000
C030
C030
C030
C030
C030
C030
C030
C030
C030
C030
C030
E0F0
7FB0
1F30
ENDCHAR
STARTCHAR 00FD
ENCODING 253
SWIDTH 600 0
DWIDTH 15 0
BBX 13 26 1 -5
BITMAP
00E0
01C0
0180
0180
0300
0000
0000
C018
6030
6030
7070
3060
38E0
18C0
18C0
1DC0
0D80
0F80
0700
0700
0600
0600
0E00
0C00
0C00
1800
ENDCHAR
STARTCHAR 00FE
ENCODING 254
SWIDTH 640 0
DWIDTH 16 0
BBX 13 25 2 -5
BITMAP
C000
C000
C000
C000
C000
C000
CFC0
FFE0
F070
C030
C018
C018
C018
C018
C018
C038
C030
E0F0
FFE0
DF80
C000
C000
C000
C000
C000
ENDCHAR
STARTCHAR 00FF
ENCODING 255
SWIDTH 600 0
DWIDTH 15 0
BBX 13 23 1 -5
BITMAP
18C0
18C0
0000
0000
C018
6030
6030
7070
3060
38E0
18C0
18C0
1DC0
0D80
0F80
0700
0700
0600
0600
0E00
0C00
0C00
1800
ENDCHAR
STARTCHAR 0100
ENCODING 256
SWIDTH 680 0
DWIDTH 17 0
BBX 17 22 0 0
BITMAP
0FF800
0FF800
000000
01C000
036000
036000
036000
063000
063000
0E3800
0C1800
0C1800
180C00
180C00
180C00
3FFE00
3FFE00
300600
600300
600300
600300
C00180
ENDCHAR
STARTCHAR 0101
ENCODING 257
SWIDTH 600 0
DWIDTH 15 0
BBX 12 18 1 0
BITMAP
3FE0
3FE0
0000
0000
3F80
7FE0
6070
0030
0030
07F0
3FF0
7830
E030
C030
C030
E0F0
7FF0
3F30
ENDCHAR
STARTCHAR 0102
ENCODING 258
SWIDTH 680 0
DWIDTH 17 0
BBX 17 26 0 0
BITMAP
0C1800
0C1800
063000
07F000
03E000
000000
000000
01C000
036000
036000
036000
063000
063000
0E3800
0C1800
0C1800
180C00
180C00
180C00
3FFE00
3FFE00
300600
600300
600300
600300
C00180
ENDCHAR
STARTCHAR 0103
ENCODING 259
SWIDTH 600 0
DWIDTH 15 0
BBX 12 21 1 0
BITMAP
3060
3060
18C0
1FC0
0F80
0000
0000
3F80
7FE0
6070
0030
0030
07F0
3FF0
7830
E030
C030
C030
E0F0
7FF0
3F30
ENDCHAR
STARTCHAR 0104
ENCODING 260
SWIDTH 680 0
DWIDTH 17 0
BBX 20 24 0 -5
BITMAP
01C000
036000
036000
036000
063000
063000
0E3800
0C1800
0C1800
181C00
180C00
180C00
3FFE00
3FFE00
300600
600300
600300
600300
C00380
000300
000300
000300
0001F0
0000F0
ENDCHAR
STARTCHAR 0105
ENCODING 261
SWIDTH 600 0
DWIDTH 15 0
BBX 16 19 1 -5
BITMAP
3F80
7FE0
6070
0030
0030
07F0
3FF0
7830
E030
C030
C030
E0F0
7FF0
3F30
0030
0030
0030
001F
000F
ENDCHAR
STARTCHAR 0106
ENCODING 262
SWIDTH 680 0
DWIDTH 17 0
BBX 15 26 1 0
BITMAP
0070
00E0
00C0
00C0
0180
0000
0000
03F0
0FFE
3C0E
3002
6000
6000
C000
C000
C000
C000
C000
C000
C000
6000
6000
3002
3C0E
1FFE
03F0
ENDCHAR
STARTCHAR 0107
ENCODING 263
SWIDTH 520 0
DWIDTH 13 0
BBX 11 21 1 0
BITMAP
01C0
0380
0300
0300
0600
0000
0000
0F80
3FE0
7060
6020
C000
C000
C000
C000
C000
C000
6020
7060
3FE0
0F80
ENDCHAR
STARTCHAR 0108
ENCODING 264
SWIDTH 680 0
DWIDTH 17 0
BBX 15 26 1 0
BITMAP
01E0
01E0
0330
0330
0618
0000
0000
03F0
0FFE
3C0E
3002
6000
6000
C000
C000
C000
C000
C000
C000
C000
6000
6000
3002
3C0E
1FFE
03F0
ENDCHAR
STARTCHAR 0109
ENCODING 265
SWIDTH 520 0
DWIDTH 13 0
BBX 11 21 1 0
BITMAP
0780
0780
0CC0
0CC0
1860
0000
0000
0F80
3FE0
7060
6020
C000
C000
C000
C000
C000
C000
6020
7060
3FE0
0F80
ENDCHAR
STARTCHAR 010A
ENCODING 266
SWIDTH 680 0
DWIDTH 17 0
BBX 15 23 1 0
BITMAP
00C0
00C0
0000
0000
03F0
0FFE
3C0E
3002
6000
6000
C000
C000
C000
C000
C000
C000
C000
6000
6000
3002
3C0E
1FFE
03F0
ENDCHAR
STARTCHAR 010B
ENCODING 267
SWIDTH 520 0
DWIDTH 13 0
BBX 11 18 1 0
BITMAP
0300
0300
0000
0000
0F80
3FE0
7060
6020
C000
C000
C000
C000
C000
C000
6020
7060
3FE0
0F80
ENDCHAR
STARTCHAR 010C
ENCODING 268
SWIDTH 680 0
DWIDTH 17 0
BBX 15 26 1 0
BITMAP
0C30
0660
0660
03C0
03C0
0000
0000
03F0
0FFE
3C0E
3002
6000
6000
C000
C000
C000
C000
C000
C000
C000
6000
6000
3002
3C0E
1FFE
03F0
ENDCHAR
STARTCHAR 010D
ENCODING 269
SWIDTH 520 0
DWIDTH 13 0
BBX 11 21 1 0
BITMAP
30C0
1980
1980
0F00
0F00
0000
0000
0F80
3FE0
7060
6020
C000
C000
C000
C000
C000
C000
6020
7060
3FE0
0F80
ENDCHAR
STARTCHAR 010E
ENCODING 270
SWIDTH 760 0
DWIDTH 19 0
BBX 16 26 2 0
BITMAP
1860
0CC0
0CC0
0780
0780
0000
0000
FF80
FFF0
C078
C01C
C00E
C006
C003
C003
C003
C003
C003
C003
C003
C006
C00E
C01C
C078
FFF0
FF80
ENDCHAR
STARTCHAR 010F
ENCODING 271
SWIDTH 640 0
DWIDTH 16 0
BBX 18 20 1 0
BITMAP
0031C0
003380
003380
003300
003700
003600
0FB000
3FF000
707000
603000
C03000
C03000
C03000
C03000
C03000
C03000
603000
70F000
3FF000
1F3000
ENDCHAR
STARTCHAR 0110
ENCODING 272
SWIDTH 760 0
DWIDTH 19 0
BBX 18 19 0 0
BITMAP
3FE000
3FFC00
301E00
300700
300380
300180
3000C0
3000C0
FF80C0
FF80C0
3000C0
3000C0
3000C0
300180
300380
300700
301E00
3FFC00
3FE000
ENDCHAR
STARTCHAR 0111
ENCODING 273
SWIDTH 640 0
DWIDTH 16 0
BBX 15 20 1 0
BITMAP
0018
0018
01FE
01FE
0018
0018
0FD8
3FF8
7838
6018
E018
C018
C018
C018
C018
C018
6018
7078
3FF8
1F98
ENDCHAR
STARTCHAR 0112
ENCODING 274
SWIDTH 640 0
DWIDTH 16 0
BBX 13 22 2 0
BITMAP
3FE0
3FE0
0000
FFF8
FFF8
C000
C000
C000
C000
C000
C000
FFF8
FFF8
C000
C000
C000
C000
C000
C000
C000
FFF8
FFF8
ENDCHAR
STARTCHAR 0113
ENCODING 275
SWIDTH 600 0
DWIDTH 15 0
BBX 13 18 1 0
BITMAP
3FE0
3FE0
0000
0000
0FC0
3FE0
7070
6030
C018
C018
FFF8
FFF8
C000
C000
6008
7038
3FF8
0FE0
ENDCHAR
STARTCHAR 0114
ENCODING 276
SWIDTH 640 0
DWIDTH 16 0
BBX 13 26 2 0
BITMAP
3060
3060
18C0
1FC0
0F80
0000
0000
FFF8
FFF8
C000
C000
C000
C000
C000
C000
FFF8
FFF8
C000
C000
C000
C000
C000
C000
C000
FFF8
FFF8
ENDCHAR
STARTCHAR 0115
ENCODING 277
SWIDTH 600 0
DWIDTH 15 0
BBX 13 21 1 0
BITMAP
1830
1830
0C60
0FE0
07C0
0000
0000
0FC0
3FE0
7070
6030
C018
C018
FFF8
FFF8
C000
C000
6008
7038
3FF8
0FE0
ENDCHAR
STARTCHAR 0116
ENCODING 278
SWIDTH 640 0
DWIDTH 16 0
BBX 13 23 2 0
BITMAP
0300
0300
0000
0000
FFF8
FFF8
C000
C000
C000
C000
C000
C000
FFF8
FFF8
C000
C000
C000
C000
C000
C000
C000
FFF8
FFF8
ENDCHAR
STARTCHAR 0117
ENCODING 279
SWIDTH 600 0
DWIDTH 15 0
BBX 13 18 1 0
BITMAP
0300
0300
0000
0000
0FC0
3FE0
7070
6030
C018
C018
FFF8
FFF8
C000
C000
6008
7038
3FF8
0FE0
ENDCHAR
STARTCHAR 0118
ENCODING 280
SWIDTH 640 0
DWIDTH 16 0
BBX 13 24 2 -5
BITMAP
FFF8
FFF8
C000
C000
C000
C000
C000
C000
FFF8
FFF8
C000
C000
C000
C000
C000
C000
C000
FFF8
FFF8
0180
0180
0180
00F8
0078
ENDCHAR
STARTCHAR 0119
ENCODING 281
SWIDTH 600 0
DWIDTH 15 0
BBX 13 19 1 -5
BITMAP
0FC0
3FE0
7070
6030
C018
C018
FFF8
FFF8
C000
C000
6008
7038
3FF8
07E0
0180
0180
01C0
00F8
0078
ENDCHAR
STARTCHAR 011A
ENCODING 282
SWIDTH 640 0
DWIDTH 16 0
BBX 13 26 2 0
BITMAP
1860
0CC0
0CC0
0780
0780
0000
0000
FFF8
FFF8
C000
C000
C000
C000
C000
C000
FFF8
FFF8
C000
C000
C000
C000
C000
C000
C000
FFF8
FFF8
ENDCHAR
STARTCHAR 011B
ENCODING 283
SWIDTH 600 0
DWIDTH 15 0
BBX 13 21 1 0
BITMAP
1860
0CC0
0CC0
0780
0780
0000
0000
0FC0
3FE0
7070
6030
C018
C018
FFF8
FFF8
C000
C000
6008
7038
3FF8
0FE0
ENDCHAR
STARTCHAR 011C
ENCODING 284
SWIDTH 760 0
DWIDTH 19 0
BBX 16 26 1 0
BITMAP
01E0
01E0
0330
0330
0618
0000
0000
03F8
0FFF
1C0F
3001
6000
6000
C000
C000
C000
C07F
C07F
C003
C003
6003
7003
3803
3C07
0FFE
03F8
ENDCHAR
STARTCHAR 011D
ENCODING 285
SWIDTH 640 0
DWIDTH 16 0
BBX 13 26 1 -5
BITMAP
0780
0780
0CC0
0CC0
1860
0000
0000
0FD8
3FF8
7838
6018
E018
C018
C018
C018
C018
C018
6018
7078
3FF8
1F98
0018
0018
3070
3FE0
3FC0
ENDCHAR
STARTCHAR 011E
ENCODING 286
SWIDTH 760 0
DWIDTH 19 0
BBX 16 26 1 0
BITMAP
060C
060C
0318
03F8
01F0
0000
0000
03F8
0FFF
1C0F
3001
6000
6000
C000
C000
C000
C07F
C07F
C003
C003
6003
7003
3803
3C07
0FFE
03F8
ENDCHAR
STARTCHAR 011F
ENCODING 287
SWIDTH 640 0
DWIDTH 16 0
BBX 13 26 1 -5
BITMAP
1830
1830
0C60
0FE0
07C0
0000
0000
0FD8
3FF8
7838
6018
E018
C018
C018
C018
C018
C018
6018
7078
3FF8
1F98
0018
0018
3070
3FE0
3FC0
ENDCHAR
STARTCHAR 0120
ENCODING 288
SWIDTH 760 0
DWIDTH 19 0
BBX 16 23 1 0
BITMAP
00C0
00C0
0000
0000
03F8
0FFF
1C0F
3001
6000
6000
C000
C000
C000
C07F
C07F
C003
C003
6003
7003
3803
3C07
0FFE
03F8
ENDCHAR
STARTCHAR 0121
ENCODING 289
SWIDTH 640 0
DWIDTH 16 0
BBX 13 23 1 -5
BITMAP
0300
0300
0000
0000
0FD8
3FF8
7838
6018
E018
C018
C018
C018
C018
C018
6018
7078
3FF8
1F98
0018
0018
3070
3FE0
3FC0
ENDCHAR
STARTCHAR 0122
ENCODING 290
SWIDTH 760 0
DWIDTH 19 0
BBX 16 24 1 -5
BITMAP
03F8
0FFF
1C0F
3001
6000
6000
C000
C000
C000
C07F
C07F
C003
C003
6003
7003
3803
3C07
0FFE
03F8
0060
0060
00E0
07C0
0780
ENDCHAR
STARTCHAR 0123
ENCODING 291
SWIDTH 640 0
DWIDTH 16 0
BBX 13 26 1 -5
BITMAP
00C0
0180
0180
0380
0700
0000
0000
0FD8
3FF8
7838
6018
E018
C018
C018
C018
C018
C018
6018
7078
3FF8
1F98
0018
0018
3070
3FE0
3FC0
ENDCHAR
STARTCHAR 0124
ENCODING 292
SWIDTH 760 0
DWIDTH 19 0
BBX 15 26 2 0
BITMAP
03C0
03C0
0660
0660
0C30
0000
0000
C006
C006
C006
C006
C006
C006
C006
C006
FFFE
FFFE
C006
C006
C006
C006
C006
C006
C006
C006
C006
ENDCHAR
STARTCHAR 0125
ENCODING 293
SWIDTH 640 0
DWIDTH 16 0
BBX 12 26 2 0
BITMAP
0780
0780
0CC0
0CC0
1860
0000
C000
C000
C000
C000
C000
C000
CF80
DFE0
F060
C030
C030
C030
C030
C030
C030
C030
C030
C030
C030
C030
ENDCHAR
STARTCHAR 0126
ENCODING 294
SWIDTH 760 0
DWIDTH 19 0
BBX 19 19 0 0
BITMAP
300180
300180
300180
FFFFE0
FFFFE0
300180
300180
300180
3FFF80
3FFF80
300180
300180
300180
300180
300180
300180
300180
300180
300180
ENDCHAR
STARTCHAR 0127
ENCODING 295
SWIDTH 640 0
DWIDTH 16 0
BBX 14 20 0 0
BITMAP
3000
3000
FF00
FF00
3000
3000
33E0
37F8
3C18
300C
300C
300C
300C
300C
300C
300C
300C
300C
300C
300C
ENDCHAR
STARTCHAR 0128
ENCODING 296
SWIDTH 400 0
DWIDTH 10 0
BBX 10 25 0 0
BITMAP
70C0
7CC0
CF80
C780
0000
0000
3F00
3F00
0C00
0C00
0C00
0C00
0C00
0C00
0C00
0C00
0C00
0C00
0C00
0C00
0C00
0C00
0C00
3F00
3F00
ENDCHAR
STARTCHAR 0129
ENCODING 297
SWIDTH 240 0
DWIDTH 6 0
BBX 6 20 0 0
BITMAP
64
FC
98
00
00
00
30
30
30
30
30
30
30
30
30
30
30
30
30
30
ENDCHAR
STARTCHAR 012A
ENCODING 298
SWIDTH 400 0
DWIDTH 10 0
BBX 8 24 1 0
BITMAP
FF
FF
00
00
00
7E
7E
18
18
18
18
18
18
18
18
18
18
18
18
18
18
18
7E
7E
ENDCHAR
STARTCHAR 012B
ENCODING 299
SWIDTH 240 0
DWIDTH 6 0
BBX 6 19 0 0
BITMAP
FC
FC
00
00
00
30
30
30
30
30
30
30
30
30
30
30
30
30
30
ENDCHAR
STARTCHAR 012C
ENCODING 300
SWIDTH 400 0
DWIDTH 10 0
BBX 7 26 2 0
BITMAP
C6
C6
CE
7C
38
00
00
FC
FC
30
30
30
30
30
30
30
30
30
30
30
30
30
30
30
FC
FC
ENDCHAR
STARTCHAR 012D
ENCODING 301
SWIDTH 240 0
DWIDTH 6 0
BBX 6 20 0 0
BITMAP
CC
CC
48
78
00
00
30
30
30
30
30
30
30
30
30
30
30
30
30
30
ENDCHAR
STARTCHAR 012E
ENCODING 302
SWIDTH 400 0
DWIDTH 10 0
BBX 7 24 2 -5
BITMAP
FC
FC
30
30
30
30
30
30
30
30
30
30
30
30
30
30
30
FC
FC
30
30
30
3E
1E
ENDCHAR
STARTCHAR 012F
ENCODING 303
SWIDTH 240 0
DWIDTH 6 0
BBX 5 24 1 -5
BITMAP
60
60
00
00
00
60
60
60
60
60
60
60
60
60
60
60
60
60
60
C0
C0
C0
F8
78
ENDCHAR
STARTCHAR 0130
ENCODING 304
SWIDTH 400 0
DWIDTH 10 0
BBX 6 23 2 0
BITMAP
30
30
00
00
FC
FC
30
30
30
30
30
30
30
30
30
30
30
30
30
30
30
FC
FC
ENDCHAR
STARTCHAR 0131
ENCODING 305
SWIDTH 240 0
DWIDTH 6 0
BBX 2 14 2 0
BITMAP
C0
C0
C0
C0
C0
C0
C0
C0
C0
C0
C0
C0
C0
C0
ENDCHAR
STARTCHAR 0132
ENCODING 306
SWIDTH 880 0
DWIDTH 22 0
BBX 17 19 2 0
BITMAP
FC1F80
FC1F80
300180
300180
300180
300180
300180
300180
300180
300180
300180
300180
300180
300180
300180
300180
304300
FC7F00
FC7C00
ENDCHAR
STARTCHAR 0133
ENCODING 307
SWIDTH 600 0
DWIDTH 15 0
BBX 12 24 2 -5
BITMAP
C030
C030
0000
0000
0000
C1F0
C1F0
C030
C030
C030
C030
C030
C030
C030
C030
C030
C030
C030
C030
0030
0030
0070
07E0
07C0
ENDCHAR
STARTCHAR 0134
ENCODING 308
SWIDTH 440 0
DWIDTH 11 0
BBX 9 26 1 0
BITMAP
1E00
1E00
3300
3300
6180
0000
0000
3F00
3F00
0300
0300
0300
0300
0300
0300
0300
0300
0300
0300
0300
0300
0300
0300
8600
FE00
F800
ENDCHAR
STARTCHAR 0135
ENCODING 309
SWIDTH 360 0
DWIDTH 9 0
BBX 9 26 0 -5
BITMAP
1E00
1E00
3300
3300
6180
0000
0000
3E00
3E00
0600
0600
0600
0600
0600
0600
0600
0600
0600
0600
0600
0600
0600
0600
0E00
FC00
F800
ENDCHAR
STARTCHAR 0136
ENCODING 310
SWIDTH 680 0
DWIDTH 17 0
BBX 15 24 2 -5
BITMAP
C01E
C03C
C078
C0E0
C0C0
C180
C300
C600
CC00
DE00
F600
E300
C180
C1C0
C0E0
C070
C038
C01C
C00E
0180
0180
0180
1F00
1E00
ENDCHAR
STARTCHAR 0137
ENCODING 311
SWIDTH 600 0
DWIDTH 15 0
BBX 13 25 2 -5
BITMAP
C000
C000
C000
C000
C000
C000
C030
C060
C0C0
C180
C300
C600
DC00
FE00
E700
C380
C1C0
C0E0
C070
C038
0600
0600
0600
7C00
7800
ENDCHAR
STARTCHAR 0138
ENCODING 312
SWIDTH 600 0
DWIDTH 15 0
BBX 13 14 2 0
BITMAP
C030
C060
C0C0
C180
C300
C600
DC00
FE00
E700
C380
C1C0
C0E0
C070
C038
ENDCHAR
STARTCHAR 0139
ENCODING 313
SWIDTH 560 0
DWIDTH 14 0
BBX 12 26 2 0
BITMAP
3800
7000
6000
6000
C000
0000
0000
C000
C000
C000
C000
C000
C000
C000
C000
C000
C000
C000
C000
C000
C000
C000
C000
C000
FFF0
FFF0
ENDCHAR
STARTCHAR 013A
ENCODING 314
SWIDTH 240 0
DWIDTH 6 0
BBX 5 26 2 0
BITMAP
38
70
60
60
C0
00
C0
C0
C0
C0
C0
C0
C0
C0
C0
C0
C0
C0
C0
C0
C0
C0
C0
C0
C0
C0
ENDCHAR
STARTCHAR 013B
ENCODING 315
SWIDTH 560 0
DWIDTH 14 0
BBX 12 24 2 -5
BITMAP
C000
C000
C000
C000
C000
C000
C000
C000
C000
C000
C000
C000
C000
C000
C000
C000
C000
FFF0
FFF0
0300
0300
0300
3E00
3C00
ENDCHAR
STARTCHAR 013C
ENCODING 316
SWIDTH 240 0
DWIDTH 6 0
BBX 6 25 0 -5
BITMAP
30
30
30
30
30
30
30
30
30
30
30
30
30
30
30
30
30
30
30
30
0C
0C
0C
F8
F0
ENDCHAR
STARTCHAR 013D
ENCODING 317
SWIDTH 560 0
DWIDTH 14 0
BBX 12 20 2 0
BITMAP
01C0
C380
C380
C300
C700
C600
C000
C000
C000
C000
C000
C000
C000
C000
C000
C000
C000
C000
FFF0
FFF0
ENDCHAR
STARTCHAR 013E
ENCODING 318
SWIDTH 280 0
DWIDTH 7 0
BBX 8 20 2 0
BITMAP
C7
CE
CE
CC
DC
D8
C0
C0
C0
C0
C0
C0
C0
C0
C0
C0
C0
C0
C0
C0
ENDCHAR
STARTCHAR 013F
ENCODING 319
SWIDTH 560 0
DWIDTH 14 0
BBX 12 19 2 0
BITMAP
C000
C000
C000
C000
C000
C000
C000
C000
C000
C1C0
C1C0
C1C0
C000
C000
C000
C000
C000
FFF0
FFF0
ENDCHAR
STARTCHAR 0140
ENCODING 320
SWIDTH 440 0
DWIDTH 11 0
BBX 8 20 2 0
BITMAP
C0
C0
C0
C0
C0
C0
C0
C0
C0
C0
C7
C7
C7
C0
C0
C0
C0
C0
C0
C0
ENDCHAR
STARTCHAR 0141
ENCODING 321
SWIDTH 560 0
DWIDTH 14 0
BBX 14 19 0 0
BITMAP
3000
3000
3000
3000
3000
3080
3180
3700
3E00
3800
3000
7000
F000
B000
3000
3000
3000
3FFC
3FFC
ENDCHAR
STARTCHAR 0142
ENCODING 322
SWIDTH 240 0
DWIDTH 6 0
BBX 6 20 0 0
BITMAP
30
30
30
30
30
30
30
34
3C
38
30
70
F0
B0
30
30
30
30
30
30
ENDCHAR
STARTCHAR 0143
ENCODING 323
SWIDTH 760 0
DWIDTH 19 0
BBX 15 26 2 0
BITMAP
0070
00E0
00C0
00C0
0180
0000
0000
F006
F006
F806
D806
CC06
CE06
C606
C706
C386
C186
C1C6
C0C6
C066
C076
C036
C01E
C01E
C00E
C00E
ENDCHAR
STARTCHAR 0144
ENCODING 324
SWIDTH 640 0
DWIDTH 16 0
BBX 12 21 2 0
BITMAP
01C0
0380
0300
0300
0600
0000
0000
CF80
DFE0
F060
C030
C030
C030
C030
C030
C030
C030
C030
C030
C030
C030
ENDCHAR
STARTCHAR 0145
ENCODING 325
SWIDTH 760 0
DWIDTH 19 0
BBX 15 24 2 -5
BITMAP
F006
F006
F806
D806
CC06
CE06
C606
C706
C386
C186
C1C6
C0C6
C066
C076
C036
C01E
C01E
C00E
C00E
0180
0180
0180
1F00
1E00
ENDCHAR
STARTCHAR 0146
ENCODING 326
SWIDTH 640 0
DWIDTH 16 0
BBX 12 19 2 -5
BITMAP
CF80
DFE0
F060
C030
C030
C030
C030
C030
C030
C030
C030
C030
C030
C030
0300
0300
0300
3E00
3C00
ENDCHAR
STARTCHAR 0147
ENCODING 327
SWIDTH 760 0
DWIDTH 19 0
BBX 15 26 2 0
BITMAP
0C30
0660
0660
03C0
03C0
0000
0000
F006
F006
F806
D806
CC06
CE06
C606
C706
C386
C186
C1C6
C0C6
C066
C076
C036
C01E
C01E
C00E
C00E
ENDCHAR
STARTCHAR 0148
ENCODING 328
SWIDTH 640 0
DWIDTH 16 0
BBX 12 21 2 0
BITMAP
6180
3300
3300
1E00
1E00
0000
0000
CF80
DFE0
F060
C030
C030
C030
C030
C030
C030
C030
C030
C030
C030
C030
ENDCHAR
STARTCHAR 0149
ENCODING 329
SWIDTH 720 0
DWIDTH 18 0
BBX 16 20 0 0
BITMAP
3800
3000
7000
6000
6000
C000
C67C
07FE
0787
0603
0603
0603
0603
0603
0603
0603
0603
0603
0603
0603
ENDCHAR
STARTCHAR 014A
ENCODING 330
SWIDTH 760 0
DWIDTH 19 0
BBX 15 24 2 -5
BITMAP
F006
F006
F806
D806
CC06
CE06
C606
C306
C386
C186
C1C6
C0E6
C066
C076
C036
C01E
C01E
C00E
C006
0006
0006
000E
00FC
00F8
ENDCHAR
STARTCHAR 014B
ENCODING 331
SWIDTH 640 0
DWIDTH 16 0
BBX 12 19 2 -5
BITMAP
CFC0
DFE0
F060
C030
C030
C030
C030
C030
C030
C030
C030
C030
C030
C030
0030
0030
0070
07E0
07C0
ENDCHAR
STARTCHAR 014C
ENCODING 332
SWIDTH 800 0
DWIDTH 20 0
BBX 18 23 1 0
BITMAP
07FC00
07FC00
000000
000000
03F000
0FFC00
3C0F00
300300
600180
600180
C000C0
C000C0
C000C0
C000C0
C000C0
C000C0
C000C0
600180
600180
300300
3C0F00
0FFC00
03F000
ENDCHAR
STARTCHAR 014D
ENCODING 333
SWIDTH 600 0
DWIDTH 15 0
BBX 13 18 1 0
BITMAP
3FE0
3FE0
0000
0000
0F80
3FE0
7070
6030
C018
C018
C018
C018
C018
C018
6030
7070
3FE0
0F80
ENDCHAR
STARTCHAR 014E
ENCODING 334
SWIDTH 800 0
DWIDTH 20 0
BBX 18 26 1 0
BITMAP
060C00
060C00
031800
03F800
01F000
000000
000000
03F000
0FFC00
3C0F00
300300
600180
600180
C000C0
C000C0
C000C0
C000C0
C000C0
C000C0
C000C0
600180
600180
300300
3C0F00
0FFC00
03F000
ENDCHAR
STARTCHAR 014F
ENCODING 335
SWIDTH 600 0
DWIDTH 15 0
BBX 13 21 1 0
BITMAP
3060
3060
18C0
1FC0
0F80
0000
0000
0F80
3FE0
7070
6030
C018
C018
C018
C018
C018
C018
6030
7070
3FE0
0F80
ENDCHAR
STARTCHAR 0150
ENCODING 336
SWIDTH 800 0
DWIDTH 20 0
BBX 18 26 1 0
BITMAP
00E700
01CE00
018C00
018C00
031800
000000
000000
03F000
0FFC00
3C0F00
300300
600180
600180
C000C0
C000C0
C000C0
C000C0
C000C0
C000C0
C000C0
600180
600180
300300
3C0F00
0FFC00
03F000
ENDCHAR
STARTCHAR 0151
ENCODING 337
SWIDTH 600 0
DWIDTH 15 0
BBX 13 21 1 0
BITMAP
0738
0E70
0C60
0C60
18C0
0000
0000
0F80
3FE0
7070
6030
C018
C018
C018
C018
C018
C018
6030
7070
3FE0
0F80
ENDCHAR
STARTCHAR 0152
ENCODING 338
SWIDTH 1080 0
DWIDTH 27 0
BBX 25 19 1 0
BITMAP
01FFFF80
0FFFFF80
1E060000
38060000
70060000
60060000
C0060000
C007FF80
C007FF80
C0060000
C0060000
C0060000
C0060000
60060000
70060000
38060000
1E060000
0FFFFF80
01FFFF80
ENDCHAR
STARTCHAR 0153
ENCODING 339
SWIDTH 1000 0
DWIDTH 25 0
BBX 23 14 1 0
BITMAP
0F83F0
3FCFF8
70FC1C
60780C
C03006
C03006
C03FFE
C03FFE
C03000
C03000
607802
70FC0E
3FCFFE
0F83F8
ENDCHAR
STARTCHAR 0154
ENCODING 340
SWIDTH 680 0
DWIDTH 17 0
BBX 15 26 2 0
BITMAP
01C0
0380
0300
0300
0600
0000
0000
FF80
FFE0
C0E0
C030
C030
C030
C030
C060
C0E0
FFC0
FF00
C180
C1C0
C0E0
C060
C030
C018
C01C
C00E
ENDCHAR
STARTCHAR 0155
ENCODING 341
SWIDTH 440 0
DWIDTH 11 0
BBX 9 21 2 0
BITMAP
0E00
1C00
1800
1800
3000
0000
0000
C780
DF80
F000
C000
C000
C000
C000
C000
C000
C000
C000
C000
C000
C000
ENDCHAR
STARTCHAR 0156
ENCODING 342
SWIDTH 680 0
DWIDTH 17 0
BBX 15 24 2 -5
BITMAP
FF80
FFE0
C0E0
C030
C030
C030
C030
C060
C0E0
FFC0
FF00
C180
C1C0
C0E0
C060
C030
C018
C01C
C00E
0300
0300
0300
3E00
3C00
ENDCHAR
STARTCHAR 0157
ENCODING 343
SWIDTH 440 0
DWIDTH 11 0
BBX 11 19 0 -5
BITMAP
31E0
37E0
3C00
3000
3000
3000
3000
3000
3000
3000
3000
3000
3000
3000
0C00
0C00
0C00
F800
F000
ENDCHAR
STARTCHAR 0158
ENCODING 344
SWIDTH 680 0
DWIDTH 17 0
BBX 15 26 2 0
BITMAP
30C0
1980
1980
0F00
0F00
0000
0000
FF80
FFE0
C0E0
C030
C030
C030
C030
C060
C0E0
FFC0
FF00
C180
C1C0
C0E0
C060
C030
C018
C01C
C00E
ENDCHAR
STARTCHAR 0159
ENCODING 345
SWIDTH 440 0
DWIDTH 11 0
BBX 9 21 2 0
BITMAP
C300
6600
6600
3C00
3C00
0000
0000
C780
DF80
F000
C000
C000
C000
C000
C000
C000
C000
C000
C000
C000
C000
ENDCHAR
STARTCHAR 015A
ENCODING 346
SWIDTH 680 0
DWIDTH 17 0
BBX 14 26 2 0
BITMAP
01C0
0380
0300
0300
0600
0000
0000
0FE0
3FF8
7038
E008
C000
C000
C000
7000
7F80
1FF0
03F8
001C
000C
000C
000C
801C
F038
FFF0
1FC0
ENDCHAR
STARTCHAR 015B
ENCODING 347
SWIDTH 520 0
DWIDTH 13 0
BBX 11 21 1 0
BITMAP
0380
0700
0600
0600
0C00
0000
0000
1F80
7FC0
E0C0
C000
C000
F000
7F00
1FC0
00E0
0060
8060
E0E0
FFC0
3F00
ENDCHAR
STARTCHAR 015C
ENCODING 348
SWIDTH 680 0
DWIDTH 17 0
BBX 14 26 2 0
BITMAP
0780
0780
0CC0
0CC0
1860
0000
0000
0FE0
3FF8
7038
E008
C000
C000
C000
7000
7F80
1FF0
03F8
001C
000C
000C
000C
801C
F038
FFF0
1FC0
ENDCHAR
STARTCHAR 015D
ENCODING 349
SWIDTH 520 0
DWIDTH 13 0
BBX 11 21 1 0
BITMAP
0F00
0F00
1980
1980
30C0
0000
0000
1F80
7FC0
E0C0
C000
C000
F000
7F00
1FC0
00E0
0060
8060
E0E0
FFC0
3F00
ENDCHAR
STARTCHAR 015E
ENCODING 350
SWIDTH 680 0
DWIDTH 17 0
BBX 14 24 2 -5
BITMAP
0FE0
3FF8
7038
E008
C000
C000
C000
7000
7F80
1FF0
03F8
001C
000C
000C
000C
801C
F038
FFF0
3FC0
00C0
00C0
01C0
0F80
0F00
ENDCHAR
STARTCHAR 015F
ENCODING 351
SWIDTH 520 0
DWIDTH 13 0
BBX 11 19 1 -5
BITMAP
1F80
7FC0
E0C0
C000
C000
F000
7F00
1FC0
00E0
0060
8060
E0E0
FFC0
3F00
0300
0300
0700
3E00
3C00
ENDCHAR
STARTCHAR 0160
ENCODING 352
SWIDTH 680 0
DWIDTH 17 0
BBX 14 26 2 0
BITMAP
1860
0CC0
0CC0
0780
0780
0000
0000
0FE0
3FF8
7038
E008
C000
C000
C000
7000
7F80
1FF0
03F8
001C
000C
000C
000C
801C
F038
FFF0
1FC0
ENDCHAR
STARTCHAR 0161
ENCODING 353
SWIDTH 520 0
DWIDTH 13 0
BBX 11 21 1 0
BITMAP
30C0
1980
1980
0F00
0F00
0000
0000
1F80
7FC0
E0C0
C000
C000
F000
7F00
1FC0
00E0
0060
8060
E0E0
FFC0
3F00
ENDCHAR
STARTCHAR 0162
ENCODING 354
SWIDTH 600 0
DWIDTH 15 0
BBX 16 24 0 -5
BITMAP
FFFF
FFFF
0180
0180
0180
0180
0180
0180
0180
0180
0180
0180
0180
0180
0180
0180
0180
0180
0180
0180
0180
0180
1F00
1E00
ENDCHAR
STARTCHAR 0163
ENCODING 355
SWIDTH 400 0
DWIDTH 10 0
BBX 9 23 0 -5
BITMAP
3000
3000
3000
3000
FF80
FF80
3000
3000
3000
3000
3000
3000
3000
3000
3000
3800
1F80
0F80
0300
0300
0700
3E00
3C00
ENDCHAR
STARTCHAR 0164
ENCODING 356
SWIDTH 600 0
DWIDTH 15 0
BBX 16 26 0 0
BITMAP
0C30
0660
0660
03C0
03C0
0000
0000
FFFF
FFFF
0180
0180
0180
0180
0180
0180
0180
0180
0180
0180
0180
0180
0180
0180
0180
0180
0180
ENDCHAR
STARTCHAR 0165
ENCODING 357
SWIDTH 400 0
DWIDTH 10 0
BBX 11 22 0 0
BITMAP
00E0
01C0
01C0
0180
3380
3300
3000
3000
FF80
FF80
3000
3000
3000
3000
3000
3000
3000
3000
3000
3800
1F80
0F80
ENDCHAR
STARTCHAR 0166
ENCODING 358
SWIDTH 600 0
DWIDTH 15 0
BBX 16 19 0 0
BITMAP
FFFF
FFFF
0180
0180
0180
0180
0180
0180
1FF8
1FF8
0180
0180
0180
0180
0180
0180
0180
0180
0180
ENDCHAR
STARTCHAR 0167
ENCODING 359
SWIDTH 400 0
DWIDTH 10 0
BBX 9 18 0 0
BITMAP
3000
3000
3000
3000
FF80
FF80
3000
3000
3000
3000
FF00
FF00
3000
3000
3000
3800
1F80
0F80
ENDCHAR
STARTCHAR 0168
ENCODING 360
SWIDTH 720 0
DWIDTH 18 0
BBX 14 25 2 0
BITMAP
1C30
1F30
33E0
31E0
0000
0000
C00C
C00C
C00C
C00C
C00C
C00C
C00C
C00C
C00C
C00C
C00C
C00C
C00C
C00C
C00C
6018
7038
3FF0
0FC0
ENDCHAR
STARTCHAR 0169
ENCODING 361
SWIDTH 640 0
DWIDTH 16 0
BBX 12 20 2 0
BITMAP
3860
3E60
67C0
63C0
0000
0000
C030
C030
C030
C030
C030
C030
C030
C030
C030
C030
C030
E0F0
7FB0
1F30
ENDCHAR
STARTCHAR 016A
ENCODING 362
SWIDTH 720 0
DWIDTH 18 0
BBX 14 23 2 0
BITMAP
1FF0
1FF0
0000
0000
C00C
C00C
C00C
C00C
C00C
C00C
C00C
C00C
C00C
C00C
C00C
C00C
C00C
C00C
C00C
6018
7038
3FF0
0FC0
ENDCHAR
STARTCHAR 016B
ENCODING 363
SWIDTH 640 0
DWIDTH 16 0
BBX 12 18 2 0
BITMAP
3FE0
3FE0
0000
0000
C030
C030
C030
C030
C030
C030
C030
C030
C030
C030
C030
E0F0
7FB0
1F30
ENDCHAR
STARTCHAR 016C
ENCODING 364
SWIDTH 720 0
DWIDTH 18 0
BBX 14 26 2 0
BITMAP
1830
1830
0C60
0FE0
07C0
0000
0000
C00C
C00C
C00C
C00C
C00C
C00C
C00C
C00C
C00C
C00C
C00C
C00C
C00C
C00C
C00C
6018
7038
3FF0
0FC0
ENDCHAR
STARTCHAR 016D
ENCODING 365
SWIDTH 640 0
DWIDTH 16 0
BBX 12 21 2 0
BITMAP
3060
3060
18C0
1FC0
0F80
0000
0000
C030
C030
C030
C030
C030
C030
C030
C030
C030
C030
C030
E0F0
7FB0
1F30
ENDCHAR
STARTCHAR 016E
ENCODING 366
SWIDTH 720 0
DWIDTH 18 0
BBX 14 25 2 0
BITMAP
0780
0FC0
1CE0
1860
1860
1CE0
CFCC
C78C
C00C
C00C
C00C
C00C
C00C
C00C
C00C
C00C
C00C
C00C
C00C
C00C
C00C
6018
7038
3FF0
0FC0
ENDCHAR
STARTCHAR 016F
ENCODING 367
SWIDTH 640 0
DWIDTH 16 0
BBX 12 24 2 0
BITMAP
0F00
1F80
39C0
30C0
30C0
39C0
1F80
0F00
0000
0000
C030
C030
C030
C030
C030
C030
C030
C030
C030
C030
C030
E0F0
7FB0
1F30
ENDCHAR
STARTCHAR 0170
ENCODING 368
SWIDTH 720 0
DWIDTH 18 0
BBX 14 26 2 0
BITMAP
039C
0738
0630
0630
0C60
0000
0000
C00C
C00C
C00C
C00C
C00C
C00C
C00C
C00C
C00C
C00C
C00C
C00C
C00C
C00C
C00C
6018
7038
3FF0
0FC0
ENDCHAR
STARTCHAR 0171
ENCODING 369
SWIDTH 640 0
DWIDTH 16 0
BBX 13 21 2 0
BITMAP
0738
0E70
0C60
0C60
18C0
0000
0000
C030
C030
C030
C030
C030
C030
C030
C030
C030
C030
C030
E0F0
7FB0
1F30
ENDCHAR
STARTCHAR 0172
ENCODING 370
SWIDTH 720 0
DWIDTH 18 0
BBX 14 24 2 -5
BITMAP
C00C
C00C
C00C
C00C
C00C
C00C
C00C
C00C
C00C
C00C
C00C
C00C
C00C
C00C
C00C
6018
7038
3FF0
0FC0
0180
0180
01C0
00F8
0078
ENDCHAR
STARTCHAR 0173
ENCODING 371
SWIDTH 640 0
DWIDTH 16 0
BBX 16 19 2 -5
BITMAP
C030
C030
C030
C030
C030
C030
C030
C030
C030
C030
C030
E0F0
7FB0
1F30
0030
0030
0038
001F
000F
ENDCHAR
STARTCHAR 0174
ENCODING 372
SWIDTH 1000 0
DWIDTH 25 0
BBX 23 26 1 0
BITMAP
003C00
003C00
006600
006600
00C300
000000
000000
C03806
C03806
60380C
606C0C
606C0C
706C1C
306C18
30C618
30C618
38C638
18C630
198330
1D8330
0D8370
0D8360
0D81E0
0F01E0
0701E0
0701C0
ENDCHAR
STARTCHAR 0175
ENCODING 373
SWIDTH 800 0
DWIDTH 20 0
BBX 18 21 1 0
BITMAP
01E000
01E000
033000
033000
061800
000000
000000
C0C0C0
C0C0C0
61E180
61E180
61E180
633180
333300
333300
361B00
361B00
1E1E00
1C0E00
1C0E00
1C0E00
ENDCHAR
STARTCHAR 0176
ENCODING 374
SWIDTH 600 0
DWIDTH 15 0
BBX 16 26 0 0
BITMAP
03C0
03C0
0660
0660
0C30
0000
0000
E007
6006
300C
381C
1818
0C30
0E70
0660
07C0
03C0
0180
0180
0180
0180
0180
0180
0180
0180
0180
ENDCHAR
STARTCHAR 0177
ENCODING 375
SWIDTH 600 0
DWIDTH 15 0
BBX 13 26 1 -5
BITMAP
0780
0780
0CC0
0CC0
1860
0000
0000
C018
6030
6030
7070
3060
38E0
18C0
18C0
1DC0
0D80
0F80
0700
0700
0600
0600
0E00
0C00
0C00
1800
ENDCHAR
STARTCHAR 0178
ENCODING 376
SWIDTH 600 0
DWIDTH 15 0
BBX 16 23 0 0
BITMAP
0630
0630
0000
0000
E007
6006
300C
381C
1818
0C30
0E70
0660
07C0
03C0
0180
0180
0180
0180
0180
0180
0180
0180
0180
ENDCHAR
STARTCHAR 0179
ENCODING 377
SWIDTH 680 0
DWIDTH 17 0
BBX 14 26 2 0
BITMAP
01C0
0380
0300
0300
0600
0000
0000
FFFC
FFFC
001C
0038
0030
0060
00E0
01C0
0180
0300
0600
0E00
1C00
1800
3000
7000
E000
FFFC
FFFC
ENDCHAR
STARTCHAR 017A
ENCODING 378
SWIDTH 520 0
DWIDTH 13 0
BBX 11 21 1 0
BITMAP
0380
0700
0600
0600
0C00
0000
0000
FFE0
FFE0
00E0
01C0
0380
0700
0E00
0E00
1C00
3800
7000
E000
FFE0
FFE0
ENDCHAR
STARTCHAR 017B
ENCODING 379
SWIDTH 680 0
DWIDTH 17 0
BBX 14 23 2 0
BITMAP
0300
0300
0000
0000
FFFC
FFFC
001C
0038
0030
0060
00E0
01C0
0180
0300
0600
0E00
1C00
1800
3000
7000
E000
FFFC
FFFC
ENDCHAR
STARTCHAR 017C
ENCODING 380
SWIDTH 520 0
DWIDTH 13 0
BBX 11 18 1 0
BITMAP
0600
0600
0000
0000
FFE0
FFE0
00E0
01C0
0380
0700
0E00
0E00
1C00
3800
7000
E000
FFE0
FFE0
ENDCHAR
STARTCHAR 017D
ENCODING 381
SWIDTH 680 0
DWIDTH 17 0
BBX 14 26 2 0
BITMAP
1860
0CC0
0CC0
0780
0780
0000
0000
FFFC
FFFC
001C
0038
0030
0060
00E0
01C0
0180
0300
0600
0E00
1C00
1800
3000
7000
E000
FFFC
FFFC
ENDCHAR
STARTCHAR 017E
ENCODING 382
SWIDTH 520 0
DWIDTH 13 0
BBX 11 21 1 0
BITMAP
30C0
1980
1980
0F00
0F00
0000
0000
FFE0
FFE0
00E0
01C0
0380
0700
0E00
0E00
1C00
3800
7000
E000
FFE0
FFE0
ENDCHAR
STARTCHAR 017F
ENCODING 383
SWIDTH 320 0
DWIDTH 8 0
BBX 7 20 2 0
BITMAP
3E
7E
E0
C0
C0
C0
C0
C0
C0
C0
C0
C0
C0
C0
C0
C0
C0
C0
C0
C0
ENDCHAR
STARTCHAR 0192
ENCODING 402
SWIDTH 640 0
DWIDTH 16 0
BBX 16 21 0 -2
BITMAP
001F
003F
0070
00E0
00C0
00C0
00C0
0180
0FFC
0FFC
0180
0180
0300
0300
0300
0300
0700
0600
0E00
FC00
F800
ENDCHAR
STARTCHAR 01A0
ENCODING 416
SWIDTH 800 0
DWIDTH 20 0
BBX 19 19 1 0
BITMAP
07E060
1FFC60
3C1E60
3007E0
6003C0
600300
C00180
C00180
C00180
C00180
C00180
C00180
C00180
600300
600300
300600
3C1E00
1FFC00
07F000
ENDCHAR
STARTCHAR 01A1
ENCODING 417
SWIDTH 600 0
DWIDTH 15 0
BBX 14 17 1 0
BITMAP
000C
000C
000C
0FFC
3FF8
7070
6030
C018
C018
C018
C018
C018
C018
6030
7070
3FE0
0F80
ENDCHAR
STARTCHAR 01AF
ENCODING 431
SWIDTH 760 0
DWIDTH 19 0
BBX 18 22 2 0
BITMAP
0000C0
0000C0
0000C0
C00FC0
C00F80
C00C00
C00C00
C00C00
C00C00
C00C00
C00C00
C00C00
C00C00
C00C00
C00C00
C00C00
C00C00
C00C00
601800
703800
3FF000
0FC000
ENDCHAR
STARTCHAR 01B0
ENCODING 432
SWIDTH 680 0
DWIDTH 17 0
BBX 16 17 2 0
BITMAP
0003
0003
0003
C03F
C03E
C030
C030
C030
C030
C030
C030
C030
C030
C030
E0F0
7FB0
1F30
ENDCHAR
STARTCHAR 01FA
ENCODING 506
SWIDTH 680 0
DWIDTH 17 0
BBX 17 25 0 0
BITMAP
006000
00C000
018000
01C000
03E000
063000
063000
063000
03E000
036000
036000
063000
063000
0E3800
0C1800
0C1800
180C00
180C00
1FFC00
3FFE00
300600
700300
600300
600300
C00180
ENDCHAR
STARTCHAR 01FB
ENCODING 507
SWIDTH 600 0
DWIDTH 15 0
BBX 12 22 1 0
BITMAP
0300
0600
0C00
0E00
1F00
3180
3180
3180
3F00
7FC0
6060
0030
0030
07F0
3FF0
7830
E030
C030
C030
E0F0
7FF0
3F30
ENDCHAR
STARTCHAR 01FC
ENCODING 508
SWIDTH 960 0
DWIDTH 24 0
BBX 23 26 0 0
BITMAP
0001C0
000380
000300
000300
000600
000000
000000
01FFFE
01FFFE
030C00
030C00
030C00
060C00
060C00
0C0FFE
0C0FFE
0C0C00
1FFC00
1FFC00
380C00
300C00
300C00
600C00
600C00
600FFE
C00FFE
ENDCHAR
STARTCHAR 01FD
ENCODING 509
SWIDTH 960 0
DWIDTH 24 0
BBX 22 21 1 0
BITMAP
000E00
001C00
001800
001800
003000
000000
000000
3F87E0
7FCFF0
60F838
00701C
00600C
0FFFFC
7FFFFC
706000
C06000
C06000
C07004
E1FC1C
7F9FFC
3E07F0
ENDCHAR
STARTCHAR 01FE
ENCODING 510
SWIDTH 800 0
DWIDTH 20 0
BBX 18 27 1 -1
BITMAP
003800
007000
006000
006000
00C000
000000
000180
03F100
0FFF00
3C0F00
300700
600D80
601980
C030C0
C030C0
C060C0
C0C0C0
C180C0
C300C0
C300C0
660180
6C0180
380300
3C0F00
3FFC00
23F000
600000
ENDCHAR
STARTCHAR 01FF
ENCODING 511
SWIDTH 600 0
DWIDTH 15 0
BBX 13 22 1 -1
BITMAP
00E0
01C0
0180
0180
0300
0000
0010
0FB0
3FE0
7070
60F0
C098
C118
C318
C618
C418
C818
7030
7070
3FE0
6F80
4000
ENDCHAR
STARTCHAR 02C6
ENCODING 710
SWIDTH 640 0
DWIDTH 16 0
BBX 8 5 4 16
BITMAP
3C
3C
66
66
C3
ENDCHAR
STARTCHAR 02C7
ENCODING 711
SWIDTH 640 0
DWIDTH 16 0
BBX 8 5 4 16
BITMAP
C3
66
66
3C
3C
ENDCHAR
STARTCHAR 02C9
ENCODING 713
SWIDTH 640 0
DWIDTH 16 0
BBX 9 2 3 16
BITMAP
FF80
FF80
ENDCHAR
STARTCHAR 02D8
ENCODING 728
SWIDTH 640 0
DWIDTH 16 0
BBX 9 5 3 16
BITMAP
C180
C180
6300
7F00
3E00
ENDCHAR
STARTCHAR 02D9
ENCODING 729
SWIDTH 640 0
DWIDTH 16 0
BBX 2 2 7 16
BITMAP
C0
C0
ENDCHAR
STARTCHAR 02DA
ENCODING 730
SWIDTH 640 0
DWIDTH 16 0
BBX 8 8 4 16
BITMAP
3C
7E
E7
C3
C3
E7
7E
3C
ENDCHAR
STARTCHAR 02DB
ENCODING 731
SWIDTH 640 0
DWIDTH 16 0
BBX 6 5 5 -5
BITMAP
C0
C0
C0
7C
3C
ENDCHAR
STARTCHAR 02DC
ENCODING 732
SWIDTH 640 0
DWIDTH 16 0
BBX 10 4 3 16
BITMAP
70C0
7CC0
CF80
C780
ENDCHAR
STARTCHAR 02DD
ENCODING 733
SWIDTH 640 0
DWIDTH 16 0
BBX 10 5 4 16
BITMAP
39C0
7380
6300
6300
C600
ENDCHAR
STARTCHAR 0300
ENCODING 768
SWIDTH 0 0
DWIDTH 0 0
BBX 5 5 4 16
BITMAP
E0
70
30
30
18
ENDCHAR
STARTCHAR 0301
ENCODING 769
SWIDTH 0 0
DWIDTH 0 0
BBX 5 5 7 16
BITMAP
38
70
60
60
C0
ENDCHAR
STARTCHAR 0303
ENCODING 771
SWIDTH 0 0
DWIDTH 0 0
BBX 10 4 3 16
BITMAP
70C0
7CC0
CF80
C780
ENDCHAR
STARTCHAR 0309
ENCODING 777
SWIDTH 0 0
DWIDTH 0 0
BBX 4 5 6 16
BITMAP
E0
30
30
60
40
ENDCHAR
STARTCHAR 0323
ENCODING 803
SWIDTH 0 0
DWIDTH 0 0
BBX 2 2 7 -4
BITMAP
C0
C0
ENDCHAR
STARTCHAR 037E
ENCODING 894
SWIDTH 440 0
DWIDTH 11 0
BBX 5 19 3 -5
BITMAP
70
70
70
00
00
00
00
00
00
00
00
38
30
70
70
60
60
C0
C0
ENDCHAR
STARTCHAR 0384
ENCODING 900
SWIDTH 640 0
DWIDTH 16 0
BBX 3 5 6 16
BITMAP
E0
E0
E0
E0
40
ENDCHAR
STARTCHAR 0385
ENCODING 901
SWIDTH 640 0
DWIDTH 16 0
BBX 9 5 4 16
BITMAP
1C00
1C00
1C00
DD80
C980
ENDCHAR
STARTCHAR 0386
ENCODING 902
SWIDTH 680 0
DWIDTH 17 0
BBX 17 19 0 0
BITMAP
E1C000
E36000
E36000
E36000
463000
063000
0E3800
0C1800
0C1800
180C00
180C00
180C00
3FFE00
3FFE00
300600
600300
600300
600300
C00180
ENDCHAR
STARTCHAR 0387
ENCODING 903
SWIDTH 440 0
DWIDTH 11 0
BBX 3 3 4 11
BITMAP
E0
E0
E0
ENDCHAR
STARTCHAR 0388
ENCODING 904
SWIDTH 760 0
DWIDTH 19 0
BBX 18 19 0 0
BITMAP
E7FFC0
E7FFC0
E60000
E60000
460000
060000
060000
060000
07FFC0
07FFC0
060000
060000
060000
060000
060000
060000
060000
07FFC0
07FFC0
ENDCHAR
STARTCHAR 0389
ENCODING 905
SWIDTH 880 0
DWIDTH 22 0
BBX 20 19 0 0
BITMAP
E60030
E60030
E60030
E60030
460030
060030
060030
060030
07FFF0
07FFF0
060030
060030
060030
060030
060030
060030
060030
060030
060030
ENDCHAR
STARTCHAR 038A
ENCODING 906
SWIDTH 520 0
DWIDTH 13 0
BBX 11 19 0 0
BITMAP
E7E0
E7E0
E180
E180
4180
0180
0180
0180
0180
0180
0180
0180
0180
0180
0180
0180
0180
07E0
07E0
ENDCHAR
STARTCHAR 038C
ENCODING 908
SWIDTH 880 0
DWIDTH 22 0
BBX 21 19 0 0
BITMAP
E07E00
E1FF80
E781E0
E60060
4C0030
0C0030
180018
180018
180018
180018
180018
180018
180018
0C0030
0C0030
060060
0781E0
01FF80
007E00
ENDCHAR
STARTCHAR 038E
ENCODING 910
SWIDTH 760 0
DWIDTH 19 0
BBX 19 19 0 0
BITMAP
FC00E0
EC00C0
E60180
E70380
430300
018600
01CE00
00CC00
00F800
007800
003000
003000
003000
003000
003000
003000
003000
003000
003000
ENDCHAR
STARTCHAR 038F
ENCODING 911
SWIDTH 920 0
DWIDTH 23 0
BBX 21 19 0 0
BITMAP
E07E00
E1FF80
E381C0
E700E0
460060
0C0030
0C0030
0C0030
0C0030
0C0030
0C0030
060060
0700E0
0381C0
01C380
00C300
00C300
1FC3F8
1FC3F8
ENDCHAR
STARTCHAR 0390
ENCODING 912
SWIDTH 240 0
DWIDTH 6 0
BBX 8 21 -1 0
BITMAP
18
18
18
DB
CB
00
00
18
18
18
18
18
18
18
18
18
18
18
18
18
18
ENDCHAR
STARTCHAR 0391
ENCODING 913
SWIDTH 680 0
DWIDTH 17 0
BBX 17 19 0 0
BITMAP
01C000
036000
036000
036000
063000
063000
0E3800
0C1800
0C1800
180C00
180C00
180C00
3FFE00
3FFE00
300600
600300
600300
600300
C00180
ENDCHAR
STARTCHAR 0392
ENCODING 914
SWIDTH 680 0
DWIDTH 17 0
BBX 14 19 2 0
BITMAP
FF80
FFE0
C070
C030
C030
C030
C030
C0E0
FFC0
FFF0
C038
C00C
C00C
C00C
C00C
C01C
C038
FFF0
FFC0
ENDCHAR
STARTCHAR 0393
ENCODING 915
SWIDTH 560 0
DWIDTH 14 0
BBX 12 19 2 0
BITMAP
FFF0
FFF0
C000
C000
C000
C000
C000
C000
C000
C000
C000
C000
C000
C000
C000
C000
C000
C000
C000
ENDCHAR
STARTCHAR 0394
ENCODING 916
SWIDTH 720 0
DWIDTH 18 0
BBX 18 19 0 0
BITMAP
01E000
01E000
033000
033000
033000
061800
061800
0C1C00
0C0C00
0C0C00
180600
180600
380700
300300
300300
700180
600180
7FFF80
FFFFC0
ENDCHAR
STARTCHAR 0395
ENCODING 917
SWIDTH 640 0
DWIDTH 16 0
BBX 13 19 2 0
BITMAP
FFF8
FFF8
C000
C000
C000
C000
C000
C000
FFF8
FFF8
C000
C000
C000
C000
C000
C000
C000
FFF8
FFF8
ENDCHAR
STARTCHAR 0396
ENCODING 918
SWIDTH 680 0
DWIDTH 17 0
BBX 14 19 2 0
BITMAP
FFFC
FFFC
001C
0038
0030
0060
00E0
01C0
0180
0300
0600
0E00
1C00
1800
3000
7000
E000
FFFC
FFFC
ENDCHAR
STARTCHAR 0397
ENCODING 919
SWIDTH 760 0
DWIDTH 19 0
BBX 15 19 2 0
BITMAP
C006
C006
C006
C006
C006
C006
C006
C006
FFFE
FFFE
C006
C006
C006
C006
C006
C006
C006
C006
C006
ENDCHAR
STARTCHAR 0398
ENCODING 920
SWIDTH 800 0
DWIDTH 20 0
BBX 18 19 1 0
BITMAP
03F000
0FFC00
3C0F00
300300
600180
600180
C000C0
C000C0
C7F8C0
C7F8C0
C000C0
C000C0
C000C0
600180
600180
300300
3C0F00
0FFC00
03F000
ENDCHAR
STARTCHAR 0399
ENCODING 921
SWIDTH 400 0
DWIDTH 10 0
BBX 6 19 2 0
BITMAP
FC
FC
30
30
30
30
30
30
30
30
30
30
30
30
30
30
30
FC
FC
ENDCHAR
STARTCHAR 039A
ENCODING 922
SWIDTH 680 0
DWIDTH 17 0
BBX 15 19 2 0
BITMAP
C01E
C03C
C078
C0E0
C0C0
C180
C300
C600
CC00
DE00
F600
E300
C180
C1C0
C0E0
C070
C038
C01C
C00E
ENDCHAR
STARTCHAR 039B
ENCODING 923
SWIDTH 680 0
DWIDTH 17 0
BBX 17 19 0 0
BITMAP
01C000
036000
036000
036000
063000
063000
063000
0C1800
0C1800
1C1800
180C00
180C00
380600
300600
300600
600300
600300
600300
C00180
ENDCHAR
STARTCHAR 039C
ENCODING 924
SWIDTH 840 0
DWIDTH 21 0
BBX 17 19 2 0
BITMAP
E00380
F00780
F00780
F80F80
D80D80
DC1D80
CC1980
CE3980
C63180
C77180
C36180
C3E180
C1C180
C1C180
C00180
C00180
C00180
C00180
C00180
ENDCHAR
STARTCHAR 039D
ENCODING 925
SWIDTH 760 0
DWIDTH 19 0
BBX 15 19 2 0
BITMAP
F006
F006
F806
D806
CC06
CE06
C606
C706
C386
C186
C1C6
C0C6
C066
C076
C036
C01E
C01E
C00E
C00E
ENDCHAR
STARTCHAR 039E
ENCODING 926
SWIDTH 640 0
DWIDTH 16 0
BBX 14 19 1 0
BITMAP
FFFC
FFFC
0000
0000
0000
0000
0000
7FF8
7FF8
0000
0000
0000
0000
0000
0000
0000
0000
FFFC
FFFC
ENDCHAR
STARTCHAR 039F
ENCODING 927
SWIDTH 800 0
DWIDTH 20 0
BBX 18 19 1 0
BITMAP
03F000
0FFC00
3C0F00
300300
600180
600180
C000C0
C000C0
C000C0
C000C0
C000C0
C000C0
C000C0
600180
600180
300300
3C0F00
0FFC00
03F000
ENDCHAR
STARTCHAR 03A0
ENCODING 928
SWIDTH 760 0
DWIDTH 19 0
BBX 15 19 2 0
BITMAP
FFFE
FFFE
C006
C006
C006
C006
C006
C006
C006
C006
C006
C006
C006
C006
C006
C006
C006
C006
C006
ENDCHAR
STARTCHAR 03A1
ENCODING 929
SWIDTH 600 0
DWIDTH 15 0
BBX 12 19 2 0
BITMAP
FF00
FFC0
C0E0
C070
C030
C030
C030
C030
C060
C0E0
FFC0
FF00
C000
C000
C000
C000
C000
C000
C000
ENDCHAR
STARTCHAR 03A3
ENCODING 931
SWIDTH 680 0
DWIDTH 17 0
BBX 15 19 1 0
BITMAP
FFFC
FFFC
7000
3800
1C00
0E00
0700
0380
01C0
01C0
0380
0700
0E00
1C00
3800
7000
E000
FFFE
FFFE
ENDCHAR
STARTCHAR 03A4
ENCODING 932
SWIDTH 600 0
DWIDTH 15 0
BBX 16 19 0 0
BITMAP
FFFF
FFFF
0180
0180
0180
0180
0180
0180
0180
0180
0180
0180
0180
0180
0180
0180
0180
0180
0180
ENDCHAR
STARTCHAR 03A5
ENCODING 933
SWIDTH 600 0
DWIDTH 15 0
BBX 16 19 0 0
BITMAP
E007
6006
300C
381C
1818
0C30
0E70
0660
07C0
03C0
0180
0180
0180
0180
0180
0180
0180
0180
0180
ENDCHAR
STARTCHAR 03A6
ENCODING 934
SWIDTH 800 0
DWIDTH 20 0
BBX 18 19 1 0
BITMAP
00C000
00C000
07F800
1FFE00
38C700
70C380
60C180
C0C0C0
C0C0C0
C0C0C0
C0C0C0
C0C0C0
60C180
70C380
38C700
1FFE00
07F800
00C000
00C000
ENDCHAR
STARTCHAR 03A7
ENCODING 935
SWIDTH 680 0
DWIDTH 17 0
BBX 15 19 1 0
BITMAP
E00E
600C
3018
3838
1830
0C60
0EE0
06C0
07C0
0380
07C0
06C0
0EE0
0C70
1830
3838
3018
600C
E00E
ENDCHAR
STARTCHAR 03A8
ENCODING 936
SWIDTH 880 0
DWIDTH 22 0
BBX 18 19 2 0
BITMAP
C0C0C0
C0C0C0
C0C0C0
C0C0C0
C0C0C0
C0C0C0
C0C0C0
C0C0C0
C0C0C0
C0C0C0
E0C1C0
60C180
78C780
1FFE00
07F800
00C000
00C000
00C000
00C000
ENDCHAR
STARTCHAR 03A9
ENCODING 937
SWIDTH 800 0
DWIDTH 20 0
BBX 18 19 1 0
BITMAP
03F000
0FFC00
1C0E00
380700
300300
600180
600180
600180
600180
600180
600180
300300
380700
1C0E00
0E1C00
061800
061800
FE1FC0
FE1FC0
ENDCHAR
STARTCHAR 03AA
ENCODING 938
SWIDTH 400 0
DWIDTH 10 0
BBX 7 23 2 0
BITMAP
C6
C6
00
00
FC
FC
30
30
30
30
30
30
30
30
30
30
30
30
30
30
30
FC
FC
ENDCHAR
STARTCHAR 03AB
ENCODING 939
SWIDTH 600 0
DWIDTH 15 0
BBX 16 23 0 0
BITMAP
0630
0630
0000
0000
E007
6006
300C
381C
1818
0C30
0E70
0660
07C0
03C0
0180
0180
0180
0180
0180
0180
0180
0180
0180
ENDCHAR
STARTCHAR 03AC
ENCODING 940
SWIDTH 640 0
DWIDTH 16 0
BBX 13 21 1 0
BITMAP
0700
0700
0700
0700
0200
0000
0000
0FD8
3FF8
7838
6018
E018
C018
C018
C018
C018
C018
6018
7078
3FF8
1F98
ENDCHAR
STARTCHAR 03AD
ENCODING 941
SWIDTH 520 0
DWIDTH 13 0
BBX 11 21 1 0
BITMAP
0E00
0E00
0E00
0E00
0400
0000
0000
1F80
7FC0
E040
C000
C000
6000
3F00
3F00
6000
C000
C020
E0E0
7FE0
1F80
ENDCHAR
STARTCHAR 03AE
ENCODING 942
SWIDTH 640 0
DWIDTH 16 0
BBX 12 26 2 -5
BITMAP
0700
0700
0700
0700
0200
0000
0000
CF80
DFE0
F060
C030
C030
C030
C030
C030
C030
C030
C030
C030
C030
C030
0030
0030
0030
0030
0030
ENDCHAR
STARTCHAR 03AF
ENCODING 943
SWIDTH 240 0
DWIDTH 6 0
BBX 3 21 2 0
BITMAP
E0
E0
E0
E0
40
00
00
C0
C0
C0
C0
C0
C0
C0
C0
C0
C0
C0
C0
C0
C0
ENDCHAR
STARTCHAR 03B0
ENCODING 944
SWIDTH 640 0
DWIDTH 16 0
BBX 12 21 2 0
BITMAP
0700
0700
0700
3760
3260
0000
0000
C030
C030
C030
C030
C030
C030
C030
C030
C030
C030
C030
6060
7FE0
1F80
ENDCHAR
STARTCHAR 03B1
ENCODING 945
SWIDTH 640 0
DWIDTH 16 0
BBX 13 14 1 0
BITMAP
0FD8
3FF8
7838
6018
E018
C018
C018
C018
C018
C018
6018
7078
3FF8
1F98
ENDCHAR
STARTCHAR 03B2
ENCODING 946
SWIDTH 640 0
DWIDTH 16 0
BBX 13 25 2 -5
BITMAP
1F80
3FE0
7070
E030
C030
C030
C020
C0E0
C780
C7C0
C070
C030
C018
C018
C018
C018
C030
E070
FFE0
DF80
C000
C000
C000
C000
C000
ENDCHAR
STARTCHAR 03B3
ENCODING 947
SWIDTH 600 0
DWIDTH 15 0
BBX 13 19 1 -5
BITMAP
C018
6030
6030
6060
3060
30E0
38C0
19C0
1980
0D80
0F00
0F00
0600
0600
0600
0600
0600
0600
0600
ENDCHAR
STARTCHAR 03B4
ENCODING 948
SWIDTH 600 0
DWIDTH 15 0
BBX 13 20 1 0
BITMAP
3FF0
3FF0
3800
0E00
0700
0380
07C0
1FE0
3870
6030
E018
C018
C018
C018
C018
C018
6030
7070
3FE0
0F80
ENDCHAR
STARTCHAR 03B5
ENCODING 949
SWIDTH 520 0
DWIDTH 13 0
BBX 11 14 1 0
BITMAP
1F80
7FC0
E040
C000
C000
6000
3F00
3F00
6000
C000
C020
E0E0
7FE0
1F80
ENDCHAR
STARTCHAR 03B6
ENCODING 950
SWIDTH 440 0
DWIDTH 11 0
BBX 11 25 1 -5
BITMAP
7FE0
7FE0
01C0
0300
0600
0C00
1800
3000
3000
6000
6000
C000
C000
C000
C000
C000
C000
6000
7F80
1FC0
0060
0060
0060
00C0
01C0
ENDCHAR
STARTCHAR 03B7
ENCODING 951
SWIDTH 640 0
DWIDTH 16 0
BBX 12 19 2 -5
BITMAP
CF80
DFE0
F060
C030
C030
C030
C030
C030
C030
C030
C030
C030
C030
C030
0030
0030
0030
0030
0030
ENDCHAR
STARTCHAR 03B8
ENCODING 952
SWIDTH 640 0
DWIDTH 16 0
BBX 12 20 2 0
BITMAP
0F00
3FC0
70E0
6060
6060
C030
C030
C030
C030
FFF0
FFF0
C030
C030
C030
C030
6060
6060
70E0
3FC0
0F00
ENDCHAR
STARTCHAR 03B9
ENCODING 953
SWIDTH 240 0
DWIDTH 6 0
BBX 2 14 2 0
BITMAP
C0
C0
C0
C0
C0
C0
C0
C0
C0
C0
C0
C0
C0
C0
ENDCHAR
STARTCHAR 03BA
ENCODING 954
SWIDTH 600 0
DWIDTH 15 0
BBX 13 14 2 0
BITMAP
C070
C1F0
C380
C700
CE00
DC00
F800
FC00
EE00
C700
C380
C1C0
C0E0
C078
ENDCHAR
STARTCHAR 03BB
ENCODING 955
SWIDTH 600 0
DWIDTH 15 0
BBX 13 20 1 0
BITMAP
1C00
0C00
0C00
0600
0600
0700
0700
0700
0780
0D80
0D80
1CC0
18C0
18E0
3060
3060
7030
6030
6030
C018
ENDCHAR
STARTCHAR 03BC
ENCODING 956
SWIDTH 640 0
DWIDTH 16 0
BBX 12 19 2 -5
BITMAP
C030
C030
C030
C030
C030
C030
C030
C030
C030
C030
C030
F0F0
FFF0
CF30
C000
C000
C000
C000
C000
ENDCHAR
STARTCHAR 03BD
ENCODING 957
SWIDTH 600 0
DWIDTH 15 0
BBX 13 14 1 0
BITMAP
C018
6030
6030
7070
3060
3060
38E0
18C0
18C0
0D80
0D80
0F80
0700
0700
ENDCHAR
STARTCHAR 03BE
ENCODING 958
SWIDTH 520 0
DWIDTH 13 0
BBX 12 25 1 -5
BITMAP
FFE0
FFE0
1800
3000
6000
6000
6000
7000
3800
0FC0
1FC0
7000
6000
C000
C000
C000
C000
7000
3FC0
1FF0
0030
0030
0030
0060
00E0
ENDCHAR
STARTCHAR 03BF
ENCODING 959
SWIDTH 600 0
DWIDTH 15 0
BBX 13 14 1 0
BITMAP
0F80
3FE0
7070
6030
C018
C018
C018
C018
C018
C018
6030
7070
3FE0
0F80
ENDCHAR
STARTCHAR 03C0
ENCODING 960
SWIDTH 640 0
DWIDTH 16 0
BBX 12 14 2 0
BITMAP
FFF0
FFF0
C030
C030
C030
C030
C030
C030
C030
C030
C030
C030
C030
C030
ENDCHAR
STARTCHAR 03C1
ENCODING 961
SWIDTH 640 0
DWIDTH 16 0
BBX 13 19 2 -5
BITMAP
0F80
3FE0
7070
E030
C018
C018
C018
C018
C018
C038
C030
E0F0
FFE0
DF80
C000
C000
C000
C000
C000
ENDCHAR
STARTCHAR 03C2
ENCODING 962
SWIDTH 520 0
DWIDTH 13 0
BBX 12 19 1 -5
BITMAP
07E0
1FF0
3830
6000
E000
C000
C000
C000
C000
C000
6000
7000
3FC0
0FE0
0030
0030
0030
0060
00E0
ENDCHAR
STARTCHAR 03C3
ENCODING 963
SWIDTH 640 0
DWIDTH 16 0
BBX 16 14 1 0
BITMAP
0FFF
3FFF
7838
6018
C00C
C00C
C00C
C00C
C00C
C00C
6018
7078
3FF0
0FC0
ENDCHAR
STARTCHAR 03C4
ENCODING 964
SWIDTH 480 0
DWIDTH 12 0
BBX 12 14 0 0
BITMAP
FFF0
FFF0
0600
0600
0600
0600
0600
0600
0600
0600
0600
0600
0600
0600
ENDCHAR
STARTCHAR 03C5
ENCODING 965
SWIDTH 640 0
DWIDTH 16 0
BBX 12 14 2 0
BITMAP
C030
C030
C030
C030
C030
C030
C030
C030
C030
C030
C030
6060
7FE0
1F80
ENDCHAR
STARTCHAR 03C6
ENCODING 966
SWIDTH 800 0
DWIDTH 20 0
BBX 18 19 1 -5
BITMAP
1CF800
30FE00
60C780
60C180
C0C1C0
C0C0C0
C0C0C0
C0C0C0
C0C0C0
E0C1C0
70C380
38C700
1FFE00
07F800
00C000
00C000
00C000
00C000
00C000
ENDCHAR
STARTCHAR 03C7
ENCODING 967
SWIDTH 600 0
DWIDTH 15 0
BBX 13 19 1 -5
BITMAP
E038
6030
7070
3060
38E0
18C0
0D80
0F80
0700
0700
0700
0D80
1D80
18C0
38E0
3060
7070
6030
E038
ENDCHAR
STARTCHAR 03C8
ENCODING 968
SWIDTH 840 0
DWIDTH 21 0
BBX 16 19 2 -5
BITMAP
C183
C183
C183
C183
C183
C183
C183
C183
C183
C183
E187
718E
3FFC
0FF0
0180
0180
0180
0180
0180
ENDCHAR
STARTCHAR 03C9
ENCODING 969
SWIDTH 800 0
DWIDTH 20 0
BBX 18 14 1 0
BITMAP
1C0E00
380700
700380
60C180
E0C1C0
C0C0C0
C0C0C0
C0C0C0
C0C0C0
C0C0C0
E0C1C0
71E380
3FFF00
1E1E00
ENDCHAR
STARTCHAR 03CA
ENCODING 970
SWIDTH 240 0
DWIDTH 6 0
BBX 6 18 0 0
BITMAP
CC
CC
00
00
30
30
30
30
30
30
30
30
30
30
30
30
30
30
ENDCHAR
STARTCHAR 03CB
ENCODING 971
SWIDTH 640 0
DWIDTH 16 0
BBX 12 18 2 0
BITMAP
18C0
18C0
0000
0000
C030
C030
C030
C030
C030
C030
C030
C030
C030
C030
C030
6060
7FE0
1F80
ENDCHAR
STARTCHAR 03CC
ENCODING 972
SWIDTH 600 0
DWIDTH 15 0
BBX 13 21 1 0
BITMAP
0700
0700
0700
0700
0200
0000
0000
0F80
3FE0
7070
6030
C018
C018
C018
C018
C018
C018
6030
7070
3FE0
0F80
ENDCHAR
STARTCHAR 03CD
ENCODING 973
SWIDTH 640 0
DWIDTH 16 0
BBX 12 21 2 0
BITMAP
0700
0700
0700
0700
0200
0000
0000
C030
C030
C030
C030
C030
C030
C030
C030
C030
C030
C030
6060
7FE0
1F80
ENDCHAR
STARTCHAR 03CE
ENCODING 974
SWIDTH 800 0
DWIDTH 20 0
BBX 18 21 1 0
BITMAP
00E000
00E000
00E000
00E000
004000
000000
000000
1C0E00
380700
700380
60C180
E0C1C0
C0C0C0
C0C0C0
C0C0C0
C0C0C0
C0C0C0
E0C1C0
71E380
3FFF00
1E1E00
ENDCHAR
STARTCHAR 0401
ENCODING 1025
SWIDTH 640 0
DWIDTH 16 0
BBX 13 23 2 0
BITMAP
18C0
18C0
0000
0000
FFF8
FFF8
C000
C000
C000
C000
C000
C000
FFF8
FFF8
C000
C000
C000
C000
C000
C000
C000
FFF8
FFF8
ENDCHAR
STARTCHAR 0402
ENCODING 1026
SWIDTH 800 0
DWIDTH 20 0
BBX 19 19 0 0
BITMAP
FFF800
FFF800
060000
060000
060000
060000
060000
07FE00
07FF80
0601C0
0600E0
060060
060060
060060
060060
0600C0
0601C0
063F80
063E00
ENDCHAR
STARTCHAR 0403
ENCODING 1027
SWIDTH 560 0
DWIDTH 14 0
BBX 12 25 2 0
BITMAP
01C0
0380
0300
0300
0600
0000
FFF0
FFF0
C000
C000
C000
C000
C000
C000
C000
C000
C000
C000
C000
C000
C000
C000
C000
C000
C000
ENDCHAR
STARTCHAR 0404
ENCODING 1028
SWIDTH 720 0
DWIDTH 18 0
BBX 16 19 1 0
BITMAP
03FC
0FFF
1C07
3801
7000
6000
C000
C000
FFFC
FFFC
C000
C000
C000
6000
6000
3801
1C07
0FFF
03FC
ENDCHAR
STARTCHAR 0405
ENCODING 1029
SWIDTH 680 0
DWIDTH 17 0
BBX 14 19 2 0
BITMAP
0FE0
3FF8
7038
E008
C000
C000
C000
7000
7F80
1FF0
03F8
001C
000C
000C
000C
801C
F038
FFF0
1FC0
ENDCHAR
STARTCHAR 0406
ENCODING 1030
SWIDTH 400 0
DWIDTH 10 0
BBX 6 19 2 0
BITMAP
FC
FC
30
30
30
30
30
30
30
30
30
30
30
30
30
30
30
FC
FC
ENDCHAR
STARTCHAR 0407
ENCODING 1031
SWIDTH 400 0
DWIDTH 10 0
BBX 7 23 2 0
BITMAP
C6
C6
00
00
FC
FC
30
30
30
30
30
30
30
30
30
30
30
30
30
30
30
FC
FC
ENDCHAR
STARTCHAR 0408
ENCODING 1032
SWIDTH 440 0
DWIDTH 11 0
BBX 8 19 1 0
BITMAP
3F
3F
03
03
03
03
03
03
03
03
03
03
03
03
03
03
86
FE
F8
ENDCHAR
STARTCHAR 0409
ENCODING 1033
SWIDTH 1120 0
DWIDTH 28 0
BBX 27 19 0 0
BITMAP
0FFE0000
0FFE0000
0C060000
0C060000
0C060000
0C060000
0C060000
0C07FF00
0C07FF80
0C0601C0
0C0600E0
1C060060
18060060
18060060
18060060
180600C0
300601C0
F007FF80
E007FE00
ENDCHAR
STARTCHAR 040A
ENCODING 1034
SWIDTH 1120 0
DWIDTH 28 0
BBX 25 19 2 0
BITMAP
C0180000
C0180000
C0180000
C0180000
C0180000
C0180000
C0180000
FFFFFC00
FFFFFE00
C0180700
C0180380
C0180180
C0180180
C0180180
C0180180
C0180300
C0180700
C01FFE00
C01FF800
ENDCHAR
STARTCHAR 040B
ENCODING 1035
SWIDTH 800 0
DWIDTH 20 0
BBX 18 19 0 0
BITMAP
FFF800
FFF800
060000
060000
060000
060000
060000
067E00
07FF80
078380
0601C0
0600C0
0600C0
0600C0
0600C0
0600C0
0600C0
0600C0
0600C0
ENDCHAR
STARTCHAR 040C
ENCODING 1036
SWIDTH 680 0
DWIDTH 17 0
BBX 15 25 2 0
BITMAP
01C0
0380
0300
0300
0600
0000
C03C
C07C
C0E0
C1C0
C180
C180
C300
C700
CE00
FC00
FE00
C700
C380
C1C0
C0E0
C070
C038
C01C
C00E
ENDCHAR
STARTCHAR 040E
ENCODING 1038
SWIDTH 600 0
DWIDTH 15 0
BBX 15 24 0 0
BITMAP
1830
1C70
0FE0
07C0
0000
C006
600C
600C
301C
3018
1838
1830
0C30
0C60
0660
06E0
07C0
03C0
0380
0180
0300
0700
3E00
3C00
ENDCHAR
STARTCHAR 040F
ENCODING 1039
SWIDTH 760 0
DWIDTH 19 0
BBX 15 23 2 -4
BITMAP
C006
C006
C006
C006
C006
C006
C006
C006
C006
C006
C006
C006
C006
C006
C006
C006
C006
FFFE
FFFE
0300
0300
0300
0300
ENDCHAR
STARTCHAR 0410
ENCODING 1040
SWIDTH 680 0
DWIDTH 17 0
BBX 17 19 0 0
BITMAP
01C000
036000
036000
036000
063000
063000
0E3800
0C1800
0C1800
180C00
180C00
180C00
3FFE00
3FFE00
300600
600300
600300
600300
C00180
ENDCHAR
STARTCHAR 0411
ENCODING 1041
SWIDTH 680 0
DWIDTH 17 0
BBX 14 19 2 0
BITMAP
FFF0
FFF0
C000
C000
C000
C000
C000
FFE0
FFF0
C038
C01C
C00C
C00C
C00C
C00C
C018
C038
FFF0
FFC0
ENDCHAR
STARTCHAR 0412
ENCODING 1042
SWIDTH 680 0
DWIDTH 17 0
BBX 14 19 2 0
BITMAP
FF80
FFE0
C070
C030
C030
C030
C030
C0E0
FFC0
FFF0
C038
C00C
C00C
C00C
C00C
C01C
C038
FFF0
FFC0
ENDCHAR
STARTCHAR 0413
ENCODING 1043
SWIDTH 560 0
DWIDTH 14 0
BBX 12 19 2 0
BITMAP
FFF0
FFF0
C000
C000
C000
C000
C000
C000
C000
C000
C000
C000
C000
C000
C000
C000
C000
C000
C000
ENDCHAR
STARTCHAR 0414
ENCODING 1044
SWIDTH 760 0
DWIDTH 19 0
BBX 18 23 0 -4
BITMAP
07FF80
07FF80
060180
060180
060180
060180
0E0180
0C0180
0C0180
0C0180
0C0180
180180
180180
180180
300180
300180
600180
FFFFC0
FFFFC0
C000C0
C000C0
C000C0
C000C0
ENDCHAR
STARTCHAR 0415
ENCODING 1045
SWIDTH 640 0
DWIDTH 16 0
BBX 13 19 2 0
BITMAP
FFF8
FFF8
C000
C000
C000
C000
C000
C000
FFF8
FFF8
C000
C000
C000
C000
C000
C000
C000
FFF8
FFF8
ENDCHAR
STARTCHAR 0416
ENCODING 1046
SWIDTH 960 0
DWIDTH 24 0
BBX 24 19 0 0
BITMAP
70180E
78181E
1C1838
0C1830
061860
061860
0718E0
0399C0
01FF80
01FF80
0399C0
0318C0
061860
0E1870
1C1838
181818
30180C
70180E
E01807
ENDCHAR
STARTCHAR 0417
ENCODING 1047
SWIDTH 600 0
DWIDTH 15 0
BBX 13 19 1 0
BITMAP
1FC0
7FF0
7070
4018
0018
0018
0030
0070
1FC0
1FE0
0070
0038
0018
0018
0018
8038
E070
FFE0
3F80
ENDCHAR
STARTCHAR 0418
ENCODING 1048
SWIDTH 760 0
DWIDTH 19 0
BBX 15 19 2 0
BITMAP
C00E
C00E
C01E
C03E
C036
C066
C0E6
C0C6
C186
C386
C706
C606
CE06
DC06
D806
F806
F006
E006
C006
ENDCHAR
STARTCHAR 0419
ENCODING 1049
SWIDTH 760 0
DWIDTH 19 0
BBX 15 24 2 0
BITMAP
1818
1C38
0FF0
07E0
0000
C00E
C00E
C01E
C03E
C036
C066
C0E6
C0C6
C186
C386
C706
C606
CE06
DC06
D806
F806
F006
E006
C006
ENDCHAR
STARTCHAR 041A
ENCODING 1050
SWIDTH 680 0
DWIDTH 17 0
BBX 15 19 2 0
BITMAP
C03C
C07C
C0E0
C1C0
C180
C180
C300
C700
CE00
FC00
FE00
C700
C380
C1C0
C0E0
C070
C038
C01C
C00E
ENDCHAR
STARTCHAR 041B
ENCODING 1051
SWIDTH 720 0
DWIDTH 18 0
BBX 16 19 0 0
BITMAP
0FFF
0FFF
0C03
0C03
0C03
0C03
0C03
0C03
0C03
0C03
0C03
1C03
1803
1803
1803
1803
3003
F003
E003
ENDCHAR
STARTCHAR 041C
ENCODING 1052
SWIDTH 840 0
DWIDTH 21 0
BBX 17 19 2 0
BITMAP
E00380
F00780
F00780
F80F80
D80D80
DC1D80
CC1980
CE3980
C63180
C77180
C36180
C3E180
C1C180
C1C180
C00180
C00180
C00180
C00180
C00180
ENDCHAR
STARTCHAR 041D
ENCODING 1053
SWIDTH 760 0
DWIDTH 19 0
BBX 15 19 2 0
BITMAP
C006
C006
C006
C006
C006
C006
C006
C006
FFFE
FFFE
C006
C006
C006
C006
C006
C006
C006
C006
C006
ENDCHAR
STARTCHAR 041E
ENCODING 1054
SWIDTH 800 0
DWIDTH 20 0
BBX 18 19 1 0
BITMAP
03F000
0FFC00
3C0F00
300300
600180
600180
C000C0
C000C0
C000C0
C000C0
C000C0
C000C0
C000C0
600180
600180
300300
3C0F00
0FFC00
03F000
ENDCHAR
STARTCHAR 041F
ENCODING 1055
SWIDTH 760 0
DWIDTH 19 0
BBX 15 19 2 0
BITMAP
FFFE
FFFE
C006
C006
C006
C006
C006
C006
C006
C006
C006
C006
C006
C006
C006
C006
C006
C006
C006
ENDCHAR
STARTCHAR 0420
ENCODING 1056
SWIDTH 600 0
DWIDTH 15 0
BBX 12 19 2 0
BITMAP
FF00
FFC0
C0E0
C070
C030
C030
C030
C030
C060
C0E0
FFC0
FF00
C000
C000
C000
C000
C000
C000
C000
ENDCHAR
STARTCHAR 0421
ENCODING 1057
SWIDTH 680 0
DWIDTH 17 0
BBX 15 19 1 0
BITMAP
03F0
0FFE
3C0E
3002
6000
6000
C000
C000
C000
C000
C000
C000
C000
6000
6000
3002
3C0E
1FFE
03F0
ENDCHAR
STARTCHAR 0422
ENCODING 1058
SWIDTH 600 0
DWIDTH 15 0
BBX 16 19 0 0
BITMAP
FFFF
FFFF
0180
0180
0180
0180
0180
0180
0180
0180
0180
0180
0180
0180
0180
0180
0180
0180
0180
ENDCHAR
STARTCHAR 0423
ENCODING 1059
SWIDTH 600 0
DWIDTH 15 0
BBX 15 19 0 0
BITMAP
C006
600C
600C
301C
3018
1838
1830
0C30
0C60
0660
06E0
07C0
03C0
0380
0180
0300
0700
3E00
3C00
ENDCHAR
STARTCHAR 0424
ENCODING 1060
SWIDTH 800 0
DWIDTH 20 0
BBX 18 19 1 0
BITMAP
00C000
00C000
07F800
1FFE00
38C700
70C380
60C180
C0C0C0
C0C0C0
C0C0C0
C0C0C0
C0C0C0
60C180
70C380
38C700
1FFE00
07F800
00C000
00C000
ENDCHAR
STARTCHAR 0425
ENCODING 1061
SWIDTH 680 0
DWIDTH 17 0
BBX 15 19 1 0
BITMAP
E00E
600C
3018
3838
1830
0C60
0EE0
06C0
07C0
0380
07C0
06C0
0EE0
0C70
1830
3838
3018
600C
E00E
ENDCHAR
STARTCHAR 0426
ENCODING 1062
SWIDTH 760 0
DWIDTH 19 0
BBX 16 23 2 -4
BITMAP
C006
C006
C006
C006
C006
C006
C006
C006
C006
C006
C006
C006
C006
C006
C006
C006
C006
FFFF
FFFF
0003
0003
0003
0003
ENDCHAR
STARTCHAR 0427
ENCODING 1063
SWIDTH 720 0
DWIDTH 18 0
BBX 14 19 2 0
BITMAP
C00C
C00C
C00C
C00C
C00C
C00C
C00C
C00C
E00C
703C
3FFC
1FCC
000C
000C
000C
000C
000C
000C
000C
ENDCHAR
STARTCHAR 0428
ENCODING 1064
SWIDTH 1040 0
DWIDTH 26 0
BBX 20 19 3 0
BITMAP
C06030
C06030
C06030
C06030
C06030
C06030
C06030
C06030
C06030
C06030
C06030
C06030
C06030
C06030
C06030
C06030
C06030
FFFFF0
FFFFF0
ENDCHAR
STARTCHAR 0429
ENCODING 1065
SWIDTH 1040 0
DWIDTH 26 0
BBX 21 23 3 -4
BITMAP
C06030
C06030
C06030
C06030
C06030
C06030
C06030
C06030
C06030
C06030
C06030
C06030
C06030
C06030
C06030
C06030
C06030
FFFFF8
FFFFF8
000018
000018
000018
000018
ENDCHAR
STARTCHAR 042A
ENCODING 1066
SWIDTH 800 0
DWIDTH 20 0
BBX 19 19 0 0
BITMAP
FE0000
FE0000
060000
060000
060000
060000
060000
07FF00
07FF80
0601C0
0600E0
060060
060060
060060
060060
0600C0
0601C0
07FF80
07FE00
ENDCHAR
STARTCHAR 042B
ENCODING 1067
SWIDTH 920 0
DWIDTH 23 0
BBX 19 19 2 0
BITMAP
C00060
C00060
C00060
C00060
C00060
C00060
C00060
FFE060
FFF860
C01C60
C00E60
C00660
C00660
C00660
C00660
C00C60
C01C60
FFF860
FFE060
ENDCHAR
STARTCHAR 042C
ENCODING 1068
SWIDTH 680 0
DWIDTH 17 0
BBX 14 19 2 0
BITMAP
C000
C000
C000
C000
C000
C000
C000
FFE0
FFF0
C038
C01C
C00C
C00C
C00C
C00C
C018
C038
FFF0
FFC0
ENDCHAR
STARTCHAR 042D
ENCODING 1069
SWIDTH 720 0
DWIDTH 18 0
BBX 16 19 1 0
BITMAP
3FC0
FFF0
E03C
801C
000E
0006
0003
0003
1FFF
1FFF
0003
0003
0003
0006
000E
801C
E038
FFF0
3FC0
ENDCHAR
STARTCHAR 042E
ENCODING 1070
SWIDTH 1040 0
DWIDTH 26 0
BBX 23 19 2 0
BITMAP
C01FC0
C07FF0
C0F078
C0C018
C1800C
C1800C
C30006
C30006
FF0006
FF0006
C30006
C30006
C30006
C1800C
C1800C
C1C018
C0F078
C07FF0
C01FC0
ENDCHAR
STARTCHAR 042F
ENCODING 1071
SWIDTH 720 0
DWIDTH 18 0
BBX 15 19 1 0
BITMAP
07FE
0FFE
1C06
3806
3006
3006
3006
3806
1C06
0FFE
03FE
0306
0606
0E06
1C06
1806
3006
7006
E006
ENDCHAR
STARTCHAR 0430
ENCODING 1072
SWIDTH 600 0
DWIDTH 15 0
BBX 12 14 1 0
BITMAP
3F80
7FE0
6070
0030
0030
07F0
3FF0
7830
E030
C030
C030
E0F0
7FF0
3F30
ENDCHAR
STARTCHAR 0431
ENCODING 1073
SWIDTH 600 0
DWIDTH 15 0
BBX 13 20 1 0
BITMAP
01F0
0FF0
3E00
3000
6000
6000
CF80
FFE0
F070
C030
C018
C018
C018
C018
C018
6038
6030
3860
3FE0
0F80
ENDCHAR
STARTCHAR 0432
ENCODING 1074
SWIDTH 600 0
DWIDTH 15 0
BBX 12 14 2 0
BITMAP
FF80
FFC0
C0E0
C060
C060
C0C0
FF80
FFE0
C070
C030
C030
C070
FFE0
FF80
ENDCHAR
STARTCHAR 0433
ENCODING 1075
SWIDTH 480 0
DWIDTH 12 0
BBX 10 14 2 0
BITMAP
FFC0
FFC0
C000
C000
C000
C000
C000
C000
C000
C000
C000
C000
C000
C000
ENDCHAR
STARTCHAR 0434
ENCODING 1076
SWIDTH 640 0
DWIDTH 16 0
BBX 15 17 0 -3
BITMAP
0FF8
0FF8
0C18
0C18
0C18
1C18
1818
1818
1818
3018
3018
6018
FFFE
FFFE
C006
C006
C006
ENDCHAR
STARTCHAR 0435
ENCODING 1077
SWIDTH 600 0
DWIDTH 15 0
BBX 13 14 1 0
BITMAP
0FC0
3FE0
7070
6030
C018
C018
FFF8
FFF8
C000
C000
6008
7038
3FF8
0FE0
ENDCHAR
STARTCHAR 0436
ENCODING 1078
SWIDTH 800 0
DWIDTH 20 0
BBX 18 14 1 0
BITMAP
E0C380
F0C780
38C600
18C600
1CCE00
0CDC00
0FF800
07F800
0ECC00
1CCE00
18C600
30C300
70C380
E0C1C0
ENDCHAR
STARTCHAR 0437
ENCODING 1079
SWIDTH 520 0
DWIDTH 13 0
BBX 11 14 1 0
BITMAP
3F00
7FC0
40E0
0060
0060
00C0
1F80
1FC0
00E0
0060
8060
E0E0
FFC0
3F00
ENDCHAR
STARTCHAR 0438
ENCODING 1080
SWIDTH 640 0
DWIDTH 16 0
BBX 12 14 2 0
BITMAP
C030
C070
C0F0
C1F0
C1B0
C330
C630
CE30
CC30
D830
F030
F030
E030
C030
ENDCHAR
STARTCHAR 0439
ENCODING 1081
SWIDTH 640 0
DWIDTH 16 0
BBX 12 20 2 0
BITMAP
3060
3060
18C0
0F80
0000
0000
C030
C070
C0F0
C1F0
C1B0
C330
C630
CE30
CC30
D830
F030
F030
E030
C030
ENDCHAR
STARTCHAR 043A
ENCODING 1082
SWIDTH 600 0
DWIDTH 15 0
BBX 13 14 2 0
BITMAP
C0F0
C1F0
C380
C300
C700
CE00
FC00
FE00
C700
C380
C1C0
C0C0
C060
C038
ENDCHAR
STARTCHAR 043B
ENCODING 1083
SWIDTH 640 0
DWIDTH 16 0
BBX 14 14 0 0
BITMAP
0FFC
0FFC
0C0C
0C0C
0C0C
0C0C
0C0C
0C0C
1C0C
180C
180C
380C
F00C
E00C
ENDCHAR
STARTCHAR 043C
ENCODING 1084
SWIDTH 680 0
DWIDTH 17 0
BBX 13 14 2 0
BITMAP
E038
E038
F078
F078
D8D8
D8D8
CD98
CD98
C718
C718
C018
C018
C018
C018
ENDCHAR
STARTCHAR 043D
ENCODING 1085
SWIDTH 640 0
DWIDTH 16 0
BBX 12 14 2 0
BITMAP
C030
C030
C030
C030
C030
C030
FFF0
FFF0
C030
C030
C030
C030
C030
C030
ENDCHAR
STARTCHAR 043E
ENCODING 1086
SWIDTH 600 0
DWIDTH 15 0
BBX 13 14 1 0
BITMAP
0F80
3FE0
7070
6030
C018
C018
C018
C018
C018
C018
6030
7070
3FE0
0F80
ENDCHAR
STARTCHAR 043F
ENCODING 1087
SWIDTH 640 0
DWIDTH 16 0
BBX 12 14 2 0
BITMAP
FFF0
FFF0
C030
C030
C030
C030
C030
C030
C030
C030
C030
C030
C030
C030
ENDCHAR
STARTCHAR 0440
ENCODING 1088
SWIDTH 640 0
DWIDTH 16 0
BBX 13 19 2 -5
BITMAP
CFC0
FFE0
F070
C030
C018
C018
C018
C018
C018
C038
C030
E0F0
FFE0
DF80
C000
C000
C000
C000
C000
ENDCHAR
STARTCHAR 0441
ENCODING 1089
SWIDTH 520 0
DWIDTH 13 0
BBX 11 14 1 0
BITMAP
0F80
3FE0
7060
6020
C000
C000
C000
C000
C000
C000
6020
7060
3FE0
0F80
ENDCHAR
STARTCHAR 0442
ENCODING 1090
SWIDTH 480 0
DWIDTH 12 0
BBX 12 14 0 0
BITMAP
FFF0
FFF0
0600
0600
0600
0600
0600
0600
0600
0600
0600
0600
0600
0600
ENDCHAR
STARTCHAR 0443
ENCODING 1091
SWIDTH 600 0
DWIDTH 15 0
BBX 13 19 1 -5
BITMAP
C018
6030
6030
7070
3060
38E0
18C0
18C0
1DC0
0D80
0F80
0700
0700
0600
0600
0E00
0C00
0C00
1800
ENDCHAR
STARTCHAR 0444
ENCODING 1092
SWIDTH 840 0
DWIDTH 21 0
BBX 18 25 1 -5
BITMAP
00C000
00C000
00C000
00C000
00C000
00C000
1EDE00
3FFF00
70C380
60C180
C0C0C0
C0C0C0
C0C0C0
C0C0C0
C0C0C0
C0C0C0
60C180
70C380
3FFF00
1EDE00
00C000
00C000
00C000
00C000
00C000
ENDCHAR
STARTCHAR 0445
ENCODING 1093
SWIDTH 600 0
DWIDTH 15 0
BBX 13 14 1 0
BITMAP
E038
7070
3060
18C0
1DC0
0F80
0700
0700
0F80
1DC0
18C0
3060
7070
E038
ENDCHAR
STARTCHAR 0446
ENCODING 1094
SWIDTH 640 0
DWIDTH 16 0
BBX 13 17 2 -3
BITMAP
C060
C060
C060
C060
C060
C060
C060
C060
C060
C060
C060
C060
FFF8
FFF8
0018
0018
0018
ENDCHAR
STARTCHAR 0447
ENCODING 1095
SWIDTH 600 0
DWIDTH 15 0
BBX 11 14 2 0
BITMAP
C060
C060
C060
C060
C060
C060
E060
7FE0
3F60
0060
0060
0060
0060
0060
ENDCHAR
STARTCHAR 0448
ENCODING 1096
SWIDTH 880 0
DWIDTH 22 0
BBX 18 14 2 0
BITMAP
C0C0C0
C0C0C0
C0C0C0
C0C0C0
C0C0C0
C0C0C0
C0C0C0
C0C0C0
C0C0C0
C0C0C0
C0C0C0
C0C0C0
FFFFC0
FFFFC0
ENDCHAR
STARTCHAR 0449
ENCODING 1097
SWIDTH 880 0
DWIDTH 22 0
BBX 20 17 2 -3
BITMAP
C0C0C0
C0C0C0
C0C0C0
C0C0C0
C0C0C0
C0C0C0
C0C0C0
C0C0C0
C0C0C0
C0C0C0
C0C0C0
C0C0C0
FFFFF0
FFFFF0
000030
000030
000030
ENDCHAR
STARTCHAR 044A
ENCODING 1098
SWIDTH 640 0
DWIDTH 16 0
BBX 15 14 0 0
BITMAP
FC00
FC00
0C00
0C00
0C00
0FF8
0FFC
0C0E
0C06
0C06
0C06
0C0E
0FFC
0FF0
ENDCHAR
STARTCHAR 044B
ENCODING 1099
SWIDTH 800 0
DWIDTH 20 0
BBX 16 14 2 0
BITMAP
C003
C003
C003
C003
C003
FF83
FFE3
C073
C033
C033
C033
C063
FFE3
FF83
ENDCHAR
STARTCHAR 044C
ENCODING 1100
SWIDTH 560 0
DWIDTH 14 0
BBX 11 14 2 0
BITMAP
C000
C000
C000
C000
C000
FF80
FFC0
C0E0
C060
C060
C060
C0E0
FFC0
FF00
ENDCHAR
STARTCHAR 044D
ENCODING 1101
SWIDTH 560 0
DWIDTH 14 0
BBX 12 14 1 0
BITMAP
3F00
FFC0
E1E0
8060
0030
0030
3FF0
3FF0
0030
0030
0060
C0C0
FF80
7F00
ENDCHAR
STARTCHAR 044E
ENCODING 1102
SWIDTH 840 0
DWIDTH 21 0
BBX 18 14 2 0
BITMAP
C07C00
C1FF00
C38380
C30180
C600C0
C600C0
FE00C0
FE00C0
C600C0
C600C0
C30180
C38380
C1FF00
C07C00
ENDCHAR
STARTCHAR 044F
ENCODING 1103
SWIDTH 600 0
DWIDTH 15 0
BBX 12 14 1 0
BITMAP
1FF0
3FF0
7030
6030
6030
7030
3FF0
0FF0
0E30
1C30
1830
3030
7030
E030
ENDCHAR
STARTCHAR 0451
ENCODING 1105
SWIDTH 600 0
DWIDTH 15 0
BBX 13 18 1 0
BITMAP
18C0
18C0
0000
0000
0FC0
3FE0
7070
6030
C018
C018
FFF8
FFF8
C000
C000
6008
7038
3FF8
0FE0
ENDCHAR
STARTCHAR 0452
ENCODING 1106
SWIDTH 640 0
DWIDTH 16 0
BBX 14 25 0 -5
BITMAP
3000
3000
FF00
FF00
3000
3000
33E0
37F8
3C18
300C
300C
300C
300C
300C
300C
300C
300C
300C
300C
300C
0018
0018
0070
03E0
03C0
ENDCHAR
STARTCHAR 0453
ENCODING 1107
SWIDTH 480 0
DWIDTH 12 0
BBX 10 21 2 0
BITMAP
0700
0E00
0C00
0C00
1800
0000
0000
FFC0
FFC0
C000
C000
C000
C000
C000
C000
C000
C000
C000
C000
C000
C000
ENDCHAR
STARTCHAR 0454
ENCODING 1108
SWIDTH 560 0
DWIDTH 14 0
BBX 12 14 1 0
BITMAP
0FC0
3FF0
7870
6010
E000
C000
FFC0
FFC0
C000
C000
6000
7010
3FF0
0FE0
ENDCHAR
STARTCHAR 0455
ENCODING 1109
SWIDTH 520 0
DWIDTH 13 0
BBX 11 14 1 0
BITMAP
1F80
7FC0
E0C0
C000
C000
F000
7F00
1FC0
00E0
0060
8060
E0E0
FFC0
3F00
ENDCHAR
STARTCHAR 0456
ENCODING 1110
SWIDTH 240 0
DWIDTH 6 0
BBX 2 19 2 0
BITMAP
C0
C0
00
00
00
C0
C0
C0
C0
C0
C0
C0
C0
C0
C0
C0
C0
C0
C0
ENDCHAR
STARTCHAR 0457
ENCODING 1111
SWIDTH 240 0
DWIDTH 6 0
BBX 6 18 0 0
BITMAP
CC
CC
00
00
30
30
30
30
30
30
30
30
30
30
30
30
30
30
ENDCHAR
STARTCHAR 0458
ENCODING 1112
SWIDTH 360 0
DWIDTH 9 0
BBX 7 24 0 -5
BITMAP
06
06
00
00
00
3E
3E
06
06
06
06
06
06
06
06
06
06
06
06
06
06
0E
FC
F8
ENDCHAR
STARTCHAR 0459
ENCODING 1113
SWIDTH 920 0
DWIDTH 23 0
BBX 22 14 0 0
BITMAP
0FF800
0FF800
0C1800
0C1800
0C1800
0C1FF0
0C1FF8
0C181C
1C180C
18180C
18180C
38181C
F01FF8
E01FE0
ENDCHAR
STARTCHAR 045A
ENCODING 1114
SWIDTH 920 0
DWIDTH 23 0
BBX 20 14 2 0
BITMAP
C06000
C06000
C06000
C06000
C06000
FFFFC0
FFFFE0
C06070
C06030
C06030
C06030
C06070
C07FE0
C07F80
ENDCHAR
STARTCHAR 045B
ENCODING 1115
SWIDTH 640 0
DWIDTH 16 0
BBX 14 20 0 0
BITMAP
3000
3000
FF00
FF00
3000
3000
33E0
37F8
3C18
300C
300C
300C
300C
300C
300C
300C
300C
300C
300C
300C
ENDCHAR
STARTCHAR 045C
ENCODING 1116
SWIDTH 600 0
DWIDTH 15 0
BBX 13 21 2 0
BITMAP
01C0
0380
0300
0300
0600
0000
0000
C0F0
C1F0
C380
C300
C700
CE00
FC00
FE00
C700
C380
C1C0
C0C0
C060
C038
ENDCHAR
STARTCHAR 045E
ENCODING 1118
SWIDTH 600 0
DWIDTH 15 0
BBX 13 25 1 -5
BITMAP
3060
3060
18C0
0F80
0000
0000
C018
6030
6030
7070
3060
38E0
18C0
18C0
1DC0
0D80
0F80
0700
0700
0600
0600
0E00
0C00
0C00
1800
ENDCHAR
STARTCHAR 045F
ENCODING 1119
SWIDTH 640 0
DWIDTH 16 0
BBX 12 17 2 -3
BITMAP
C030
C030
C030
C030
C030
C030
C030
C030
C030
C030
C030
C030
FFF0
FFF0
0600
0600
0600
ENDCHAR
STARTCHAR 0490
ENCODING 1168
SWIDTH 560 0
DWIDTH 14 0
BBX 12 24 2 0
BITMAP
0030
0030
0030
0030
0030
FFF0
FFF0
C000
C000
C000
C000
C000
C000
C000
C000
C000
C000
C000
C000
C000
C000
C000
C000
C000
ENDCHAR
STARTCHAR 0491
ENCODING 1169
SWIDTH 480 0
DWIDTH 12 0
BBX 10 19 2 0
BITMAP
00C0
00C0
00C0
00C0
00C0
FFC0
FFC0
C000
C000
C000
C000
C000
C000
C000
C000
C000
C000
C000
C000
ENDCHAR
STARTCHAR 1E80
ENCODING 7808
SWIDTH 1000 0
DWIDTH 25 0
BBX 23 26 1 0
BITMAP
00E000
007000
003000
003000
001800
000000
000000
C03806
C03806
60380C
606C0C
606C0C
706C1C
306C18
30C618
30C618
38C638
18C630
198330
1D8330
0D8370
0D8360
0D81E0
0F01E0
0701E0
0701C0
ENDCHAR
STARTCHAR 1E81
ENCODING 7809
SWIDTH 800 0
DWIDTH 20 0
BBX 18 21 1 0
BITMAP
070000
038000
018000
018000
00C000
000000
000000
C0C0C0
C0C0C0
61E180
61E180
61E180
633180
333300
333300
361B00
361B00
1E1E00
1C0E00
1C0E00
1C0E00
ENDCHAR
STARTCHAR 1E82
ENCODING 7810
SWIDTH 1000 0
DWIDTH 25 0
BBX 23 26 1 0
BITMAP
000700
000E00
000C00
000C00
001800
000000
000000
C03806
C03806
60380C
606C0C
606C0C
706C1C
306C18
30C618
30C618
38C638
18C630
198330
1D8330
0D8370
0D8360
0D81E0
0F01E0
0701E0
0701C0
ENDCHAR
STARTCHAR 1E83
ENCODING 7811
SWIDTH 800 0
DWIDTH 20 0
BBX 18 21 1 0
BITMAP
003800
007000
006000
006000
00C000
000000
000000
C0C0C0
C0C0C0
61E180
61E180
61E180
633180
333300
333300
361B00
361B00
1E1E00
1C0E00
1C0E00
1C0E00
ENDCHAR
STARTCHAR 1E84
ENCODING 7812
SWIDTH 1000 0
DWIDTH 25 0
BBX 23 23 1 0
BITMAP
00C600
00C600
000000
000000
C03806
C03806
60380C
606C0C
606C0C
706C1C
306C18
30C618
30C618
38C638
18C630
198330
1D8330
0D8370
0D8360
0D81E0
0F01E0
0701E0
0701C0
ENDCHAR
STARTCHAR 1E85
ENCODING 7813
SWIDTH 800 0
DWIDTH 20 0
BBX 18 18 1 0
BITMAP
031800
031800
000000
000000
C0C0C0
C0C0C0
61E180
61E180
61E180
633180
333300
333300
361B00
361B00
1E1E00
1C0E00
1C0E00
1C0E00
ENDCHAR
STARTCHAR 1EA0
ENCODING 7840
SWIDTH 680 0
DWIDTH 17 0
BBX 17 23 0 -4
BITMAP
01C000
036000
036000
036000
063000
063000
0E3800
0C1800
0C1800
180C00
180C00
180C00
3FFE00
3FFE00
300600
600300
600300
600300
C00180
000000
000000
00C000
00C000
ENDCHAR
STARTCHAR 1EA1
ENCODING 7841
SWIDTH 600 0
DWIDTH 15 0
BBX 12 18 1 -4
BITMAP
3F80
7FE0
6070
0030
0030
07F0
3FF0
7830
E030
C030
C030
E0F0
7FF0
3F30
0000
0000
0600
0600
ENDCHAR
STARTCHAR 1EA2
ENCODING 7842
SWIDTH 680 0
DWIDTH 17 0
BBX 17 26 0 0
BITMAP
01C000
006000
006000
00C000
008000
000000
000000
01C000
036000
036000
036000
063000
063000
0E3800
0C1800
0C1800
180C00
180C00
180C00
3FFE00
3FFE00
300600
600300
600300
600300
C00180
ENDCHAR
STARTCHAR 1EA3
ENCODING 7843
SWIDTH 600 0
DWIDTH 15 0
BBX 12 21 1 0
BITMAP
0700
0180
0180
0300
0200
0000
0000
3F80
7FE0
6070
0030
0030
07F0
3FF0
7830
E030
C030
C030
E0F0
7FF0
3F30
ENDCHAR
STARTCHAR 1EA4
ENCODING 7844
SWIDTH 680 0
DWIDTH 17 0
BBX 17 25 0 0
BITMAP
01E380
01E300
033600
033000
061800
000000
01C000
036000
036000
036000
063000
063000
0E3800
0C1800
0C1800
180C00
180C00
180C00
3FFE00
3FFE00
300600
600300
600300
600300
C00180
ENDCHAR
STARTCHAR 1EA5
ENCODING 7845
SWIDTH 600 0
DWIDTH 15 0
BBX 15 21 1 0
BITMAP
078E
078C
0CD8
0CC0
1860
0000
0000
3F80
7FE0
6070
0030
0030
07F0
3FF0
7830
E030
C030
C030
E0F0
7FF0
3F30
ENDCHAR
STARTCHAR 1EA6
ENCODING 7846
SWIDTH 680 0
DWIDTH 17 0
BBX 17 25 0 0
BITMAP
71E000
31E000
1B3000
033000
061800
000000
01C000
036000
036000
036000
063000
063000
0E3800
0C1800
0C1800
180C00
180C00
180C00
3FFE00
3FFE00
300600
600300
600300
600300
C00180
ENDCHAR
STARTCHAR 1EA7
ENCODING 7847
SWIDTH 600 0
DWIDTH 15 0
BBX 13 21 0 0
BITMAP
E3C0
63C0
3660
0660
0C30
0000
0000
1FC0
3FF0
3038
0018
0018
03F8
1FF8
3C18
7018
6018
6018
7078
3FF8
1F98
ENDCHAR
STARTCHAR 1EA8
ENCODING 7848
SWIDTH 680 0
DWIDTH 17 0
BBX 17 25 0 0
BITMAP
000700
01E180
01E180
033300
061A00
000000
01C000
036000
036000
036000
063000
063000
0E3800
0C1800
0C1800
180C00
180C00
180C00
3FFE00
3FFE00
300600
600300
600300
600300
C00180
ENDCHAR
STARTCHAR 1EA9
ENCODING 7849
SWIDTH 600 0
DWIDTH 15 0
BBX 14 24 1 0
BITMAP
0038
000C
000C
0798
0790
0CC0
0CC0
1860
0000
0000
3F80
7FE0
6070
0030
0030
07F0
3FF0
7830
E030
C030
C030
E0F0
7FF0
3F30
ENDCHAR
STARTCHAR 1EAA
ENCODING 7850
SWIDTH 680 0
DWIDTH 17 0
BBX 17 25 0 0
BITMAP
039800
067000
000000
01E000
033000
000000
01C000
036000
036000
036000
063000
063000
0E3800
0C1800
0C1800
180C00
180C00
180C00
3FFE00
3FFE00
300600
600300
600300
600300
C00180
ENDCHAR
STARTCHAR 1EAB
ENCODING 7851
SWIDTH 600 0
DWIDTH 15 0
BBX 12 25 1 0
BITMAP
0E60
1FE0
19C0
0000
0780
0780
0CC0
0CC0
1860
0000
0000
3F80
7FE0
6070
0030
0030
07F0
3FF0
7830
E030
C030
C030
E0F0
7FF0
3F30
ENDCHAR
STARTCHAR 1EAC
ENCODING 7852
SWIDTH 680 0
DWIDTH 17 0
BBX 17 29 0 -4
BITMAP
01E000
01E000
033000
033000
061800
000000
01C000
036000
036000
036000
063000
063000
0E3800
0C1800
0C1800
180C00
180C00
180C00
3FFE00
3FFE00
300600
600300
600300
600300
C00180
000000
000000
00C000
00C000
ENDCHAR
STARTCHAR 1EAD
ENCODING 7853
SWIDTH 600 0
DWIDTH 15 0
BBX 12 25 1 -4
BITMAP
0780
0780
0CC0
0CC0
1860
0000
0000
3F80
7FE0
6070
0030
0030
07F0
3FF0
7830
E030
C030
C030
E0F0
7FF0
3F30
0000
0000
0600
0600
ENDCHAR
STARTCHAR 1EAE
ENCODING 7854
SWIDTH 680 0
DWIDTH 17 0
BBX 17 25 0 0
BITMAP
006000
00C000
061800
033000
01E000
000000
01C000
036000
036000
036000
063000
063000
0E3800
0C1800
0C1800
180C00
180C00
180C00
3FFE00
3FFE00
300600
600300
600300
600300
C00180
ENDCHAR
STARTCHAR 1EAF
ENCODING 7855
SWIDTH 600 0
DWIDTH 15 0
BBX 12 22 1 0
BITMAP
01C0
0180
0300
1860
1860
0FC0
0780
0000
3F80
7FE0
6070
0030
0030
07F0
3FF0
7830
E030
C030
C030
E0F0
7FF0
3F30
ENDCHAR
STARTCHAR 1EB0
ENCODING 7856
SWIDTH 680 0
DWIDTH 17 0
BBX 17 25 0 0
BITMAP
018000
00C000
061800
033000
01E000
000000
01C000
036000
036000
036000
063000
063000
0E3800
0C1800
0C1800
180C00
180C00
180C00
3FFE00
3FFE00
300600
600300
600300
600300
C00180
ENDCHAR
STARTCHAR 1EB1
ENCODING 7857
SWIDTH 600 0
DWIDTH 15 0
BBX 12 22 1 0
BITMAP
0E00
0600
0300
1860
1860
0FC0
0780
0000
3F80
7FE0
6070
0030
0030
07F0
3FF0
7830
E030
C030
C030
E0F0
7FF0
3F30
ENDCHAR
STARTCHAR 1EB2
ENCODING 7858
SWIDTH 680 0
DWIDTH 17 0
BBX 17 25 0 0
BITMAP
01C000
004000
069800
033000
01E000
000000
01C000
036000
036000
036000
063000
063000
0E3800
0C1800
0C1800
180C00
180C00
180C00
3FFE00
3FFE00
300600
600300
600300
600300
C00180
ENDCHAR
STARTCHAR 1EB3
ENCODING 7859
SWIDTH 600 0
DWIDTH 15 0
BBX 12 23 1 0
BITMAP
0300
0180
0180
0180
1860
1860
0FC0
0780
0000
3F80
7FE0
6070
0030
0030
07F0
3FF0
7830
E030
C030
C030
E0F0
7FF0
3F30
ENDCHAR
STARTCHAR 1EB4
ENCODING 7860
SWIDTH 680 0
DWIDTH 17 0
BBX 17 25 0 0
BITMAP
039800
067000
000000
061800
03F000
000000
01C000
036000
036000
036000
063000
063000
0E3800
0C1800
0C1800
180C00
180C00
180C00
3FFE00
3FFE00
300600
600300
600300
600300
C00180
ENDCHAR
STARTCHAR 1EB5
ENCODING 7861
SWIDTH 600 0
DWIDTH 15 0
BBX 12 24 1 0
BITMAP
0E60
1FE0
19C0
0000
0000
1860
1860
0FC0
0780
0000
3F80
7FE0
6070
0030
0030
07F0
3FF0
7830
E030
C030
C030
E0F0
7FF0
3F30
ENDCHAR
STARTCHAR 1EB6
ENCODING 7862
SWIDTH 680 0
DWIDTH 17 0
BBX 17 30 0 -4
BITMAP
0C1800
0C1800
063000
07F000
03E000
000000
000000
01C000
036000
036000
036000
063000
063000
0E3800
0C1800
0C1800
180C00
180C00
180C00
3FFE00
3FFE00
300600
600300
600300
600300
C00180
000000
000000
00C000
00C000
ENDCHAR
STARTCHAR 1EB7
ENCODING 7863
SWIDTH 600 0
DWIDTH 15 0
BBX 12 25 1 -4
BITMAP
3060
3060
18C0
1FC0
0F80
0000
0000
3F80
7FE0
6070
0030
0030
07F0
3FF0
7830
E030
C030
C030
E0F0
7FF0
3F30
0000
0000
0600
0600
ENDCHAR
STARTCHAR 1EB8
ENCODING 7864
SWIDTH 640 0
DWIDTH 16 0
BBX 13 23 2 -4
BITMAP
FFF8
FFF8
C000
C000
C000
C000
C000
C000
FFF8
FFF8
C000
C000
C000
C000
C000
C000
C000
FFF8
FFF8
0000
0000
0300
0300
ENDCHAR
STARTCHAR 1EB9
ENCODING 7865
SWIDTH 600 0
DWIDTH 15 0
BBX 13 18 1 -4
BITMAP
0FC0
3FE0
7070
6030
C018
C018
FFF8
FFF8
C000
C000
6008
7038
3FF8
0FE0
0000
0000
0300
0300
ENDCHAR
STARTCHAR 1EBA
ENCODING 7866
SWIDTH 640 0
DWIDTH 16 0
BBX 13 26 2 0
BITMAP
0700
0180
0180
0300
0200
0000
0000
FFF8
FFF8
C000
C000
C000
C000
C000
C000
FFF8
FFF8
C000
C000
C000
C000
C000
C000
C000
FFF8
FFF8
ENDCHAR
STARTCHAR 1EBB
ENCODING 7867
SWIDTH 600 0
DWIDTH 15 0
BBX 13 21 1 0
BITMAP
0700
0180
0180
0300
0200
0000
0000
0FC0
3FE0
7070
6030
C018
C018
FFF8
FFF8
C000
C000
6008
7038
3FF8
0FE0
ENDCHAR
STARTCHAR 1EBC
ENCODING 7868
SWIDTH 640 0
DWIDTH 16 0
BBX 13 25 2 0
BITMAP
1C30
1F30
33E0
31E0
0000
0000
FFF8
FFF8
C000
C000
C000
C000
C000
C000
FFF8
FFF8
C000
C000
C000
C000
C000
C000
C000
FFF8
FFF8
ENDCHAR
STARTCHAR 1EBD
ENCODING 7869
SWIDTH 600 0
DWIDTH 15 0
BBX 13 20 1 0
BITMAP
1C30
1F30
33E0
31E0
0000
0000
0FC0
3FE0
7070
6030
C018
C018
FFF8
FFF8
C000
C000
6008
7038
3FF8
0FE0
ENDCHAR
STARTCHAR 1EBE
ENCODING 7870
SWIDTH 640 0
DWIDTH 16 0
BBX 15 26 2 0
BITMAP
078E
078C
0CD8
0CC0
1860
0000
0000
FFF8
FFF8
C000
C000
C000
C000
C000
C000
FFF8
FFF8
C000
C000
C000
C000
C000
C000
C000
FFF8
FFF8
ENDCHAR
STARTCHAR 1EBF
ENCODING 7871
SWIDTH 600 0
DWIDTH 15 0
BBX 15 21 1 0
BITMAP
078E
078C
0CD8
0CC0
1860
0000
0000
0FC0
3FE0
7070
6030
C018
C018
FFF8
FFF8
C000
C000
6008
7038
3FF8
0FE0
ENDCHAR
STARTCHAR 1EC0
ENCODING 7872
SWIDTH 640 0
DWIDTH 16 0
BBX 14 26 1 0
BITMAP
E3C0
63C0
3660
0660
0C30
0000
0000
7FFC
7FFC
6000
6000
6000
6000
6000
6000
7FFC
7FFC
6000
6000
6000
6000
6000
6000
6000
7FFC
7FFC
ENDCHAR
STARTCHAR 1EC1
ENCODING 7873
SWIDTH 600 0
DWIDTH 15 0
BBX 14 21 0 0
BITMAP
E3C0
63C0
3660
0660
0C30
0000
0000
07E0
1FF0
3838
3018
600C
600C
7FFC
7FFC
6000
6000
3004
381C
1FFC
07F0
ENDCHAR
STARTCHAR 1EC2
ENCODING 7874
SWIDTH 640 0
DWIDTH 16 0
BBX 15 25 2 0
BITMAP
001C
0786
0786
0CCC
1868
0000
FFF8
FFF8
C000
C000
C000
C000
C000
C000
FFF8
FFF8
C000
C000
C000
C000
C000
C000
C000
FFF8
FFF8
ENDCHAR
STARTCHAR 1EC3
ENCODING 7875
SWIDTH 600 0
DWIDTH 15 0
BBX 14 24 1 0
BITMAP
0038
000C
000C
0798
0790
0CC0
0CC0
1860
0000
0000
0FC0
3FE0
7070
6030
C018
C018
FFF8
FFF8
C000
C000
6008
7038
3FF8
0FE0
ENDCHAR
STARTCHAR 1EC4
ENCODING 7876
SWIDTH 640 0
DWIDTH 16 0
BBX 13 25 2 0
BITMAP
0E60
19C0
0000
0780
0CC0
0000
FFF8
FFF8
C000
C000
C000
C000
C000
C000
FFF8
FFF8
C000
C000
C000
C000
C000
C000
C000
FFF8
FFF8
ENDCHAR
STARTCHAR 1EC5
ENCODING 7877
SWIDTH 600 0
DWIDTH 15 0
BBX 13 25 1 0
BITMAP
0E60
1FE0
19C0
0000
0780
0780
0CC0
0CC0
1860
0000
0000
0FC0
3FE0
7070
6030
C018
C018
FFF8
FFF8
C000
C000
6008
7038
3FF8
0FE0
ENDCHAR
STARTCHAR 1EC6
ENCODING 7878
SWIDTH 640 0
DWIDTH 16 0
BBX 13 30 2 -4
BITMAP
0780
0780
0CC0
0CC0
1860
0000
0000
FFF8
FFF8
C000
C000
C000
C000
C000
C000
FFF8
FFF8
C000
C000
C000
C000
C000
C000
C000
FFF8
FFF8
0000
0000
0300
0300
ENDCHAR
STARTCHAR 1EC7
ENCODING 7879
SWIDTH 600 0
DWIDTH 15 0
BBX 13 25 1 -4
BITMAP
0780
0780
0CC0
0CC0
1860
0000
0000
0FC0
3FE0
7070
6030
C018
C018
FFF8
FFF8
C000
C000
6008
7038
3FF8
0FE0
0000
0000
0300
0300
ENDCHAR
STARTCHAR 1EC8
ENCODING 7880
SWIDTH 400 0
DWIDTH 10 0
BBX 6 26 2 0
BITMAP
38
0C
0C
18
10
00
00
FC
FC
30
30
30
30
30
30
30
30
30
30
30
30
30
30
30
FC
FC
ENDCHAR
STARTCHAR 1EC9
ENCODING 7881
SWIDTH 240 0
DWIDTH 6 0
BBX 4 21 2 0
BITMAP
E0
30
30
60
40
00
00
C0
C0
C0
C0
C0
C0
C0
C0
C0
C0
C0
C0
C0
C0
ENDCHAR
STARTCHAR 1ECA
ENCODING 7882
SWIDTH 400 0
DWIDTH 10 0
BBX 6 23 2 -4
BITMAP
FC
FC
30
30
30
30
30
30
30
30
30
30
30
30
30
30
30
FC
FC
00
00
30
30
ENDCHAR
STARTCHAR 1ECB
ENCODING 7883
SWIDTH 240 0
DWIDTH 6 0
BBX 2 23 2 -4
BITMAP
C0
C0
00
00
00
C0
C0
C0
C0
C0
C0
C0
C0
C0
C0
C0
C0
C0
C0
00
00
C0
C0
ENDCHAR
STARTCHAR 1ECC
ENCODING 7884
SWIDTH 800 0
DWIDTH 20 0
BBX 18 23 1 -4
BITMAP
03F000
0FFC00
3C0F00
300300
600180
600180
C000C0
C000C0
C000C0
C000C0
C000C0
C000C0
C000C0
600180
600180
300300
3C0F00
0FFC00
03F000
000000
000000
00C000
00C000
ENDCHAR
STARTCHAR 1ECD
ENCODING 7885
SWIDTH 600 0
DWIDTH 15 0
BBX 13 18 1 -4
BITMAP
0F80
3FE0
7070
6030
C018
C018
C018
C018
C018
C018
6030
7070
3FE0
0F80
0000
0000
0300
0300
ENDCHAR
STARTCHAR 1ECE
ENCODING 7886
SWIDTH 800 0
DWIDTH 20 0
BBX 18 26 1 0
BITMAP
01C000
006000
006000
00C000
008000
000000
000000
03F000
0FFC00
3C0F00
300300
600180
600180
C000C0
C000C0
C000C0
C000C0
C000C0
C000C0
C000C0
600180
600180
300300
3C0F00
0FFC00
03F000
ENDCHAR
STARTCHAR 1ECF
ENCODING 7887
SWIDTH 600 0
DWIDTH 15 0
BBX 13 21 1 0
BITMAP
0700
0180
0180
0300
0200
0000
0000
0F80
3FE0
7070
6030
C018
C018
C018
C018
C018
C018
6030
7070
3FE0
0F80
ENDCHAR
STARTCHAR 1ED0
ENCODING 7888
SWIDTH 800 0
DWIDTH 20 0
BBX 18 26 1 0
BITMAP
01E380
01E300
033600
033000
061800
000000
000000
03F000
0FFC00
3C0F00
300300
600180
600180
C000C0
C000C0
C000C0
C000C0
C000C0
C000C0
C000C0
600180
600180
300300
3C0F00
0FFC00
03F000
ENDCHAR
STARTCHAR 1ED1
ENCODING 7889
SWIDTH 600 0
DWIDTH 15 0
BBX 15 21 1 0
BITMAP
078E
078C
0CD8
0CC0
1860
0000
0000
0F80
3FE0
7070
6030
C018
C018
C018
C018
C018
C018
6030
7070
3FE0
0F80
ENDCHAR
STARTCHAR 1ED2
ENCODING 7890
SWIDTH 800 0
DWIDTH 20 0
BBX 18 26 1 0
BITMAP
71E000
31E000
1B3000
033000
061800
000000
000000
03F000
0FFC00
3C0F00
300300
600180
600180
C000C0
C000C0
C000C0
C000C0
C000C0
C000C0
C000C0
600180
600180
300300
3C0F00
0FFC00
03F000
ENDCHAR
STARTCHAR 1ED3
ENCODING 7891
SWIDTH 600 0
DWIDTH 15 0
BBX 14 21 0 0
BITMAP
E3C0
63C0
3660
0660
0C30
0000
0000
07C0
1FF0
3838
3018
600C
600C
600C
600C
600C
600C
3018
3838
1FF0
07C0
ENDCHAR
STARTCHAR 1ED4
ENCODING 7892
SWIDTH 800 0
DWIDTH 20 0
BBX 18 25 1 0
BITMAP
000700
01E180
01E180
033300
061A00
000000
03F000
0FFC00
3C0F00
300300
600180
600180
C000C0
C000C0
C000C0
C000C0
C000C0
C000C0
C000C0
600180
600180
300300
3C0F00
0FFC00
03F000
ENDCHAR
STARTCHAR 1ED5
ENCODING 7893
SWIDTH 600 0
DWIDTH 15 0
BBX 14 24 1 0
BITMAP
0038
000C
000C
0798
0790
0CC0
0CC0
1860
0000
0000
0F80
3FE0
7070
6030
C018
C018
C018
C018
C018
C018
6030
7070
3FE0
0F80
ENDCHAR
STARTCHAR 1ED6
ENCODING 7894
SWIDTH 800 0
DWIDTH 20 0
BBX 18 25 1 0
BITMAP
039800
067000
000000
01E000
033000
000000
03F000
0FFC00
3C0F00
300300
600180
600180
C000C0
C000C0
C000C0
C000C0
C000C0
C000C0
C000C0
600180
600180
300300
3C0F00
0FFC00
03F000
ENDCHAR
STARTCHAR 1ED7
ENCODING 7895
SWIDTH 600 0
DWIDTH 15 0
BBX 13 25 1 0
BITMAP
0E60
1FE0
19C0
0000
0780
0780
0CC0
0CC0
1860
0000
0000
0F80
3FE0
7070
6030
C018
C018
C018
C018
C018
C018
6030
7070
3FE0
0F80
ENDCHAR
STARTCHAR 1ED8
ENCODING 7896
SWIDTH 800 0
DWIDTH 20 0
BBX 18 30 1 -4
BITMAP
01E000
01E000
033000
033000
061800
000000
000000
03F000
0FFC00
3C0F00
300300
600180
600180
C000C0
C000C0
C000C0
C000C0
C000C0
C000C0
C000C0
600180
600180
300300
3C0F00
0FFC00
03F000
000000
000000
00C000
00C000
ENDCHAR
STARTCHAR 1ED9
ENCODING 7897
SWIDTH 600 0
DWIDTH 15 0
BBX 13 25 1 -4
BITMAP
0780
0780
0CC0
0CC0
1860
0000
0000
0F80
3FE0
7070
6030
C018
C018
C018
C018
C018
C018
6030
7070
3FE0
0F80
0000
0000
0300
0300
ENDCHAR
STARTCHAR 1EDA
ENCODING 7898
SWIDTH 800 0
DWIDTH 20 0
BBX 19 26 1 0
BITMAP
007000
00E000
00C000
00C000
018000
000000
000000
07E060
1FFC60
3C1E60
3007E0
6003C0
600300
C00180
C00180
C00180
C00180
C00180
C00180
C00180
600300
600300
300600
3C1E00
1FFC00
07F000
ENDCHAR
STARTCHAR 1EDB
ENCODING 7899
SWIDTH 600 0
DWIDTH 15 0
BBX 14 21 1 0
BITMAP
01C0
0380
0300
0300
060C
000C
000C
0FFC
3FF8
7070
6030
C018
C018
C018
C018
C018
C018
6030
7070
3FE0
0F80
ENDCHAR
STARTCHAR 1EDC
ENCODING 7900
SWIDTH 800 0
DWIDTH 20 0
BBX 19 26 1 0
BITMAP
038000
01C000
00C000
00C000
006000
000000
000000
07E060
1FFC60
3C1E60
3007E0
6003C0
600300
C00180
C00180
C00180
C00180
C00180
C00180
C00180
600300
600300
300600
3C1E00
1FFC00
07F000
ENDCHAR
STARTCHAR 1EDD
ENCODING 7901
SWIDTH 600 0
DWIDTH 15 0
BBX 14 21 1 0
BITMAP
0E00
0700
0300
0300
018C
000C
000C
0FFC
3FF8
7070
6030
C018
C018
C018
C018
C018
C018
6030
7070
3FE0
0F80
ENDCHAR
STARTCHAR 1EDE
ENCODING 7902
SWIDTH 800 0
DWIDTH 20 0
BBX 19 26 1 0
BITMAP
01C000
006000
006000
00C000
008000
000000
000000
07E060
1FFC60
3C1E60
3007E0
6003C0
600300
C00180
C00180
C00180
C00180
C00180
C00180
C00180
600300
600300
300600
3C1E00
1FFC00
07F000
ENDCHAR
STARTCHAR 1EDF
ENCODING 7903
SWIDTH 600 0
DWIDTH 15 0
BBX 14 21 1 0
BITMAP
0700
0180
0180
0300
020C
000C
000C
0FFC
3FF8
7070
6030
C018
C018
C018
C018
C018
C018
6030
7070
3FE0
0F80
ENDCHAR
STARTCHAR 1EE0
ENCODING 7904
SWIDTH 800 0
DWIDTH 20 0
BBX 19 25 1 0
BITMAP
070C00
07CC00
0CF800
0C7800
000000
000000
07E060
1FFC60
3C1E60
3007E0
6003C0
600300
C00180
C00180
C00180
C00180
C00180
C00180
C00180
600300
600300
300600
3C1E00
1FFC00
07F000
ENDCHAR
STARTCHAR 1EE1
ENCODING 7905
SWIDTH 600 0
DWIDTH 15 0
BBX 14 20 1 0
BITMAP
1C30
1F30
33E0
31EC
000C
000C
0FFC
3FF8
7070
6030
C018
C018
C018
C018
C018
C018
6030
7070
3FE0
0F80
ENDCHAR
STARTCHAR 1EE2
ENCODING 7906
SWIDTH 800 0
DWIDTH 20 0
BBX 19 23 1 -4
BITMAP
07E060
1FFC60
3C1E60
3007E0
6003C0
600300
C00180
C00180
C00180
C00180
C00180
C00180
C00180
600300
600300
300600
3C1E00
1FFC00
07F000
000000
000000
00C000
00C000
ENDCHAR
STARTCHAR 1EE3
ENCODING 7907
SWIDTH 600 0
DWIDTH 15 0
BBX 14 21 1 -4
BITMAP
000C
000C
000C
0FFC
3FF8
7070
6030
C018
C018
C018
C018
C018
C018
6030
7070
3FE0
0F80
0000
0000
0300
0300
ENDCHAR
STARTCHAR 1EE4
ENCODING 7908
SWIDTH 720 0
DWIDTH 18 0
BBX 14 23 2 -4
BITMAP
C00C
C00C
C00C
C00C
C00C
C00C
C00C
C00C
C00C
C00C
C00C
C00C
C00C
C00C
C00C
6018
7038
3FF0
0FC0
0000
0000
0300
0300
ENDCHAR
STARTCHAR 1EE5
ENCODING 7909
SWIDTH 640 0
DWIDTH 16 0
BBX 12 18 2 -4
BITMAP
C030
C030
C030
C030
C030
C030
C030
C030
C030
C030
C030
E0F0
7FB0
1F30
0000
0000
0600
0600
ENDCHAR
STARTCHAR 1EE6
ENCODING 7910
SWIDTH 720 0
DWIDTH 18 0
BBX 14 26 2 0
BITMAP
0380
00C0
00C0
0180
0100
0000
0000
C00C
C00C
C00C
C00C
C00C
C00C
C00C
C00C
C00C
C00C
C00C
C00C
C00C
C00C
C00C
6018
7038
3FF0
0FC0
ENDCHAR
STARTCHAR 1EE7
ENCODING 7911
SWIDTH 640 0
DWIDTH 16 0
BBX 12 21 2 0
BITMAP
0700
0180
0180
0300
0200
0000
0000
C030
C030
C030
C030
C030
C030
C030
C030
C030
C030
C030
E0F0
7FB0
1F30
ENDCHAR
STARTCHAR 1EE8
ENCODING 7912
SWIDTH 760 0
DWIDTH 19 0
BBX 18 26 2 0
BITMAP
00E000
01C000
018000
018000
0300C0
0000C0
0000C0
C00FC0
C00F80
C00C00
C00C00
C00C00
C00C00
C00C00
C00C00
C00C00
C00C00
C00C00
C00C00
C00C00
C00C00
C00C00
601800
703800
3FF000
0FC000
ENDCHAR
STARTCHAR 1EE9
ENCODING 7913
SWIDTH 680 0
DWIDTH 17 0
BBX 16 21 2 0
BITMAP
01C0
0380
0300
0300
0603
0003
0003
C03F
C03E
C030
C030
C030
C030
C030
C030
C030
C030
C030
E0F0
7FB0
1F30
ENDCHAR
STARTCHAR 1EEA
ENCODING 7914
SWIDTH 760 0
DWIDTH 19 0
BBX 18 26 2 0
BITMAP
0E0000
070000
030000
030000
0180C0
0000C0
0000C0
C00FC0
C00F80
C00C00
C00C00
C00C00
C00C00
C00C00
C00C00
C00C00
C00C00
C00C00
C00C00
C00C00
C00C00
C00C00
601800
703800
3FF000
0FC000
ENDCHAR
STARTCHAR 1EEB
ENCODING 7915
SWIDTH 680 0
DWIDTH 17 0
BBX 16 21 2 0
BITMAP
1C00
0E00
0600
0600
0303
0003
0003
C03F
C03E
C030
C030
C030
C030
C030
C030
C030
C030
C030
E0F0
7FB0
1F30
ENDCHAR
STARTCHAR 1EEC
ENCODING 7916
SWIDTH 760 0
DWIDTH 19 0
BBX 18 26 2 0
BITMAP
038000
00C000
00C000
018000
0100C0
0000C0
0000C0
C00FC0
C00F80
C00C00
C00C00
C00C00
C00C00
C00C00
C00C00
C00C00
C00C00
C00C00
C00C00
C00C00
C00C00
C00C00
601800
703800
3FF000
0FC000
ENDCHAR
STARTCHAR 1EED
ENCODING 7917
SWIDTH 680 0
DWIDTH 17 0
BBX 16 21 2 0
BITMAP
0700
0180
0180
0300
0203
0003
0003
C03F
C03E
C030
C030
C030
C030
C030
C030
C030
C030
C030
E0F0
7FB0
1F30
ENDCHAR
STARTCHAR 1EEE
ENCODING 7918
SWIDTH 760 0
DWIDTH 19 0
BBX 18 24 2 0
BITMAP
1C3000
1F3000
33E0C0
31E0C0
0000C0
C00FC0
C00F80
C00C00
C00C00
C00C00
C00C00
C00C00
C00C00
C00C00
C00C00
C00C00
C00C00
C00C00
C00C00
C00C00
601800
703800
3FF000
0FC000
ENDCHAR
STARTCHAR 1EEF
ENCODING 7919
SWIDTH 680 0
DWIDTH 17 0
BBX 16 20 2 0
BITMAP
3860
3E60
67C0
63C3
0003
0003
C03F
C03E
C030
C030
C030
C030
C030
C030
C030
C030
C030
E0F0
7FB0
1F30
ENDCHAR
STARTCHAR 1EF0
ENCODING 7920
SWIDTH 760 0
DWIDTH 19 0
BBX 18 26 2 -4
BITMAP
0000C0
0000C0
0000C0
C00FC0
C00F80
C00C00
C00C00
C00C00
C00C00
C00C00
C00C00
C00C00
C00C00
C00C00
C00C00
C00C00
C00C00
C00C00
601800
703800
3FF000
0FC000
000000
000000
030000
030000
ENDCHAR
STARTCHAR 1EF1
ENCODING 7921
SWIDTH 680 0
DWIDTH 17 0
BBX 16 21 2 -4
BITMAP
0003
0003
0003
C03F
C03E
C030
C030
C030
C030
C030
C030
C030
C030
C030
E0F0
7FB0
1F30
0000
0000
0600
0600
ENDCHAR
STARTCHAR 1EF2
ENCODING 7922
SWIDTH 600 0
DWIDTH 15 0
BBX 16 26 0 0
BITMAP
0700
0380
0180
0180
00C0
0000
0000
E007
6006
300C
381C
1818
0C30
0E70
0660
07C0
03C0
0180
0180
0180
0180
0180
0180
0180
0180
0180
ENDCHAR
STARTCHAR 1EF3
ENCODING 7923
SWIDTH 600 0
DWIDTH 15 0
BBX 13 26 1 -5
BITMAP
0E00
0700
0300
0300
0180
0000
0000
C018
6030
6030
7070
3060
38E0
18C0
18C0
1DC0
0D80
0F80
0700
0700
0600
0600
0E00
0C00
0C00
1800
ENDCHAR
STARTCHAR 1EF4
ENCODING 7924
SWIDTH 600 0
DWIDTH 15 0
BBX 16 23 0 -4
BITMAP
E007
6006
300C
381C
1818
0C30
0E70
0660
07C0
03C0
0180
0180
0180
0180
0180
0180
0180
0180
0180
0000
0000
0180
0180
ENDCHAR
STARTCHAR 1EF5
ENCODING 7925
SWIDTH 600 0
DWIDTH 15 0
BBX 13 19 1 -5
BITMAP
C018
6030
6030
7070
3060
38E0
18C0
18C0
1DC0
0D80
0F80
0700
0700
0600
0600
0E00
0C60
0C60
1800
ENDCHAR
STARTCHAR 1EF6
ENCODING 7926
SWIDTH 600 0
DWIDTH 15 0
BBX 16 26 0 0
BITMAP
01C0
0060
0060
00C0
0080
0000
0000
E007
6006
300C
381C
1818
0C30
0E70
0660
07C0
03C0
0180
0180
0180
0180
0180
0180
0180
0180
0180
ENDCHAR
STARTCHAR 1EF7
ENCODING 7927
SWIDTH 600 0
DWIDTH 15 0
BBX 13 26 1 -5
BITMAP
0700
0180
0180
0300
0200
0000
0000
C018
6030
6030
7070
3060
38E0
18C0
18C0
1DC0
0D80
0F80
0700
0700
0600
0600
0E00
0C00
0C00
1800
ENDCHAR
STARTCHAR 1EF8
ENCODING 7928
SWIDTH 600 0
DWIDTH 15 0
BBX 16 25 0 0
BITMAP
0E18
0F98
19F0
18F0
0000
0000
E007
6006
300C
381C
1818
0C30
0E70
0660
07C0
03C0
0180
0180
0180
0180
0180
0180
0180
0180
0180
ENDCHAR
STARTCHAR 1EF9
ENCODING 7929
SWIDTH 600 0
DWIDTH 15 0
BBX 13 25 1 -5
BITMAP
1C30
1F30
33E0
31E0
0000
0000
C018
6030
6030
7070
3060
38E0
18C0
18C0
1DC0
0D80
0F80
0700
0700
0600
0600
0E00
0C00
0C00
1800
ENDCHAR
STARTCHAR 2013
ENCODING 8211
SWIDTH 640 0
DWIDTH 16 0
BBX 12 2 2 7
BITMAP
FFF0
FFF0
ENDCHAR
STARTCHAR 2014
ENCODING 8212
SWIDTH 1000 0
DWIDTH 25 0
BBX 21 2 2 7
BITMAP
FFFFF8
FFFFF8
ENDCHAR
STARTCHAR 2015
ENCODING 8213
SWIDTH 1000 0
DWIDTH 25 0
BBX 21 2 2 7
BITMAP
FFFFF8
FFFFF8
ENDCHAR
STARTCHAR 2017
ENCODING 8215
SWIDTH 640 0
DWIDTH 16 0
BBX 16 4 0 -5
BITMAP
FFFF
0000
0000
FFFF
ENDCHAR
STARTCHAR 2018
ENCODING 8216
SWIDTH 280 0
DWIDTH 7 0
BBX 5 7 0 13
BITMAP
E0
60
70
30
30
18
18
ENDCHAR
STARTCHAR 2019
ENCODING 8217
SWIDTH 280 0
DWIDTH 7 0
BBX 5 7 2 13
BITMAP
38
30
70
60
60
C0
C0
ENDCHAR
STARTCHAR 201A
ENCODING 8218
SWIDTH 280 0
DWIDTH 7 0
BBX 5 7 0 -4
BITMAP
38
30
70
60
60
C0
C0
ENDCHAR
STARTCHAR 201B
ENCODING 8219
SWIDTH 280 0
DWIDTH 7 0
BBX 5 7 0 13
BITMAP
18
18
30
30
70
60
E0
ENDCHAR
STARTCHAR 201C
ENCODING 8220
SWIDTH 440 0
DWIDTH 11 0
BBX 10 7 0 13
BITMAP
E700
6300
7380
3180
3180
18C0
18C0
ENDCHAR
STARTCHAR 201D
ENCODING 8221
SWIDTH 440 0
DWIDTH 11 0
BBX 10 7 2 13
BITMAP
39C0
3180
7380
6300
6300
C600
C600
ENDCHAR
STARTCHAR 201E
ENCODING 8222
SWIDTH 440 0
DWIDTH 11 0
BBX 10 7 0 -4
BITMAP
39C0
3180
7380
6300
6300
C600
C600
ENDCHAR
STARTCHAR 2020
ENCODING 8224
SWIDTH 640 0
DWIDTH 16 0
BBX 12 18 2 2
BITMAP
0600
0600
0600
0600
0600
FFF0
FFF0
0600
0600
0600
0600
0600
0600
0600
0600
0600
0600
0600
ENDCHAR
STARTCHAR 2021
ENCODING 8225
SWIDTH 640 0
DWIDTH 16 0
BBX 12 18 2 2
BITMAP
0600
0600
0600
0600
0600
FFF0
FFF0
0600
0600
0600
0600
0600
FFF0
FFF0
0600
0600
0600
0600
ENDCHAR
STARTCHAR 2022
ENCODING 8226
SWIDTH 560 0
DWIDTH 14 0
BBX 9 9 2 4
BITMAP
3C00
7F00
FF80
FF80
FF80
FF80
FF80
7F00
3E00
ENDCHAR
STARTCHAR 2026
ENCODING 8230
SWIDTH 800 0
DWIDTH 20 0
BBX 16 3 2 0
BITMAP
C183
C183
C183
ENDCHAR
STARTCHAR 2030
ENCODING 8240
SWIDTH 1520 0
DWIDTH 38 0
BBX 34 19 2 0
BITMAP
3E01800000
7F03000000
E303000000
C186000000
C186000000
C18C000000
C18C000000
C198000000
E398F81F00
7F11FC3F80
3E338C7180
00330660C0
00630660C0
00630660C0
00C30660C0
00C30660C0
01838E71C0
0181FC3F80
0300F81F00
ENDCHAR
STARTCHAR 2032
ENCODING 8242
SWIDTH 360 0
DWIDTH 9 0
BBX 5 8 3 11
BITMAP
38
30
30
70
60
60
C0
C0
ENDCHAR
STARTCHAR 2033
ENCODING 8243
SWIDTH 560 0
DWIDTH 14 0
BBX 10 8 3 11
BITMAP
39C0
3180
3180
7380
6300
6300
C600
C600
ENDCHAR
STARTCHAR 2039
ENCODING 8249
SWIDTH 440 0
DWIDTH 11 0
BBX 7 12 2 2
BITMAP
02
06
0E
3C
70
E0
E0
70
1C
0E
06
02
ENDCHAR
STARTCHAR 203A
ENCODING 8250
SWIDTH 440 0
DWIDTH 11 0
BBX 7 12 2 2
BITMAP
80
C0
E0
78
1C
0E
0E
1C
78
E0
C0
80
ENDCHAR
STARTCHAR 203C
ENCODING 8252
SWIDTH 640 0
DWIDTH 16 0
BBX 8 19 4 0
BITMAP
C3
C3
C3
C3
C3
C3
C3
C3
C3
C3
C3
C3
C3
C3
00
00
C3
C3
C3
ENDCHAR
STARTCHAR 203E
ENCODING 8254
SWIDTH 640 0
DWIDTH 16 0
BBX 17 1 -1 21
BITMAP
FFFF80
ENDCHAR
STARTCHAR 2044
ENCODING 8260
SWIDTH 360 0
DWIDTH 9 0
BBX 12 19 -1 0
BITMAP
0030
0060
0060
00C0
00C0
0180
0180
0300
0700
0600
0E00
0C00
1C00
1800
3000
3000
6000
6000
C000
ENDCHAR
STARTCHAR 207F
ENCODING 8319
SWIDTH 560 0
DWIDTH 14 0
BBX 10 12 2 7
BITMAP
CF00
FF80
F1C0
C0C0
C0C0
C0C0
C0C0
C0C0
C0C0
C0C0
C0C0
C0C0
ENDCHAR
STARTCHAR 20A3
ENCODING 8355
SWIDTH 640 0
DWIDTH 16 0
BBX 13 19 1 0
BITMAP
3FF8
3FF8
3000
3000
3000
3000
3000
3000
3FF0
3FF0
3000
3000
3000
FF00
FF00
3000
3000
3000
3000
ENDCHAR
STARTCHAR 20A4
ENCODING 8356
SWIDTH 640 0
DWIDTH 16 0
BBX 13 19 2 0
BITMAP
03F8
07F8
0E08
1C00
1800
1800
1800
1800
7FC0
7FC0
1800
7FC0
7FC0
1800
1800
3000
E000
FFF8
FFF8
ENDCHAR
STARTCHAR 20A7
ENCODING 8359
SWIDTH 1160 0
DWIDTH 29 0
BBX 25 19 2 0
BITMAP
FC000000
FF000000
C3980000
C1D80000
C0D81F00
C0FFFF80
C0FFE080
C0D8C000
C198C000
C398C000
FF18F800
FC187F00
C0180F00
C0180180
C0180180
C0188180
C018C380
C018FF00
C0183E00
ENDCHAR
STARTCHAR 20AB
ENCODING 8363
SWIDTH 640 0
DWIDTH 16 0
BBX 15 24 1 -4
BITMAP
0018
0018
01FE
01FE
0018
0018
0FD8
3FF8
7838
6018
E018
C018
C018
C018
C018
C018
6018
7078
3FF8
1F98
0000
0000
3FF8
3FF8
ENDCHAR
STARTCHAR 20AC
ENCODING 8364
SWIDTH 640 0
DWIDTH 16 0
BBX 15 19 0 0
BITMAP
01F8
07FE
0E0E
1C02
3800
3000
7000
FFC0
6000
6000
FF80
6000
3000
3000
3800
1C02
0E06
07FE
01F8
ENDCHAR
STARTCHAR 2105
ENCODING 8453
SWIDTH 1080 0
DWIDTH 27 0
BBX 23 19 2 0
BITMAP
1E0180
7F0300
610300
C00600
C00600
C00C00
C00C00
C01C00
6118F8
7F39FC
1E338C
007306
006306
006306
00C306
00C306
01838E
0181FC
0300F8
ENDCHAR
STARTCHAR 2113
ENCODING 8467
SWIDTH 320 0
DWIDTH 8 0
BBX 8 19 0 0
BITMAP
1E
33
33
33
33
36
3E
3C
38
30
30
70
F0
70
30
30
31
3F
1E
ENDCHAR
STARTCHAR 2116
ENCODING 8470
SWIDTH 1160 0
DWIDTH 29 0
BBX 25 19 2 0
BITMAP
F0183E00
F0187F00
F818E300
D818C180
DC18C180
CC18C180
CE18C180
C618C180
C718E380
C3187F00
C3983E00
C1980000
C1D80000
C0D80000
C0F83E00
C0783E00
C0780000
C0780000
C0380000
ENDCHAR
STARTCHAR 2122
ENCODING 8482
SWIDTH 960 0
DWIDTH 24 0
BBX 19 9 2 10
BITMAP
FF70E0
1870E0
186960
186960
186660
186660
186660
186060
186060
ENDCHAR
STARTCHAR 2126
ENCODING 8486
SWIDTH 800 0
DWIDTH 20 0
BBX 18 19 1 0
BITMAP
03F000
0FFC00
1C0E00
380700
300300
600180
600180
600180
600180
600180
700180
300300
180700
1E0E00
071C00
031800
031800
FF1FC0
FF1FC0
ENDCHAR
STARTCHAR 212E
ENCODING 8494
SWIDTH 720 0
DWIDTH 18 0
BBX 14 16 2 0
BITMAP
07C0
1FF0
3838
6018
400C
C00C
FFFC
FFFC
C000
C000
C000
6000
7004
381C
1FFC
07F0
ENDCHAR
STARTCHAR 215B
ENCODING 8539
SWIDTH 1000 0
DWIDTH 25 0
BBX 21 19 2 0
BITMAP
180300
180600
F80600
180C00
180C00
181800
181800
183000
1873E0
186FF8
18EC18
00CC18
01C730
0183E0
030C38
030C18
060E38
0607F0
0C03E0
ENDCHAR
STARTCHAR 215C
ENCODING 8540
SWIDTH 1000 0
DWIDTH 25 0
BBX 22 19 2 0
BITMAP
7C0180
FF0300
830300
030600
3C0600
3E0C00
030C00
031800
8739F0
FE37FC
7C760C
00660C
00E398
00C1F0
01861C
01860C
03071C
0303F8
0601F0
ENDCHAR
STARTCHAR 215D
ENCODING 8541
SWIDTH 1000 0
DWIDTH 25 0
BBX 22 19 2 0
BITMAP
7F0180
7F0300
600300
600600
7C0600
7F0C00
030C00
031800
8739F0
FE37FC
7C760C
00660C
00E398
00C1F0
01861C
01860C
03071C
0303F8
0601F0
ENDCHAR
STARTCHAR 215E
ENCODING 8542
SWIDTH 1000 0
DWIDTH 25 0
BBX 21 19 2 0
BITMAP
FF0300
FF0600
030600
060C00
0C0C00
0C1800
181800
383000
3073E0
606FF8
E0EC18
00CC18
01C730
0183E0
030C38
030C18
060E38
0607F0
0C03E0
ENDCHAR
STARTCHAR 2202
ENCODING 8706
SWIDTH 640 0
DWIDTH 16 0
BBX 12 19 2 0
BITMAP
1F80
3FC0
20E0
0060
0030
0030
0030
1F30
3FF0
70F0
6030
C030
C030
C060
C060
C0E0
61C0
3F80
1F00
ENDCHAR
STARTCHAR 2206
ENCODING 8710
SWIDTH 720 0
DWIDTH 18 0
BBX 16 19 1 0
BITMAP
03C0
03C0
03C0
0660
0660
0660
0C30
0C30
0C30
1818
1818
1818
300C
300C
300C
6006
6006
FFFE
FFFF
ENDCHAR
STARTCHAR 220F
ENCODING 8719
SWIDTH 800 0
DWIDTH 20 0
BBX 16 21 2 -2
BITMAP
FFFF
FFFF
300C
300C
300C
300C
300C
300C
300C
300C
300C
300C
300C
300C
300C
300C
300C
300C
300C
300C
300C
ENDCHAR
STARTCHAR 2211
ENCODING 8721
SWIDTH 720 0
DWIDTH 18 0
BBX 14 21 2 -2
BITMAP
FFFC
FFFC
F000
7800
3C00
1E00
0F00
0780
03C0
01E0
00E0
01C0
0380
0700
0E00
1C00
3800
7000
E000
FFFC
FFFC
ENDCHAR
STARTCHAR 2212
ENCODING 8722
SWIDTH 800 0
DWIDTH 20 0
BBX 15 2 3 7
BITMAP
FFFE
FFFE
ENDCHAR
STARTCHAR 2215
ENCODING 8725
SWIDTH 360 0
DWIDTH 9 0
BBX 12 19 -1 0
BITMAP
0030
0060
0060
00C0
00C0
0180
0180
0300
0700
0600
0E00
0C00
1C00
1800
3000
3000
6000
6000
C000
ENDCHAR
STARTCHAR 2219
ENCODING 8729
SWIDTH 360 0
DWIDTH 9 0
BBX 3 3 3 6
BITMAP
E0
E0
E0
ENDCHAR
STARTCHAR 221A
ENCODING 8730
SWIDTH 800 0
DWIDTH 20 0
BBX 19 24 2 -2
BITMAP
000060
0000C0
0000C0
000180
000180
000380
000300
000700
000600
000E00
F00C00
F80C00
181800
181800
1C3000
0C3000
0C6000
0E6000
06E000
06C000
07C000
038000
038000
030000
ENDCHAR
STARTCHAR 221E
ENCODING 8734
SWIDTH 1000 0
DWIDTH 25 0
BBX 21 12 2 2
BITMAP
1F03C0
3F8FE0
71DC30
E07838
C07018
C03018
C06018
C06018
C0F038
61DC70
7F8FE0
1E07C0
ENDCHAR
STARTCHAR 222B
ENCODING 8747
SWIDTH 640 0
DWIDTH 16 0
BBX 12 25 2 -5
BITMAP
01F0
03F0
0700
0600
0600
0600
0600
0600
0600
0600
0600
0600
0600
0600
0600
0600
0600
0600
0600
0600
0600
0600
0C00
FC00
F800
ENDCHAR
STARTCHAR 2248
ENCODING 8776
SWIDTH 800 0
DWIDTH 20 0
BBX 15 11 3 2
BITMAP
3C06
7F06
638C
C1FC
C078
0000
3C06
7F06
638C
C1FC
C078
ENDCHAR
STARTCHAR 2260
ENCODING 8800
SWIDTH 800 0
DWIDTH 20 0
BBX 14 15 3 1
BITMAP
00C0
01C0
0180
0180
FFFC
FFFC
0300
0300
0300
FFFC
FFFC
0600
0600
0E00
0C00
ENDCHAR
STARTCHAR 2264
ENCODING 8804
SWIDTH 800 0
DWIDTH 20 0
BBX 14 17 3 0
BITMAP
0004
003C
00F8
07E0
1F00
7C00
E000
7C00
1F00
03E0
00F8
003C
0004
0000
0000
FFFC
FFFC
ENDCHAR
STARTCHAR 2265
ENCODING 8805
SWIDTH 800 0
DWIDTH 20 0
BBX 14 17 3 0
BITMAP
8000
F000
7C00
1F00
03E0
00F8
001C
00F8
03E0
1F80
7C00
F000
8000
0000
0000
FFFC
FFFC
ENDCHAR
STARTCHAR 25A1
ENCODING 9633
SWIDTH 600 0
DWIDTH 15 0
BBX 12 12 2 0
BITMAP
FFF0
8010
8010
8010
8010
8010
8010
8010
8010
8010
8010
FFF0
ENDCHAR
STARTCHAR 25AA
ENCODING 9642
SWIDTH 360 0
DWIDTH 9 0
BBX 6 6 2 5
BITMAP
FC
FC
FC
FC
FC
FC
ENDCHAR
STARTCHAR 25AB
ENCODING 9643
SWIDTH 360 0
DWIDTH 9 0
BBX 6 6 2 5
BITMAP
FC
84
84
84
84
FC
ENDCHAR
STARTCHAR 25CA
ENCODING 9674
SWIDTH 800 0
DWIDTH 20 0
BBX 17 17 2 -1
BITMAP
008000
01C000
03E000
077000
0E3800
1C1C00
380E00
700700
E00380
700700
380E00
1C1C00
0E3800
077000
03E000
01C000
008000
ENDCHAR
STARTCHAR 25CF
ENCODING 9679
SWIDTH 600 0
DWIDTH 15 0
BBX 11 11 2 1
BITMAP
1F00
3F80
7FC0
FFE0
FFE0
FFE0
FFE0
FFE0
7FC0
3F80
1F00
ENDCHAR
STARTCHAR 25E6
ENCODING 9702
SWIDTH 360 0
DWIDTH 9 0
BBX 6 6 1 5
BITMAP
30
48
84
84
48
30
ENDCHAR
STARTCHAR F001
ENCODING 61441
SWIDTH 640 0
DWIDTH 16 0
BBX 14 20 0 0
BITMAP
07C0
1FCC
180C
3000
3000
3000
FFFC
FFFC
300C
300C
300C
300C
300C
300C
300C
300C
300C
300C
300C
300C
ENDCHAR
STARTCHAR F002
ENCODING 61442
SWIDTH 640 0
DWIDTH 16 0
BBX 14 20 0 0
BITMAP
07FC
1FFC
180C
300C
300C
300C
FF8C
FF8C
300C
300C
300C
300C
300C
300C
300C
300C
300C
300C
300C
300C
ENDCHAR
STARTCHAR F004
ENCODING 61444
SWIDTH 200 0
DWIDTH 5 0
BBX 5 7 1 -5
BITMAP
38
30
70
60
60
C0
C0
ENDCHAR
STARTCHAR F005
ENCODING 61445
SWIDTH 640 0
DWIDTH 16 0
BBX 6 5 4 -5
BITMAP
0C
0C
0C
F8
F0
ENDCHAR
STARTCHAR F006
ENCODING 61446
SWIDTH 560 0
DWIDTH 14 0
BBX 5 11 3 8
BITMAP
18
18
F8
18
18
18
18
18
18
18
18
ENDCHAR
STARTCHAR F007
ENCODING 61447
SWIDTH 560 0
DWIDTH 14 0
BBX 9 11 3 8
BITMAP
7C00
FE00
8700
0300
0300
0600
0C00
3800
6000
FF80
FF80
ENDCHAR
STARTCHAR F008
ENCODING 61448
SWIDTH 560 0
DWIDTH 14 0
BBX 8 11 3 8
BITMAP
7C
FF
83
03
3C
3E
03
03
87
FE
7C
ENDCHAR
STARTCHAR F009
ENCODING 61449
SWIDTH 560 0
DWIDTH 14 0
BBX 10 11 2 8
BITMAP
0700
0F00
1F00
3B00
6300
C300
FFC0
FFC0
0300
0300
0300
ENDCHAR
STARTCHAR F00A
ENCODING 61450
SWIDTH 560 0
DWIDTH 14 0
BBX 8 11 3 8
BITMAP
7F
7F
60
60
7C
7F
03
03
87
FE
7C
ENDCHAR
STARTCHAR F00B
ENCODING 61451
SWIDTH 560 0
DWIDTH 14 0
BBX 8 11 3 8
BITMAP
FF
FF
03
06
0C
0C
18
38
30
60
E0
ENDCHAR
STARTCHAR F00C
ENCODING 61452
SWIDTH 560 0
DWIDTH 14 0
BBX 9 11 2 8
BITMAP
3E00
FF80
C180
C180
7300
3E00
C380
C180
E380
7F00
3E00
ENDCHAR
STARTCHAR F00D
ENCODING 61453
SWIDTH 0 0
DWIDTH 0 0
BBX 1 1 0 0
BITMAP
00
ENDCHAR
STARTCHAR FB01
ENCODING 64257
SWIDTH 640 0
DWIDTH 16 0
BBX 14 20 0 0
BITMAP
07C0
1FCC
180C
3000
3000
3000
FFFC
FFFC
300C
300C
300C
300C
300C
300C
300C
300C
300C
300C
300C
300C
ENDCHAR
STARTCHAR FB02
ENCODING 64258
SWIDTH 640 0
DWIDTH 16 0
BBX 14 20 0 0
BITMAP
07FC
1FFC
180C
300C
300C
300C
FF8C
FF8C
300C
300C
300C
300C
300C
300C
300C
300C
300C
300C
300C
300C
ENDCHAR
ENDFONT
